<?xml version="1.0" encoding="utf-8"?>
<!-- Generator: Adobe Illustrator 16.0.0, SVG Export Plug-In . SVG Version: 6.00 Build 0)  -->
<!DOCTYPE svg PUBLIC "-//W3C//DTD SVG 1.1//EN" "http://www.w3.org/Graphics/SVG/1.1/DTD/svg11.dtd">
<svg version="1.1" id="Layer_1" xmlns="http://www.w3.org/2000/svg" xmlns:xlink="http://www.w3.org/1999/xlink" x="0px" y="0px"
	 width="650px" height="650px" viewBox="0 0 650 650" enable-background="new 0 0 650 650" xml:space="preserve">
<g>
	<g>
		<path fill="#010101" d="M594.391,95.965c-47.176,160.631-94.352,321.274-141.544,481.922c-1.024,0.084-1.762-0.827-2.611-1.243
			c-52.572-32.979-105.179-65.931-157.762-98.91c-1.148-0.664-2.172-1.627-3.478-1.958c-6.611,5.581-12.92,11.574-19.407,17.319
			c-12.317,11.052-24.601,22.153-36.923,33.211h-0.428c-11.716-35.411-23.352-70.844-35.017-106.265
			c-2.071-1.407-4.642-1.835-6.836-3.045c-39.288-16.132-78.541-32.331-117.828-48.486c-11.833-4.991-23.83-9.628-35.59-14.805
			l0.146-0.405c186.769-91.69,373.52-183.454,560.289-275.167c0.731-0.315,1.435-0.799,2.257-0.827
			C598.312,83.598,596.079,89.731,594.391,95.965z M582.474,100.861c-65.334,71.811-130.641,143.644-195.997,215.444
			c-0.405,1.085,0.13,2.217,0.416,3.263c16.336,61.907,32.524,123.849,48.864,185.745c4.575,17.617,9.403,35.19,13.792,52.853
			l0.467-0.056c45.01-153.243,89.997-306.498,135.023-459.729C583.947,98.875,583.317,100.04,582.474,100.861z M533.3,118.884
			C382.909,192.726,232.547,266.602,82.167,340.46c-3.443,1.509-6.634,3.606-10.229,4.75l-0.011,0.394
			c76.954-14.912,153.936-29.738,230.89-44.627c13.07-2.583,26.204-4.924,39.236-7.676c13.746-11.332,27.262-22.985,40.913-34.441
			c61.867-52.274,123.735-104.548,185.609-156.817c0.174-0.225,0.494-0.669,0.658-0.9
			C557.332,107.191,545.251,112.931,533.3,118.884z M559.622,116.909c-57.782,48.78-115.537,97.616-173.319,146.407
			c-13.258,11.271-26.633,22.412-39.827,33.745c4.028,13.689,8.519,27.262,12.733,40.913
			c67.641-74.129,135.068-148.584,202.692-222.691C561.007,115.53,560.506,116.538,559.622,116.909z M290.144,309.067
			c-76.424,14.726-152.837,29.53-229.262,44.301c-0.546,0.253-1.592,0.068-1.761,0.816c5.233,1.693,10.207,4.113,15.333,6.11
			c41.847,17.241,83.711,34.442,125.553,51.717c0.619,0.35,1.198,0.327,1.744-0.067c42.518-35.895,85.011-71.821,127.533-107.722
			c1.323-1.294,3.022-2.228,4.153-3.702C319.083,303.717,304.555,306.113,290.144,309.067z M341.236,301.421
			c-45.409,38.319-90.802,76.689-136.193,115.042c-0.102,1.198,0.613,2.296,0.895,3.438c6.465,20.155,13.358,40.192,19.807,60.348
			c3.1,9.234,6.15,18.491,9.155,27.753c0.169,0.066,0.506,0.208,0.669,0.275c5.486-15.75,11.738-31.224,17.421-46.906
			c1.66-3.792,2.645-7.905,4.592-11.562c29.491-32.496,59.083-64.93,88.579-97.425c2.813-3.253,6.015-6.224,8.541-9.661
			c-0.483-2.803-1.62-5.476-2.408-8.21c-2.205-7.23-4.568-14.41-6.786-21.641c-1.282-3.805-2.2-7.748-3.764-11.44L341.236,301.421z
			 M381.289,322.055c-37.808,41.565-75.614,83.126-113.422,124.692c-1.029,1.277-2.397,2.296-3.196,3.759
			c9.993,6.668,20.623,12.536,30.655,19.188c49.14,30.818,98.291,61.609,147.42,92.428c0.821,0.473,1.575,1.221,2.588,1.232
			c-17.179-64.867-34.116-129.808-51.272-194.68c-2.335-9.256-4.906-18.429-7.219-27.685c-1.862-6.285-3.196-12.728-5.149-18.979
			L381.289,322.055z M261.036,455.592c-6.122,17.067-12.863,33.926-18.924,51.025c13.876-12.497,27.82-24.938,41.622-37.521
			l-0.202-0.343c-7.354-4.344-14.54-8.958-21.843-13.387C261.514,455.418,261.193,455.53,261.036,455.592z"/>
	</g>
</g>
</svg>
