<svg xmlns="http://www.w3.org/2000/svg" width="650" height="650" viewBox="0 0 650 650"><path fill="#0F0F10" d="M400.534 234.068c-24.173 6.073-52.21 12.28-77.14 11.512-14.97-.457-29.15-3.94-42.57-7.07-90.506-21.09-172.215-29.06-273.14-5.896l6.485 42.445c6.27.14 16.734 2.417 17.21 14.418 3.852 96.68 29.022 143.04 120.618 140.646 113.352-2.957 142.824-93.678 149.024-128.196 3.326-18.524 12.864-20.41 23.525-20.695 18.888-.508 21.032 13.295 24.34 21.654 38.857 98.22 62.212 120.567 143.744 127.668 123.943 10.81 109.664-81.098 126.432-134.51 3.21-10.205 6.733-15.435 17.948-15.682l5.305-42.45c-71.827-15.344-146.364-27.808-241.78-3.845zM38.927 259.733c-8.955 0-16.215-1.847-16.215-4.125s7.26-4.125 16.215-4.125 16.215 1.853 16.215 4.125c0 2.278-7.26 4.125-16.215 4.125zm229.33 65.438c-17.344 51.184-44.532 88.328-114.367 90.2-69.17 0-89.268-12.603-98.45-93.15 0-54.04-3.543-85.676 99.04-85.486 69.17 6.638 141.72 5.978 113.777 88.437zm327.19-2.943c-9.182 80.54-29.274 93.148-98.456 93.148-69.833-1.87-97.02-39.016-114.366-90.198-27.936-82.464 44.61-81.805 113.784-88.437 102.576-.19 99.04 31.447 99.04 85.487zm17.39-58.362c-8.947 0-16.214-1.853-16.214-4.125 0-2.278 7.267-4.125 16.215-4.125s16.215 1.847 16.215 4.125c0 2.272-7.26 4.125-16.215 4.125z"/></svg>