<svg xmlns="http://www.w3.org/2000/svg" width="650" height="650" viewBox="0 0 650 650"><path fill="#010101" d="M401.592 194.988c23.555 0 45.71 9.176 62.37 25.836 17.216 17.217 26.565 41.138 25.66 65.633l-.04 1.202.09 1.202.125 1.683c-.49 43.678-44.098 84.923-80.723 111.897-34.21 25.208-69.28 43.17-84.075 50.312-14.762-7.127-49.84-25.1-84.068-50.312-36.73-27.06-80.506-68.485-80.723-112.312l.124-3.934.018-.58-.01-.58c-.504-23.962 8.862-47.36 25.707-64.204 16.66-16.66 38.812-25.837 62.367-25.837 23.035 0 44.83 8.82 61.357 24.833l15.234 14.76 15.234-14.76c16.518-16.02 38.307-24.84 61.35-24.84m0-21.888c-28.818 0-55.94 11.002-76.583 31.007-20.652-20.013-47.776-31.007-76.6-31.007-29.406 0-57.053 11.458-77.854 32.25-21.182 21.176-32.74 50.165-32.11 80.145l-.132 4.307c0 102.344 177.376 182.935 184.927 186.312l1.76.786 1.76-.788c7.55-3.377 184.926-83.968 184.926-186.312l-.184-2.54c1.14-30.608-10.463-60.32-32.06-81.918-20.8-20.792-48.446-32.242-77.85-32.242z"/></svg>