<svg xmlns="http://www.w3.org/2000/svg" width="650" height="650" viewBox="0 0 650 650"><path fill="#010101" d="M594.39 95.965c-47.175 160.63-94.35 321.274-141.543 481.922-1.024.084-1.762-.827-2.61-1.243-52.573-32.98-105.18-65.93-157.763-98.91-1.148-.664-2.172-1.627-3.478-1.958-6.61 5.58-12.92 11.574-19.407 17.32-12.318 11.05-24.602 22.152-36.924 33.21h-.428c-11.716-35.41-23.352-70.844-35.017-106.265-2.07-1.406-4.64-1.834-6.835-3.044-39.288-16.132-78.54-32.33-117.828-48.486-11.833-4.99-23.83-9.628-35.59-14.805l.146-.405c186.77-91.69 373.52-183.454 560.29-275.167.73-.315 1.434-.8 2.256-.827-1.348 6.292-3.58 12.425-5.27 18.66zm-11.916 4.896c-65.334 71.812-130.64 143.645-195.997 215.445-.405 1.085.13 2.217.416 3.263 16.336 61.907 32.524 123.85 48.864 185.745 4.575 17.617 9.403 35.19 13.792 52.853l.466-.056c45.01-153.243 89.997-306.498 135.023-459.73-1.093.495-1.723 1.66-2.566 2.48zM533.3 118.885C382.91 192.726 232.547 266.602 82.167 340.46c-3.443 1.51-6.634 3.606-10.23 4.75l-.01.394c76.954-14.912 153.936-29.738 230.89-44.627 13.07-2.583 26.204-4.924 39.236-7.676 13.746-11.33 27.262-22.984 40.913-34.44 61.867-52.274 123.735-104.548 185.61-156.817.173-.225.493-.67.657-.9-11.9 6.048-23.982 11.788-35.933 17.74zm26.322-1.975c-57.782 48.78-115.537 97.615-173.32 146.406-13.257 11.27-26.632 22.412-39.826 33.745 4.028 13.69 8.52 27.263 12.733 40.914 67.64-74.13 135.067-148.584 202.69-222.69-.893.246-1.394 1.254-2.278 1.625zM290.144 309.066c-76.424 14.726-152.837 29.53-229.262 44.3-.546.254-1.592.07-1.76.817 5.232 1.693 10.206 4.113 15.332 6.11 41.847 17.24 83.71 34.442 125.553 51.717.62.35 1.198.328 1.744-.066 42.52-35.895 85.012-71.82 127.534-107.722 1.323-1.294 3.022-2.228 4.153-3.702-14.354 3.197-28.882 5.593-43.293 8.547zm51.092-7.646c-45.41 38.32-90.802 76.69-136.193 115.043-.102 1.198.613 2.296.895 3.438 6.465 20.156 13.358 40.193 19.807 60.35 3.1 9.233 6.15 18.49 9.155 27.752.17.066.506.208.67.275 5.485-15.75 11.737-31.224 17.42-46.906 1.66-3.79 2.645-7.904 4.592-11.56 29.49-32.497 59.083-64.93 88.58-97.426 2.812-3.253 6.014-6.224 8.54-9.66-.483-2.804-1.62-5.477-2.408-8.21-2.205-7.23-4.568-14.41-6.786-21.642-1.282-3.805-2.2-7.748-3.764-11.44l-.508-.01zm40.053 20.635c-37.81 41.565-75.615 83.126-113.423 124.692-1.03 1.277-2.397 2.296-3.196 3.76 9.994 6.667 20.624 12.535 30.656 19.187 49.14 30.818 98.29 61.61 147.42 92.428.82.473 1.575 1.22 2.588 1.232-17.18-64.867-34.116-129.808-51.272-194.68-2.335-9.256-4.906-18.43-7.22-27.685-1.86-6.286-3.195-12.73-5.148-18.98l-.405.045zM261.035 455.592c-6.122 17.067-12.863 33.926-18.924 51.025 13.876-12.497 27.82-24.938 41.622-37.52l-.202-.344c-7.354-4.344-14.54-8.958-21.843-13.387-.176.052-.497.164-.654.226z"/></svg>