<?xml version="1.0" standalone="no"?>
<!DOCTYPE svg PUBLIC "-//W3C//DTD SVG 1.1//EN" "http://www.w3.org/Graphics/SVG/1.1/DTD/svg11.dtd" >
<svg xmlns="http://www.w3.org/2000/svg" xmlns:xlink="http://www.w3.org/1999/xlink" version="1.1">
<metadata></metadata>
<defs>
<font id="freight_text_probold_italic" horiz-adv-x="1464" >
<font-face units-per-em="2048" ascent="1638" descent="-410" />
<missing-glyph horiz-adv-x="466" />
<glyph horiz-adv-x="0" />
<glyph horiz-adv-x="682" />
<glyph unicode=" "  horiz-adv-x="466" />
<glyph unicode="&#x09;" horiz-adv-x="466" />
<glyph unicode="&#xa0;" horiz-adv-x="466" />
<glyph unicode="!" horiz-adv-x="602" d="M109 111q0 59 41 100t102 41q60 0 100.5 -41.5t40.5 -99.5t-40.5 -101t-100.5 -43q-61 0 -102 42.5t-41 101.5zM266 416l8 792q0 46 34.5 73.5t92.5 27.5h9q75 0 110.5 -32t20.5 -85l-224 -778q-5 -14 -28 -13.5t-23 15.5z" />
<glyph unicode="&#x22;" horiz-adv-x="778" d="M61 825l228 496h2l186 -64l-323 -432h-93zM414 825l227 496h2l184 -64l-323 -432h-90z" />
<glyph unicode="#" horiz-adv-x="1189" d="M41 362l2 99h281l92 354h-256l4 96h280l103 381h100l-100 -381h319l103 381h98l-100 -381h256l-4 -96h-281l-92 -354h256l-2 -99h-283l-100 -374h-99l99 374h-322l-100 -374h-100l100 374h-254zM424 461h324l90 354h-322z" />
<glyph unicode="$" horiz-adv-x="1103" d="M47 37l35 393l131 -2l63 -307q40 -19 89 -31l122 453q-83 41 -136.5 75.5t-100.5 81.5t-68.5 106.5t-21.5 135.5q0 154 138.5 259.5t334.5 105.5q41 0 57 -2l58 206h94l-58 -215q75 -10 172 -36l113 34l-55 -420l-129 5l-43 274q-34 15 -88 29l-111 -410q56 -30 91 -50.5 t79 -50.5t70.5 -58.5t51.5 -65t36.5 -79.5t11.5 -93q0 -185 -143 -295.5t-363 -110.5q-33 0 -49 2l-84 -311h-94l84 315q-125 14 -287 62zM399 1040q0 -71 41 -124.5t121 -102.5l103 385q-16 2 -54 2q-88 0 -149.5 -47t-61.5 -113zM455 76q16 -2 49 -2q113 0 176 55.5 t65 146.5q0 69 -44.5 120.5t-131.5 105.5z" />
<glyph unicode="%" horiz-adv-x="1527" d="M82 -31l1290 1340h121l-1290 -1340h-121zM102 946q0 155 109.5 267t263.5 112q138 0 231 -82.5t93 -218.5q0 -159 -109.5 -271t-267.5 -112q-135 0 -227.5 84.5t-92.5 220.5zM201 950q0 -99 66 -161t163 -62q113 0 189.5 81t76.5 196q0 101 -64 166t-165 65 q-112 0 -189 -86t-77 -199zM791 254q0 159 107.5 271t264.5 112q136 0 228 -82.5t92 -218.5q0 -158 -110 -270.5t-267 -112.5q-139 0 -227 82t-88 219zM889 262q0 -100 64 -161.5t161 -61.5q113 0 191.5 85t78.5 200q0 97 -66 160t-163 63q-112 0 -189 -86t-77 -199z" />
<glyph unicode="&#x26;" horiz-adv-x="1357" d="M4 291q0 64 21.5 121t56.5 98t82 74t95.5 53t98.5 31v4q-141 130 -141 282q0 81 38.5 149.5t101 112.5t140.5 68.5t160 24.5q160 0 262.5 -74.5t102.5 -196.5q0 -121 -99.5 -202.5t-281.5 -122.5v-4l260 -277h4l217 195v4q-82 43 -82 119q0 58 42 95.5t104 37.5 q68 0 111.5 -45t43.5 -109q0 -86 -71.5 -152t-233.5 -151l-86 -45l312 -332l-250 -96l-246 287h-4q-114 -135 -228 -203t-241 -68q-123 0 -206 92.5t-83 229.5zM238 352q0 -85 51.5 -136.5t134.5 -51.5q116 0 287 123l-301 336q-172 -124 -172 -271zM457 1030q0 -86 29 -141 t98 -127q200 117 200 270q0 80 -40.5 135.5t-112.5 55.5q-77 0 -125.5 -55t-48.5 -138z" />
<glyph unicode="'" horiz-adv-x="428" d="M61 825l228 496h2l186 -64l-323 -432h-93z" />
<glyph unicode="(" horiz-adv-x="808" d="M184 430q0 143 36 278t93 238t131 191.5t147 146.5t144 94l56 -80q-82 -45 -165 -124t-158 -188t-122 -255t-47 -301q0 -126 31.5 -247t82 -216t116 -177.5t131.5 -138t131 -89.5l-56 -80q-71 35 -144 92.5t-147 145.5t-131 191.5t-93 239t-36 279.5z" />
<glyph unicode=")" horiz-adv-x="808" d="M18 -440q65 35 131 91t131.5 138.5t116 177.5t82 216t31.5 247q0 155 -47 301t-122 255t-158 188t-165 124l60 80q70 -36 142 -94t146 -146.5t130.5 -191.5t92.5 -238t36 -278q0 -144 -36 -279.5t-92.5 -239t-130.5 -191.5t-146 -145.5t-142 -92.5z" />
<glyph unicode="*" horiz-adv-x="724" d="M141 772l33 123l215 57v41l-215 60l-33 121l29 36l127 -4l111 -192l32 10l-10 225l102 68l43 -14l39 -117l-149 -172l20 -27l209 84l99 -78v-45l-99 -76l-209 84l-20 -26l147 -172l-39 -117l-43 -14l-102 69l10 228l-30 8l-111 -191l-125 -4z" />
<glyph unicode="+" horiz-adv-x="983" d="M59 422l7 117h368v374h117v-374h367l6 -117h-373v-373h-117v373h-375z" />
<glyph unicode="," horiz-adv-x="475" d="M-78 -301q98 57 161.5 129.5t63.5 144.5q0 33 -14.5 63t-34.5 50t-40.5 35t-35 23.5t-14.5 9.5q0 50 48 89.5t110 39.5q83 0 137.5 -60t54.5 -145q0 -121 -108 -230.5t-277 -197.5z" />
<glyph unicode="-" horiz-adv-x="681" d="M68 440l6 123h538l6 -123h-550z" />
<glyph unicode="." horiz-adv-x="475" d="M37 127q0 65 46.5 111.5t113.5 46.5t112 -46.5t45 -111.5q0 -64 -45.5 -112t-111.5 -48q-67 0 -113.5 47.5t-46.5 112.5z" />
<glyph unicode="/" horiz-adv-x="571" d="M8 -434l443 1796h108l-442 -1796h-109z" />
<glyph unicode="0" horiz-adv-x="1052" d="M78 414q0 113 35 219.5t96.5 188.5t152.5 132t195 50q177 0 292.5 -120.5t115.5 -326.5q0 -89 -21.5 -175t-64 -160.5t-99.5 -131t-133.5 -89t-161.5 -32.5q-177 0 -292 120t-115 325zM248 414q0 -126 70 -207.5t174 -81.5q77 0 138 42.5t95.5 109.5t52 139t17.5 141 q0 126 -70.5 208.5t-173.5 82.5q-78 0 -139 -43t-95 -110.5t-51.5 -139.5t-17.5 -141z" />
<glyph unicode="1" horiz-adv-x="780" d="M43 0l12 86l133 23q51 8 54 47l88 663l-217 27l16 69l465 91l-113 -850q-3 -39 41 -47l135 -23v-86h-614z" />
<glyph unicode="2" horiz-adv-x="964" d="M14 0l6 150q38 26 99 66.5t94.5 63t83 56.5t76.5 56t62.5 51.5t54.5 52t38.5 49.5t28 52.5t10.5 51.5q5 84 -45.5 136t-142.5 55q-118 6 -266 -109l-17 57q87 93 212 154t243 57q131 -5 211.5 -78t73.5 -190q-2 -40 -18.5 -79.5t-39.5 -72t-63.5 -69.5t-77 -64.5 t-94.5 -64t-101.5 -62t-112 -66t-112.5 -67.5l-2 -10h66q142 0 215 2.5t125 12.5t72 24.5t40 44.5l58 86h88l-115 -346h-750z" />
<glyph unicode="3" horiz-adv-x="892" d="M-90 -225q0 51 36.5 88t88.5 37q72 0 111.5 -62t39.5 -139q21 -6 47 -6q125 0 208 91.5t83 217.5q0 107 -64.5 174.5t-170.5 67.5q-53 0 -150 -29l-26 64q177 94 241 139q172 119 172 244q0 84 -54.5 131t-139.5 47q-108 0 -269 -111l-18 59q94 94 211 153.5t240 59.5 q76 0 143.5 -26.5t113.5 -84.5t46 -136q0 -43 -15.5 -84t-39 -74t-61 -66t-71 -56.5t-80.5 -49t-79 -41t-76 -35.5v-10q49 14 108 14q124 0 208.5 -77t84.5 -199q0 -98 -54 -189t-137.5 -153t-184.5 -99.5t-195 -37.5q-43 0 -90.5 9.5t-95.5 28.5t-79.5 55.5t-31.5 84.5z " />
<glyph unicode="4" horiz-adv-x="1071" d="M-14 152l805 864l102 -23l-107 -821h246l-31 -113h-231l-55 -436h-228l56 436h-553zM129 172h430l80 535h-10z" />
<glyph unicode="5" horiz-adv-x="948" d="M-86 -231q0 53 35.5 91t87.5 38q75 0 111 -58t34 -137q52 -20 99 -20q110 0 186 74.5t76 183.5q0 47 -17 91.5t-43 80t-66 70.5t-78 60t-87.5 51t-86 42.5t-81.5 34.5l240 604h577l-35 -213h-514l-88 -217q74 -29 135.5 -58.5t131.5 -76t118.5 -97.5t80.5 -120.5 t32 -145.5q0 -101 -46 -188.5t-120.5 -145t-168.5 -90.5t-191 -33q-45 0 -96 8.5t-104 27.5t-87.5 56t-34.5 87z" />
<glyph unicode="6" horiz-adv-x="1107" d="M82 455q0 134 55.5 265t154 240t228 196.5t284.5 142.5t316 69l37 -76q-310 -69 -521 -230.5t-300 -397.5l16 -5q77 93 173.5 148t189.5 55q128 0 218.5 -100t90.5 -264q0 -110 -46 -210.5t-119 -169t-164.5 -109t-182.5 -40.5q-187 0 -308.5 134t-121.5 352zM319 360 q0 -135 53.5 -219t145.5 -84q69 0 128.5 56t94.5 151.5t35 206.5q0 120 -53.5 192t-126.5 72t-135.5 -49t-108.5 -129q-33 -101 -33 -197z" />
<glyph unicode="7" horiz-adv-x="974" d="M23 -377l749 1151l2 6h-184q-98 0 -151 -1.5t-93 -4t-58.5 -10.5t-28.5 -16.5t-21 -26.5l-78 -123h-78l98 377h791v-86l-799 -1266h-149z" />
<glyph unicode="8" horiz-adv-x="1083" d="M70 299q0 87 44.5 156.5t112.5 110t154 59.5v6q-199 122 -199 297q-1 114 62 202t162.5 132.5t214.5 44.5q107 0 197 -34.5t148.5 -108t57.5 -173.5q0 -226 -287 -301v-6q242 -143 242 -334q0 -90 -40.5 -164t-107.5 -120t-149 -70.5t-170 -24.5q-81 0 -158.5 21.5 t-141.5 61t-103 103.5t-39 142zM301 301q0 -110 64.5 -178t175.5 -68q97 0 155 50.5t58 146.5q1 44 -16.5 84.5t-43.5 71t-65.5 62t-72.5 52.5t-75 46q-16 9 -24 14q-73 -48 -114.5 -120.5t-41.5 -160.5zM406 1028q0 -35 10 -66t32 -59.5t41.5 -49.5t56.5 -46.5t56 -38 t60 -37.5q133 86 133 260q0 99 -51 166.5t-146 67.5q-88 0 -140 -54t-52 -143z" />
<glyph unicode="9" horiz-adv-x="1107" d="M-57 -317q308 67 519.5 227t301.5 389l-16 4q-77 -93 -173.5 -148t-189.5 -55q-127 0 -218 105t-91 270q0 110 46 210.5t119 169t164.5 109t182.5 40.5q188 0 309 -133.5t121 -350.5q0 -168 -86.5 -329t-228.5 -283t-332 -203.5t-391 -99.5zM324 502q0 -122 54 -198.5 t128 -76.5q71 0 133.5 49.5t108.5 129.5q32 110 32 206q0 135 -52.5 219t-143.5 84q-107 0 -183.5 -122t-76.5 -291z" />
<glyph unicode=":" horiz-adv-x="475" d="M37 127q0 65 46.5 111.5t113.5 46.5t112 -46.5t45 -111.5q0 -64 -45.5 -112t-111.5 -48q-67 0 -113.5 47.5t-46.5 112.5zM121 748q0 65 47 111t115 46q66 0 111.5 -46.5t45.5 -110.5q0 -66 -45 -113t-112 -47q-69 0 -115.5 47t-46.5 113z" />
<glyph unicode=";" horiz-adv-x="475" d="M-78 -311q98 57 161.5 129.5t63.5 144.5q0 33 -14.5 63t-34.5 49.5t-40.5 34.5t-35 23.5t-14.5 9.5q0 50 48 89.5t110 39.5q83 0 137.5 -59.5t54.5 -144.5q0 -121 -108 -230.5t-277 -197.5zM123 748q0 65 46.5 111t113.5 46q66 0 111.5 -46.5t45.5 -110.5q0 -66 -45 -113 t-112 -47t-113.5 47t-46.5 113z" />
<glyph unicode="&#x3c;" horiz-adv-x="983" d="M53 451v59l832 385l28 -107l-667 -305v-2l667 -307l-28 -106z" />
<glyph unicode="=" horiz-adv-x="983" d="M80 248l6 117h811l6 -117h-823zM80 713h823l-6 -117h-811z" />
<glyph unicode="&#x3e;" horiz-adv-x="983" d="M70 174l667 307v2l-667 305l28 107l832 -385v-59l-832 -383z" />
<glyph unicode="?" horiz-adv-x="794" d="M119 111q0 59 41 100t102 41q60 0 100.5 -41.5t40.5 -99.5t-40.5 -101t-100.5 -43q-61 0 -102 42.5t-41 101.5zM180 586q0 57 25 100.5t73 72.5t90.5 45.5t104.5 33.5q115 34 141 48q44 23 45 54q0 60 -87.5 105t-211.5 45q-53 0 -129 -13q-30 33 -30 78q0 67 52.5 110.5 t147.5 43.5q160 0 278 -108t118 -257q0 -60 -18 -108.5t-43.5 -78.5t-67.5 -55.5t-74 -38.5t-80 -28q-6 -2 -19 -6q-35 -11 -52.5 -17t-43.5 -17.5t-38 -22t-21.5 -26.5t-9.5 -36q0 -66 69 -129l-100 2q-48 33 -83.5 88.5t-35.5 114.5z" />
<glyph unicode="@" horiz-adv-x="1785" d="M88 522q4 169 73.5 322.5t183 264.5t271 175.5t330.5 61.5q166 -2 309.5 -55.5t247.5 -147.5t161 -230.5t52 -296.5q-5 -155 -72 -281.5t-175.5 -196.5t-235.5 -70q-130 0 -192.5 53t-53.5 119q0 18 27 113t43 143h-27q-118 -198 -165 -260q-102 -133 -191 -134 q-94 0 -159.5 67.5t-65.5 164.5q0 124 68 278.5t165 249.5q55 55 120 86t124 31q141 0 190 -160h21l55 146h178l-123 -344l-71 -355q-8 -37 29 -64.5t102 -27.5q129 0 219 126.5t96 311.5q7 192 -80 339.5t-244 227.5t-360 83q-150 2 -288 -57t-239 -158.5t-163 -235.5 t-66 -283q-4 -162 48.5 -301t147 -234.5t226 -149.5t281.5 -54q122 0 260 41l22 -76q-146 -51 -293 -51q-165 0 -312 62t-253 169.5t-166 260.5t-55 327zM662 389q0 -58 30 -94.5t68 -36.5q22 0 49 22.5t66 76.5t61 87.5t70 110.5q15 23 22 35t27 71.5t20 63.5 q-27 50 -90.5 92.5t-114.5 42.5q-41 0 -67 -26q-44 -44 -92.5 -195t-48.5 -250z" />
<glyph unicode="A" horiz-adv-x="1269" d="M-70 0l7 84l57 18q37 12 54.5 21t44 38t53.5 80.5t69 143.5l356 786v78l273 62l221 -1125q8 -38 24 -56.5t54 -27.5l78 -18l6 -84h-604l6 84l80 12q52 8 61 42q3 12 3 29q0 33 -11 87l-29 172h-385l-35 -94q-34 -91 -34 -147q0 -72 57 -85l74 -16l6 -84h-486zM389 526 h328l-84 527h-17z" />
<glyph unicode="B" horiz-adv-x="1247" d="M14 0l9 82l100 22q27 6 38.5 17.5t14.5 32.5l131 972q3 21 -4.5 32t-36.5 18l-92 22l-6 82h598q218 0 327 -77.5t109 -211.5q0 -66 -28.5 -121.5t-78 -95.5t-110 -67.5t-131.5 -44.5q6 -6 6 -11q135 -29 221 -104t86 -195q0 -127 -94 -221q-131 -131 -411 -131h-648z M442 111l113 -23h43q122 0 198 74.5t76 181.5q0 121 -76 193.5t-188 72.5h-98zM522 702h117q118 0 198.5 64.5t80.5 181.5q0 112 -78 177t-203 65h-47z" />
<glyph unicode="C" horiz-adv-x="1331" d="M100 545q0 147 62.5 291.5t171.5 253.5q102 102 235 160.5t283 58.5q82 0 171.5 -16.5t137.5 -35.5l176 48l-61 -457h-141l-48 295q-92 65 -215 65q-129 0 -238 -91.5t-172 -250.5t-63 -348q0 -247 127 -371q79 -79 211 -79q104 0 197 49l143 305h156l-96 -422l-123 25 q-153 -58 -316 -58q-293 0 -445.5 156t-152.5 422z" />
<glyph unicode="D" horiz-adv-x="1404" d="M14 0l9 82l100 22q27 6 38.5 17.5t14.5 32.5l131 972q3 21 -4.5 32t-36.5 18l-92 22l-6 82q36 0 94 0.5t180 0.5t200 1h72h-1q306 0 476.5 -155.5t170.5 -411.5q0 -289 -209 -498q-98 -99 -258.5 -158t-351.5 -59h-527zM444 123l138 -31q211 9 347 174t136 451 q0 218 -96.5 343.5t-298.5 125.5h-82z" />
<glyph unicode="E" horiz-adv-x="1284" d="M14 0l9 82l100 22q27 6 38.5 17.5t14.5 32.5l133 972q3 20 -5 31.5t-36 18.5l-94 22l-4 82h1108l-55 -422h-142l-22 170q-5 39 -12.5 63t-26 43.5t-41 29t-70 15.5t-99 7.5t-140.5 1.5h-80l-70 -496h39q92 0 133 12.5t62 53.5l69 139h105l-113 -496h-104l2 131 q0 40 -33.5 54t-140.5 14h-31l-68 -508h88q108 0 170.5 3.5t113 11.5t79 27.5t49 45.5t41.5 72l70 151h147l-94 -403h-1090z" />
<glyph unicode="F" horiz-adv-x="1232" d="M14 0l9 82l100 22q27 6 38.5 17.5t14.5 32.5l133 972q3 20 -5 31.5t-36 18.5l-94 22l-4 82h1077l-55 -422h-141l-23 170q-4 30 -9 50t-15.5 38t-22 28.5t-35.5 19.5t-47.5 13t-67 7t-85 3.5t-109.5 0.5h-47l-70 -520h45q94 0 134.5 12t62.5 55l69 139h103l-113 -495h-102 l8 129v6q-1 36 -35 48q-38 14 -147 13h-41l-55 -421q-1 -5 -1 -9q0 -32 41 -41l107 -22l6 -82h-588z" />
<glyph unicode="G" horiz-adv-x="1435" d="M100 545q0 147 62.5 291.5t171.5 253.5q100 100 243 159.5t295 59.5q82 0 172 -16.5t138 -35.5l176 48l-62 -451h-141l-45 289q-95 65 -238 65q-129 0 -238 -91.5t-172 -250.5t-63 -348q0 -247 127 -371q79 -79 217 -79q89 0 162 26l51 332q3 23 -5.5 32t-39.5 17l-96 23 l-6 82h571l-8 -82l-96 -23q-50 -12 -55 -49l-50 -291l119 -18l6 -68q-299 -82 -569 -82q-311 0 -469 154.5t-158 423.5z" />
<glyph unicode="H" horiz-adv-x="1517" d="M18 0l7 82l100 22q27 6 38.5 17.5t14.5 32.5l131 972q3 21 -4.5 32t-36.5 18l-92 22l-6 82h573l-6 -82l-102 -22q-47 -11 -53 -50l-58 -421h525l57 421q3 24 -4.5 33.5t-36.5 16.5l-94 22l-6 82h575l-8 -82l-100 -22q-48 -12 -54 -50l-133 -972q-3 -21 6 -32.5t35 -17.5 l94 -22l6 -82h-573l6 82l101 22q28 6 39 16.5t14 33.5l61 450h-524l-61 -450q-1 -5 -1 -9q0 -32 41 -41l97 -22l6 -82h-574z" />
<glyph unicode="I" horiz-adv-x="763" d="M18 0l7 82l120 22q48 8 54 50l133 972q3 20 -5 32t-36 18l-115 22l-6 82h614l-6 -82l-123 -22q-47 -10 -53 -50l-131 -972q-1 -5 -1 -9q0 -33 42 -41l115 -22l8 -82h-617z" />
<glyph unicode="J" horiz-adv-x="903" d="M-5 223q37 33 87 33q160 0 172 -209h2q62 31 99 118.5t61 270.5l92 690q1 5 1 10q0 33 -42 40l-133 22l-6 82h622l-8 -82l-108 -22q-48 -11 -54 -50l-82 -610q-73 -549 -481 -549q-113 0 -187 47q-73 45 -73 125q0 50 38 84z" />
<glyph unicode="K" horiz-adv-x="1374" d="M12 0l8 82l101 22q28 6 39 17t14 33l133 972q3 20 -5 31.5t-36 18.5l-94 22l-4 82h573l-8 -82l-102 -22q-46 -9 -53 -50l-66 -505l358 337q77 74 111 114q33 39 33 62q0 38 -49 52l-54 14l-4 80h535l-8 -78l-54 -14q-113 -31 -274 -168l-283 -246l314 -575 q34 -63 55 -81.5t63 -27.5l37 -8l4 -82h-522l6 82l54 18q24 8 24 31q0 17 -12 41l-215 432l-142 -119l-43 -331q-3 -21 6 -32.5t35 -17.5l95 -22l4 -82h-574z" />
<glyph unicode="L" horiz-adv-x="1185" d="M12 0l8 82l101 22q27 6 38.5 17.5t14.5 32.5l131 972q3 20 -5 31.5t-36 18.5l-94 22l-4 82h582l-9 -82l-108 -22q-46 -8 -53 -50l-140 -1034h62q141 0 213.5 13.5t111 45.5t68.5 101l76 170h145l-100 -422h-1002z" />
<glyph unicode="M" horiz-adv-x="1767" d="M-16 0l6 82l108 24q26 6 39.5 23.5t36 101.5t51.5 258l107 635q1 7 1 12q0 35 -36 42l-119 20l-4 82h539l114 -971h21l438 971h514l-6 -82l-121 -22q-50 -9 -53 -52l-70 -643q-14 -129 -20 -199q-3 -43 -3 -75q-1 -19 1 -35q4 -40 12.5 -51t28.5 -15l102 -24l4 -82h-600 l6 82l111 24q23 5 36 33t25 103.5t29 238.5l68 641h-21l-487 -1081h-246l-131 1100h-21l-108 -652q-23 -144 -33.5 -212.5t-11.5 -110t5 -49.5t23 -11l113 -24l6 -82h-454z" />
<glyph unicode="N" d="M-8 0l6 82l98 20q35 7 56.5 41t39.5 116t41 251l76 549q2 21 2 38q1 27 -5 43q-10 27 -46 36l-88 22l-4 82h428l487 -952h17l59 442q18 134 25 206q5 56 5 97v23q-2 48 -13 62.5t-35 19.5l-111 20l-6 82h494l-7 -82l-98 -20q-36 -7 -57 -40t-40 -116t-42 -252l-109 -786 h-198l-537 1042h-14l-70 -516q-18 -130 -25 -204q-5 -51 -5 -90q0 -16 1 -30q3 -46 15 -62.5t37 -21.5l106 -20l6 -82h-489z" />
<glyph unicode="O" d="M98 563q0 149 50.5 281.5t144.5 234.5q99 107 229.5 167.5t282.5 60.5q173 0 310 -75.5t213.5 -211t76.5 -307.5q0 -157 -59.5 -298.5t-167.5 -250.5q-91 -94 -213.5 -144.5t-264.5 -50.5q-173 0 -310.5 75.5t-214.5 211t-77 307.5zM391 500q0 -242 109 -348 q80 -80 205 -80q87 0 159 51t116.5 128.5t75.5 175t43.5 185t12.5 162.5q0 248 -106 354q-78 78 -207 78q-87 0 -159 -51.5t-116.5 -129.5t-75.5 -176t-43.5 -185.5t-13.5 -163.5z" />
<glyph unicode="P" horiz-adv-x="1204" d="M14 0l9 82l100 22q27 6 38.5 17.5t14.5 32.5l133 972q3 20 -5 31.5t-36 18.5l-94 22l-4 82h543q220 0 351.5 -96.5t131.5 -263.5q0 -126 -76 -221.5t-202.5 -144t-282.5 -48.5q-29 0 -137 10l-49 -362q-1 -5 -1 -9q0 -34 41 -41l127 -22l5 -82h-607zM508 604 q66 -12 98 -12q139 0 224 85t85 232q0 125 -76.5 204t-189.5 79h-59z" />
<glyph unicode="Q" horiz-adv-x="1468" d="M98 563q0 147 50.5 279t142.5 235q97 108 228.5 169t283.5 61q173 0 310.5 -75.5t214.5 -211t77 -307.5q0 -158 -59 -301.5t-164 -245.5q-74 -74 -179 -126t-219 -65q90 -147 211 -205t336 -61l6 -65q-152 -41 -319 -41h-9q-205 0 -325 85q-122 87 -229 326 q-164 67 -260.5 212.5t-96.5 336.5zM393 498q0 -244 107 -348q80 -80 209 -80q86 0 157.5 51.5t115.5 129.5t74.5 176t43 185.5t12.5 163.5q0 246 -108 354q-78 78 -205 78q-88 0 -160 -52t-116 -130.5t-75 -177t-43 -186.5t-12 -164z" />
<glyph unicode="R" horiz-adv-x="1296" d="M16 0l7 82l100 22q47 10 53 50l129 972q1 4 1 8q0 32 -42 42l-94 22l-4 82h604q214 0 332.5 -86t118.5 -219q0 -138 -93.5 -236.5t-265.5 -146.5l223 -404q29 -53 52.5 -71t58.5 -27l35 -8l4 -82h-369l-69 164l-185 385l-106 6l-57 -401q-1 -4 -1 -8q0 -31 41 -42l91 -22 l6 -82h-570zM516 659l127 -26q126 18 202.5 93t76.5 204q0 119 -72 189.5t-191 70.5h-71z" />
<glyph unicode="S" horiz-adv-x="1095" d="M47 37l35 393l131 -2l63 -307q98 -45 230 -45q111 0 173 54.5t62 143.5q0 31 -8 58t-28 52t-38.5 43.5t-55 41.5t-60.5 37t-70 39q-70 39 -111.5 65t-87 62.5t-68.5 72.5t-38.5 86t-15.5 111q0 154 138.5 259.5t334.5 105.5q65 0 125 -7.5t90.5 -14t107.5 -25.5l113 34 l-55 -420l-129 5l-43 274q-110 45 -234 45q-85 0 -145 -46t-60 -112v-5q-1 -36 13 -69q14 -35 35 -60.5t61.5 -54t73 -47.5t90.5 -50q59 -32 100 -57.5t83 -60.5t67 -71.5t41 -85t16 -104.5q0 -185 -143 -295.5t-363 -110.5q-211 0 -430 68z" />
<glyph unicode="T" horiz-adv-x="1312" d="M84 850l92 430h1184l-55 -430h-134l-22 170q-13 105 -64.5 136.5t-191.5 31.5h-12l-138 -1034q-1 -5 -1 -10q0 -32 42 -40l123 -22l6 -82h-626l6 82l127 22q46 7 53 50l137 1034h-8q-73 0 -114.5 -5t-78.5 -22t-60.5 -48.5t-45.5 -86.5l-72 -176h-147z" />
<glyph unicode="U" horiz-adv-x="1449" d="M152 1280h573l-6 -82l-103 -22q-46 -9 -53 -50l-88 -641q-10 -87 -10 -123q0 -127 80.5 -199.5t216.5 -72.5q148 0 236 85.5t116 281.5l45 313q25 172 30 256q1 25 1 44q0 48 -8 70q-12 32 -45 38l-107 20l-6 82h492l-7 -82l-98 -20q-36 -7 -57 -40t-39.5 -115.5 t-42.5 -252.5l-49 -348q-33 -231 -177 -348t-362 -117q-220 0 -353.5 106.5t-133.5 309.5q0 59 6 112l88 641q3 20 -5 31.5t-36 18.5l-92 22z" />
<glyph unicode="V" horiz-adv-x="1253" d="M66 1280h604l-6 -84l-82 -12q-52 -7 -62 -41q-3 -12 -3 -31q0 -33 11 -86l138 -790h14l326 737q34 78 34 127q0 67 -63 80l-70 16l-6 84h483l-6 -84l-61 -18q-46 -14 -70 -32.5t-57.5 -73t-91.5 -177.5l-422 -895h-225l-226 1094q-8 38 -24 56.5t-54 27.5l-75 18z" />
<glyph unicode="W" horiz-adv-x="1908" d="M59 1280h617l-6 -84l-86 -12q-42 -6 -54 -43q-6 -19 -5 -49q0 -28 5 -66l107 -795h14l324 730l-21 133q-6 38 -22 56.5t-55 27.5l-84 18l-7 84h615l-6 -84l-86 -12q-44 -6 -55 -42q-5 -17 -5 -45q0 -30 6 -71l105 -793h16l266 676q54 134 54 194q0 62 -60 77l-61 16 l-6 84h491l-6 -84l-61 -18q-50 -15 -80.5 -35.5t-70 -79.5t-85.5 -168l-381 -895h-233l-115 788h-14l-359 -788h-235l-193 1094q-6 37 -22.5 56t-54.5 28l-84 18z" />
<glyph unicode="X" horiz-adv-x="1310" d="M-49 0l6 82l72 18q87 22 211 160l317 354l-225 398q-51 89 -76 122.5t-55 41.5l-76 22l-4 82h598l-8 -82l-68 -12q-50 -8 -50 -59q0 -40 32 -107l112 -227h15l198 239q37 45 48 76t-2.5 49.5t-51.5 26.5l-63 14l-7 82h490l-6 -82l-72 -18q-90 -24 -235 -189l-250 -278 l252 -459q43 -79 67 -109.5t58 -40.5l73 -22l6 -82h-598l7 82l69 12q52 8 52 59q0 40 -33 107l-138 272h-14l-215 -260q-43 -52 -56 -88.5t2.5 -57.5t57.5 -30l62 -14l6 -82h-508z" />
<glyph unicode="Y" horiz-adv-x="1222" d="M59 1280h588l-6 -84l-82 -12q-54 -7 -54 -56q0 -48 42 -145l145 -356h17l235 354q44 66 58 107q8 21 8 38q0 14 -6 25q-12 23 -54 31l-73 14l-7 84h478l-7 -84l-49 -14q-62 -17 -108.5 -56t-130.5 -159l-295 -428l-49 -385q-1 -5 -1 -10q0 -33 42 -40l120 -22l-2 -82 h-628l12 82l131 22q46 8 53 50l49 372l-249 543q-24 51 -47 72.5t-62 34.5l-61 20z" />
<glyph unicode="Z" horiz-adv-x="1232" d="M8 0l15 92l907 1077v17h-211q-98 0 -153.5 -6t-96 -27t-62 -52t-45.5 -89l-63 -158h-137l55 426h1049l-13 -94l-917 -1077l-2 -17h215q87 0 147.5 7t99 18t65 34.5t41 46.5t32.5 64l65 148h146l-98 -410h-1039z" />
<glyph unicode="[" horiz-adv-x="753" d="M188 -455v1788h529v-98h-416v-1591h416v-99h-529z" />
<glyph unicode="\" horiz-adv-x="571" d="M10 1362h109l442 -1796h-108z" />
<glyph unicode="]" horiz-adv-x="753" d="M37 -356h416v1591h-416v98h528v-1788h-528v99z" />
<glyph unicode="^" horiz-adv-x="819" d="M154 1055l235 372h242l133 -372h-94l-176 245h-5l-241 -245h-94z" />
<glyph unicode="_" horiz-adv-x="962" d="M-49 -109l6 109h987l6 -109h-999z" />
<glyph unicode="`" horiz-adv-x="817" d="M193 1427h260l143 -372h-94z" />
<glyph unicode="a" horiz-adv-x="1081" d="M45 246q0 150 70 307.5t176 263.5q65 65 139.5 103t144.5 38q136 0 179 -157h16l55 157h211l-123 -370l-108 -459l55 -18l152 104l35 -43q-49 -82 -130.5 -143.5t-156.5 -61.5q-43 0 -114 29t-71 55q0 18 17 73.5t52 153.5t46 132h-20q-131 -219 -165 -269 q-92 -132 -171 -162q-28 -10 -58 -10q-101 0 -166 73t-65 204zM272 311q0 -76 28.5 -118.5t76.5 -42.5q51 0 105.5 68.5t172.5 256.5q15 24 23 37l47 162q-36 61 -103 109t-120 48q-36 0 -68 -32q-61 -61 -111.5 -213t-50.5 -275z" />
<glyph unicode="b" horiz-adv-x="1040" d="M76 137l203 1004q2 11 2 21q0 36 -27 48l-117 56l13 57l417 104l-116 -469l-111 -440h20q119 235 206.5 339t189.5 104q97 0 161 -82t64 -215q0 -152 -62.5 -299.5t-166.5 -251.5q-66 -66 -153 -106t-181 -40q-51 0 -104.5 14t-95 35.5t-75.5 45.5t-51.5 44t-15.5 31z M295 205q45 -58 114.5 -98.5t114.5 -40.5q34 0 66 32q67 67 115.5 220t48.5 280q0 78 -26.5 130t-72.5 52q-23 0 -46 -13.5t-46 -38t-51 -65t-57.5 -88.5t-68.5 -113q-8 -14 -13 -22.5t-12.5 -21t-14.5 -23.5z" />
<glyph unicode="c" horiz-adv-x="872" d="M57 313q0 112 44 228t117 209t177.5 152t216.5 59q108 0 182 -58.5t74 -146.5q0 -63 -38.5 -106.5t-90.5 -43.5q-56 0 -84 32.5t-28 80.5q0 42 24 82q-22 15 -72.5 29t-89.5 14q-13 0 -38 -25q-53 -51 -107.5 -199t-54.5 -280q0 -99 50.5 -159t129.5 -60q62 0 260 135 l33 -43q-86 -113 -178.5 -178.5t-206.5 -65.5q-147 0 -233.5 97.5t-86.5 246.5z" />
<glyph unicode="d" horiz-adv-x="1081" d="M45 246q0 150 70 307.5t176 263.5q65 65 139.5 103t144.5 38q71 0 106.5 -41t57.5 -116h17l71 340q3 14 3 25q0 33 -27 44l-117 56l12 57l420 104l-225 -905l-88 -393l55 -18l152 104l35 -43q-49 -82 -130.5 -143.5t-156.5 -61.5q-40 0 -109 39t-69 66q0 18 15.5 68.5 t48 142.5t44.5 127h-20q-131 -219 -165 -269q-92 -132 -171 -162q-28 -10 -58 -10q-101 0 -166 73t-65 204zM272 311q0 -76 28.5 -118.5t76.5 -42.5q51 0 105.5 68.5t172.5 256.5q15 24 23 37l47 162q-36 61 -103 109t-120 48q-36 0 -68 -32q-61 -61 -111.5 -213t-50.5 -275 z" />
<glyph unicode="e" horiz-adv-x="864" d="M57 313q0 114 43.5 230.5t115.5 208.5t173.5 150.5t208.5 58.5q119 0 185.5 -57.5t66.5 -147.5q0 -23 -5.5 -44t-21 -41.5t-31.5 -37.5t-49 -39t-59.5 -38.5t-77 -43.5t-89 -46.5t-108 -55t-120.5 -62.5v-26q0 -88 51 -144.5t129 -56.5q62 0 260 135l33 -43 q-86 -113 -178.5 -178.5t-206.5 -65.5q-150 0 -235 97t-85 247zM287 420h6q104 57 165 95t108 77.5t65 75t18 77.5q0 37 -55 67t-96 30t-64 -23q-40 -40 -84.5 -154.5t-62.5 -244.5z" />
<glyph unicode="f" horiz-adv-x="620" d="M-360 -340q0 55 33.5 90t84.5 35q63 0 103.5 -48.5t48.5 -119.5l108 33q47 119 80 344l123 792l-178 15l6 69l199 64q47 229 166 348q137 137 321 137q100 0 164 -53t64 -131q0 -55 -35.5 -95t-89.5 -40q-63 0 -104 55.5t-52 140.5l-129 -22q-51 -140 -82 -356h246 l8 -117h-274l-123 -611q-88 -442 -230 -587q-101 -107 -256 -107q-86 0 -144 46.5t-58 117.5z" />
<glyph unicode="g" horiz-adv-x="954" d="M-141 -295q0 86 82 148t200 94v16q-88 52 -88 135q0 67 50 117.5t137 77.5v16q-66 40 -106 109t-40 147q0 113 59 204.5t158.5 141.5t216.5 50q106 0 244 -41l258 4l-51 -185l-242 60l-2 -21q105 -82 105 -203q0 -95 -56 -170t-143.5 -114t-187.5 -39q-69 0 -144 20 q-30 -7 -50.5 -32.5t-20.5 -51.5q0 -35 41.5 -59t126.5 -49l94 -27q156 -44 236.5 -107.5t80.5 -172.5q0 -123 -148 -216.5t-403 -93.5q-185 0 -296 64t-111 178zM53 -256q0 -78 88 -129t232 -51q112 0 186 37.5t74 93.5q0 48 -51.5 83t-171.5 75q-150 48 -207 73 q-150 -72 -150 -182zM311 489q1 -40 15 -77.5t30 -53.5q26 -26 64 -26q59 0 112 53t80 153.5t27 190.5q0 44 -49.5 81.5t-102.5 37.5q-42 0 -65 -23q-50 -50 -82 -151q-29 -96 -29 -175v-10z" />
<glyph unicode="h" horiz-adv-x="1089" d="M27 -6l75 307l177 840q3 13 3 24q0 33 -28 45l-117 56l13 57l417 104l-116 -471l-127 -532h22q81 179 139.5 287.5t108.5 158.5q91 91 197 91q78 0 129 -46.5t51 -117.5q0 -42 -17 -116.5t-30 -117.5t-47 -153q-27 -89 -93 -281l56 -18l151 104l35 -43 q-49 -82 -129.5 -143.5t-155.5 -61.5q-43 0 -112.5 29.5t-69.5 56.5q0 13 6 38.5t19 67.5t24.5 79t32 100t33.5 102q67 199 67 258q0 30 -29 51t-65 21q-49 0 -116.5 -106.5t-188.5 -358.5l-68 -309z" />
<glyph unicode="i" horiz-adv-x="573" d="M29 705q44 98 118.5 177t147.5 79q19 0 54.5 -9t69.5 -22t58 -28.5t21 -27.5l-205 -745l55 -18l152 104l35 -43q-49 -82 -129.5 -143.5t-155.5 -61.5q-25 0 -70.5 15t-80.5 36t-31 35l196 742l-61 12l-133 -148zM338 1233q0 74 42 127t97 53q62 0 98.5 -40.5t36.5 -98.5 q0 -74 -42 -126t-97 -52q-62 0 -98.5 39.5t-36.5 97.5z" />
<glyph unicode="j" horiz-adv-x="546" d="M-350 -377q0 54 36 87.5t85 33.5q60 0 100.5 -43.5t54.5 -110.5l51 13q32 72 111 417l176 773l-69 16l-129 -150l-43 46q44 98 118.5 177t149.5 79q26 0 76 -14t90.5 -35.5t36.5 -37.5l-166 -712q-102 -442 -250 -590q-110 -107 -236 -107q-81 0 -136.5 44.5t-55.5 113.5 zM344 1233q0 74 42 127t97 53q62 0 98.5 -40.5t36.5 -98.5q0 -74 -42 -126t-97 -52q-62 0 -98.5 39.5t-36.5 97.5z" />
<glyph unicode="k" horiz-adv-x="964" d="M27 -6l75 307l177 840q3 13 3 24q0 33 -28 45l-117 56l13 57l413 104l-114 -469l-119 -464h14l395 208v25q-42 12 -66 44.5t-24 74.5q0 57 43.5 97t102.5 40q68 0 113.5 -44.5t45.5 -107.5q0 -94 -68 -153.5t-204 -112.5l-94 -37l153 -383h41l117 107l43 -43 q-35 -89 -120 -162.5t-165 -73.5q-23 0 -62.5 18.5t-43.5 31.5l-143 428l-76 -33l-60 -422z" />
<glyph unicode="l" horiz-adv-x="559" d="M53 53l226 1088q3 12 3 23q0 32 -28 46l-117 56l13 57l409 104l-283 -1298l58 -18l149 104l37 -43q-49 -82 -130.5 -143.5t-156.5 -61.5q-41 0 -112.5 32.5t-67.5 53.5z" />
<glyph unicode="m" horiz-adv-x="1669" d="M25 705q47 100 120 178t148 78q47 0 123 -24t76 -50q0 -80 -113 -463h22q81 179 139.5 287.5t108.5 158.5q91 91 197 91q77 0 122.5 -46.5t45.5 -121.5q0 -30 -13 -88t-26.5 -104t-33 -108t-21.5 -69h22q85 186 142 290.5t108 155.5q91 91 199 91q78 0 129 -46.5 t51 -117.5q0 -97 -94 -387q-6 -19 -29 -87.5t-42 -123.5t-24 -70l58 -18l149 104l37 -43q-49 -82 -130.5 -143.5t-156.5 -61.5q-43 0 -111.5 29.5t-68.5 56.5q0 9 3 25.5t9.5 41t13.5 48t19 60.5t20.5 64.5t23.5 73t24 74.5q69 205 69 258q0 30 -29 51t-65 21 q-49 0 -118 -107t-191 -358l-80 -309l-250 -2l103 364q86 297 86 340q0 30 -29.5 51t-65.5 21q-49 0 -116.5 -106.5t-188.5 -358.5l-67 -309l-248 -2l76 307l100 494l-59 12l-131 -148z" />
<glyph unicode="n" horiz-adv-x="1126" d="M25 705q46 99 119.5 177.5t146.5 78.5q48 0 124.5 -24t76.5 -50q0 -80 -113 -463h22q81 179 139.5 287.5t108.5 158.5q91 91 197 91q78 0 129 -46.5t51 -117.5q0 -97 -94 -387l-92 -281l55 -18l152 104l34 -43q-49 -83 -129 -144t-155 -61q-43 0 -113 29.5t-70 56.5 q0 13 6 38.5t19 67.5t24.5 79t32 100t33.5 102q68 202 68 258q0 30 -29.5 51t-65.5 21q-49 0 -116.5 -106.5t-188.5 -358.5l-67 -309l-248 -2l76 307l100 487l-57 15l-135 -144z" />
<glyph unicode="o" horiz-adv-x="985" d="M63 385q0 144 64.5 276.5t180 216t251.5 83.5q171 0 266 -114.5t95 -303.5q0 -107 -38 -210.5t-102.5 -184t-157.5 -130t-196 -49.5q-171 0 -267 114.5t-96 301.5zM287 297q0 -96 36.5 -163.5t100.5 -67.5q45 0 87 35.5t73 92.5t53 117.5t35 122.5q24 120 24 207 q0 97 -35.5 159t-101.5 62q-57 0 -109.5 -60t-85.5 -138t-51 -160q-26 -117 -26 -207z" />
<glyph unicode="p" horiz-adv-x="1085" d="M-150 -504l7 80l96 23q42 9 51 49l256 1145l-61 14l-131 -148l-43 46q47 100 120 178t148 78q42 0 119 -34.5t77 -60.5q0 -15 -5.5 -40.5t-16.5 -61.5t-21 -68t-26 -80t-25 -77h21q114 229 199 325.5t188 96.5q97 0 161 -82t64 -215q0 -151 -63.5 -300.5t-167.5 -254.5 q-64 -64 -139 -102t-144 -38q-58 0 -107.5 29.5t-80.5 77.5h-13l-86 -428q-1 -4 -1 -9q0 -33 44 -40l133 -23l9 -80h-562zM350 236q47 -66 108 -118t101 -52q34 0 66 32q69 69 122.5 222.5t53.5 277.5q0 78 -26.5 130t-72.5 52q-51 0 -114.5 -84.5t-192.5 -300.5z" />
<glyph unicode="q" horiz-adv-x="1030" d="M45 246q0 150 70 307.5t176 263.5q65 65 139.5 103t144.5 38q136 0 179 -157h16l55 157h211l-123 -370l-198 -940q-1 -6 -1 -11q0 -29 44 -38l104 -23l6 -80h-555l6 80l119 23q24 4 35 16t16 33l109 461l92 301h-20q-131 -219 -165 -269q-92 -132 -171 -162 q-28 -10 -58 -10q-101 0 -166 73t-65 204zM272 311q0 -76 28.5 -118.5t76.5 -42.5q51 0 105.5 68.5t172.5 256.5q15 24 23 37l47 162q-36 61 -103 109t-120 48q-36 0 -68 -32q-61 -61 -111.5 -213t-50.5 -275z" />
<glyph unicode="r" horiz-adv-x="923" d="M25 705q47 100 120 178t148 78q47 0 123 -24t76 -50q0 -46 -49.5 -225.5t-84.5 -278.5h29q32 89 106 242t109 186q48 87 89.5 120.5t113.5 33.5q66 0 112 -45t46 -123q0 -66 -39 -111t-93 -45q-63 0 -97 45q-22 29 -21 67q0 21 6 44l-1 1q-1 0 -3 1t-4.5 1.5t-5.5 2t-6 2 t-6 1.5t-5 1.5t-3.5 0.5t-2.5 -1q-29 -25 -143 -235.5t-160 -309.5l-49 -266l-248 -2l76 307l100 494l-59 12l-131 -148z" />
<glyph unicode="s" horiz-adv-x="784" d="M-10 150q0 57 33.5 91.5t91.5 34.5q46 0 75 -31.5t29 -78.5q0 -28 -12 -49q37 -19 94.5 -36t99.5 -18q26 18 52.5 58t27.5 69q1 12 -3 25.5t-14.5 28.5t-19.5 27t-27.5 30t-30 28.5l-34.5 31.5t-33 30q-51 46 -80 75t-61 68q-32 40 -46 78q-13 35 -13 71v5q3 66 36 119 t85.5 86t115 50.5t127.5 17.5q82 0 144.5 -14.5t106.5 -55.5t44 -105q0 -60 -32.5 -94.5t-88.5 -34.5q-49 0 -78.5 32.5t-29.5 78.5q0 28 12 49q-80 45 -168 51q-29 -18 -55.5 -56t-28.5 -60q-1 -18 8 -38.5t29.5 -44.5t37 -41t46 -45t41.5 -40q103 -99 131 -133 q70 -85 70 -160q0 -121 -120 -203q-114 -78 -259 -78q-79 0 -144 15.5t-112 58t-47 107.5z" />
<glyph unicode="t" horiz-adv-x="677" d="M70 801l6 69l190 76l51 266h222l-62 -294h258l6 -117h-284l-152 -672l57 -18l150 104l37 -43q-49 -82 -130.5 -143.5t-156.5 -61.5q-41 0 -113.5 29.5t-68.5 50.5l158 737z" />
<glyph unicode="u" horiz-adv-x="1126" d="M51 705q44 98 118.5 177t149.5 79q41 0 116 -39.5t75 -65.5q0 -14 -5 -37.5t-17.5 -63t-23 -72.5t-31 -94.5t-32.5 -99.5q-65 -197 -65 -247q0 -31 28.5 -57.5t63.5 -26.5q48 0 117 106t194 359l72 313h248l-86 -307q-95 -473 -105 -504l56 -21l145 105l37 -41 q-48 -83 -127.5 -142t-155.5 -59q-43 0 -112.5 30t-69.5 56q0 67 117 453h-23q-84 -180 -144 -288.5t-110 -158.5q-90 -90 -196 -90q-78 0 -129.5 50.5t-51.5 121.5q0 96 93 379q62 186 88 275l-60 12l-131 -148z" />
<glyph unicode="v" horiz-adv-x="970" d="M-4 705q44 98 118.5 177t147.5 79q44 0 121.5 -29t77.5 -55v-762h22l228 383q69 120 69 186q0 45 -42.5 83t-106.5 50q18 65 66 105.5t112 40.5q71 0 121.5 -46.5t50.5 -123.5q0 -35 -11.5 -74.5t-25 -70.5t-48 -84.5t-56.5 -84.5t-74 -104l-264 -367l-256 -39l-19 826 l-59 12l-131 -148z" />
<glyph unicode="w" horiz-adv-x="1499" d="M-4 705q44 98 118.5 177t147.5 79q44 0 121.5 -29t77.5 -55l6 -762h18l289 651l-10 195l113 -21l110 -20l33 -805h20l195 383q28 54 37.5 74t21 53.5t11.5 58.5q0 45 -39 83t-101 50q15 64 62.5 105t109.5 41q68 0 115 -46.5t47 -123.5q-1 -41 -11 -79.5t-42 -96.5 t-51 -88t-78 -119q-15 -23 -23 -35l-241 -367l-246 -39l-12 627h-17l-268 -588l-262 -39l-21 826l-59 12l-131 -148z" />
<glyph unicode="x" horiz-adv-x="1044" d="M0 219q33 41 84 41q56 0 84 -36q23 -30 23 -77q0 -10 -1 -22l56 -12q12 21 31 55.5t60 107.5t68 121t27 47l-139 353h-45l-113 -127l-37 43q30 66 63 117t82 91t99 40q34 0 100.5 -25t71.5 -49l74 -309h12q54 125 97 204t80 117.5t65.5 51t66.5 12.5q80 -1 131 -41 q50 -40 50 -101v-2q-1 -64 -35 -105.5t-84 -41.5q-57 0 -84 36q-22 29 -22 77q0 11 1 22l-57 10l-188 -319l137 -363h43l114 127l37 -43q-22 -47 -46.5 -87t-55.5 -78.5t-68 -60.5t-75 -22q-28 0 -97.5 29.5t-72.5 44.5l-74 309h-17q-65 -139 -106.5 -216.5t-76 -115 t-57 -45.5t-61.5 -8q-81 0 -131 41q-49 39 -49 98q0 67 35 111z" />
<glyph unicode="y" horiz-adv-x="974" d="M-166 -346q0 54 36 89.5t83 35.5q62 0 103 -46t40 -118l37 -2l258 342l-139 41l-23 799l-59 12l-131 -148l-41 46q44 98 118.5 177t147.5 79q45 0 122 -28.5t77 -55.5l-14 -777h26l320 553v25q-54 21 -84.5 57.5t-30.5 75.5q0 64 39.5 108t101.5 44q69 0 115.5 -45.5 t46.5 -120.5q0 -57 -44 -147.5t-91 -160t-125 -174.5l-186 -252l-115 -229q-88 -177 -181 -262.5t-206 -85.5q-81 0 -141 47.5t-60 120.5z" />
<glyph unicode="z" horiz-adv-x="874" d="M-14 98q0 72 50.5 121.5t147.5 71.5l424 368q-111 40 -319 203l-33 -31q45 -57 45 -106q0 -45 -28.5 -74.5t-73.5 -32.5h-10q-50 0 -78 29q-31 32 -31 80q0 86 78 156.5t198 74.5h14q51 0 94 -12q48 -14 76 -33t53.5 -55t35.5 -57.5t26 -61.5l25 2l55 220h10q58 1 99 -33 q45 -36 45 -94q0 -72 -53.5 -123.5t-151.5 -73.5l-414 -358q38 -14 90 -45t89.5 -57.5t92.5 -67t72 -52.5l33 31q-49 55 -49 111q0 43 30 72t77 30h9q48 0 74 -30q29 -33 29 -81q0 -42 -18 -82.5t-50.5 -74.5t-84 -56t-113.5 -24h-20q-59 0 -105 15q-54 18 -92 54.5t-63 79 t-46 99.5l-26 -2l-58 -228h-9q-58 0 -100 34q-46 37 -46 93z" />
<glyph unicode="{" horiz-adv-x="714" d="M53 467l23 61q128 15 191 51t63 113q0 39 -17.5 89t-38 91.5t-38 98t-17.5 106.5q0 138 111 220t329 92v-78q-115 -10 -170 -57t-55 -121q0 -43 17.5 -94.5t38 -93t38 -100t17.5 -112.5q0 -98 -89 -170.5t-227 -85.5v-24q138 -15 227 -87.5t89 -170.5q0 -54 -17.5 -111.5 t-38 -98.5t-38 -93t-17.5 -95q0 -74 55 -122t170 -58v-74q-218 9 -329 91t-111 219q0 51 17.5 107.5t38 97.5t38 91t17.5 89q0 79 -60.5 114.5t-193.5 48.5z" />
<glyph unicode="|" horiz-adv-x="563" d="M231 -322v1797h101v-1797h-101z" />
<glyph unicode="}" horiz-adv-x="714" d="M53 -383q115 10 170.5 58t55.5 122q0 43 -17.5 95t-38 93t-38 98.5t-17.5 111.5q0 98 88 170.5t227 87.5v24q-139 13 -227 85t-88 171q0 54 17.5 112.5t38 100t38 93t17.5 94.5q0 74 -55.5 121t-170.5 57v78q217 -10 328 -92t111 -220q0 -63 -28 -134.5t-55.5 -136.5 t-27.5 -114q0 -77 63 -113t193 -51l22 -61l-22 -66q-134 -13 -195 -48.5t-61 -114.5q0 -49 27.5 -113.5t55.5 -136t28 -135.5q0 -137 -111.5 -219t-327.5 -91v74z" />
<glyph unicode="~" horiz-adv-x="786" d="M8 369q33 144 92.5 206t151.5 62q41 0 87 -22.5t78.5 -49t69 -49t62.5 -22.5q31 0 56.5 28t60.5 96h84q-33 -145 -92 -206.5t-152 -61.5q-41 0 -88 23t-80.5 50t-70.5 50t-62 23q-31 0 -52 -26.5t-57 -100.5h-88z" />
<glyph unicode="&#xa1;" horiz-adv-x="602" d="M96 86l226 778q4 14 27.5 12.5t23.5 -16.5l-8 -790q0 -47 -34.5 -75t-92.5 -28h-9q-75 0 -111.5 33t-21.5 86zM244 1165q0 59 41 101.5t102 42.5q60 0 101.5 -42.5t41.5 -101.5q0 -57 -42 -99t-101 -42q-61 0 -102 41.5t-41 99.5z" />
<glyph unicode="&#xa2;" horiz-adv-x="839" d="M57 319q0 113 38.5 226.5t105 206.5t166.5 151t213 58h4l88 342h96l-92 -357q76 -22 122 -72t46 -112t-38 -100.5t-91 -38.5q-36 0 -64.5 15.5t-42.5 39.5l-141 -553q57 9 250 131l35 -43q-75 -95 -154 -155t-172 -78l-80 -318h-94l78 309q-123 10 -198 108t-75 240z M289 336q0 -74 23 -126.5t65 -74.5l178 686q-43 17 -88 17q-15 0 -39 -21q-49 -49 -94 -198.5t-45 -282.5z" />
<glyph unicode="&#xa3;" horiz-adv-x="1079" d="M-12 47q104 22 167 66.5t93 109.5t43 168q7 68 10 133h-225l6 94h227q6 113 19 205q28 205 160.5 335t330.5 130q124 0 196 -48.5t72 -127.5q0 -59 -33 -95t-93 -36q-67 0 -101 57.5t-8 132.5q-38 33 -90 33q-68 0 -115 -67.5t-69 -237.5q-7 -56 -17.5 -154.5 t-13.5 -126.5h293l6 -94h-314q-4 -35 -16 -92q-30 -135 -92 -215v-10q9 -3 66.5 -19t85.5 -23.5t73 -15.5t76 -8q94 0 139 45q38 41 82 133l51 -18q0 -163 -73.5 -256.5t-214.5 -93.5q-50 0 -96.5 13.5t-85 39t-64 46t-57.5 52t-41 39.5q-65 -74 -161 -124.5t-202 -65.5z " />
<glyph unicode="&#xa4;" horiz-adv-x="890" d="M68 1032l82 82l118 -119q79 52 178 52q101 0 183 -54l112 113l80 -80l-114 -115q47 -79 47 -176q0 -93 -49 -176l126 -127l-81 -82l-125 125q-77 -51 -179 -51q-95 0 -178 49l-114 -115l-80 80l114 115q-51 79 -51 182q0 104 49 178zM246 735q0 -84 55 -144.5t145 -60.5 q89 0 144 61t55 144q0 85 -55 145t-144 60q-91 0 -145.5 -60t-54.5 -145z" />
<glyph unicode="&#xa5;" horiz-adv-x="1253" d="M96 1280h570l-7 -82l-71 -12q-43 -8 -43 -59.5t43 -155.5l125 -307h12l215 315q37 55 56 90t23 60.5t-9.5 38.5t-44.5 20l-45 10l-7 82h426l-6 -82l-39 -12q-62 -20 -109.5 -58t-125.5 -147l-252 -356h303l8 -95h-354l-21 -161h367l8 -95h-383l-16 -122q-7 -42 41 -50 l129 -22l6 -80h-623l7 80l133 22q46 8 53 50l16 122h-327l4 95h340l20 161h-366l6 95h331l-237 489q-21 46 -80 64l-70 20z" />
<glyph unicode="&#xa6;" horiz-adv-x="563" d="M231 -285v686h101v-686h-101zM231 629v686h101v-686h-101z" />
<glyph unicode="&#xa7;" horiz-adv-x="935" d="M80 610q1 91 58.5 164.5t144.5 114.5q-50 60 -50 129q0 117 104.5 202t262.5 85q116 0 193 -45t77 -121q0 -55 -37.5 -93t-87.5 -38q-62 0 -99.5 52.5t-35.5 133.5q-13 7 -39 13.5t-41 6.5q-68 0 -97.5 -34t-29.5 -80q0 -37 33 -76.5t65 -62t105 -68.5q17 -11 25 -16 q51 -33 78 -51.5t68.5 -52t62.5 -60t38 -63.5t17 -75q0 -90 -56 -163.5t-143 -114.5q52 -58 52 -129q0 -114 -108.5 -205.5t-272.5 -91.5q-120 0 -201.5 45t-81.5 125q0 54 37 90.5t88 36.5q65 0 111 -53.5t45 -132.5q41 -21 88 -21q56 0 90.5 36.5t34.5 90.5 q-1 28 -17.5 55t-51 55t-66 49.5t-82.5 53.5q-9 5 -13 8q-45 28 -66 41.5t-60 41t-58.5 48t-42.5 49t-32 58.5t-9 63zM244 721q0 -31 13.5 -58.5t43.5 -55t54.5 -45.5t70.5 -48q13 -9 47.5 -31t52.5 -34.5t45 -32t48.5 -37.5t39.5 -37q76 40 76 123q0 58 -44.5 105.5 t-127.5 101.5q-6 4 -40 26t-45 29t-39 26.5t-43 31t-35.5 28.5t-36.5 33q-35 -20 -57.5 -53.5t-22.5 -71.5z" />
<glyph unicode="&#xa8;" horiz-adv-x="819" d="M154 1241q0 59 37 101t98 42t97 -41.5t36 -101.5q0 -59 -36 -100t-97 -41t-98 41t-37 100zM594 1241q0 60 36 101.5t97 41.5t97 -41.5t36 -101.5q0 -59 -36 -100t-97 -41t-97 41t-36 100z" />
<glyph unicode="&#xa9;" horiz-adv-x="1572" d="M72 637q0 146 56.5 279.5t152 229.5t228 153t277.5 57q146 0 278 -57t228 -153t152.5 -229.5t56.5 -279.5t-56.5 -278t-152.5 -228t-228 -152.5t-278 -56.5t-278 56.5t-227.5 152.5t-152 228t-56.5 278zM156 637q0 -128 50 -246t134 -203.5t201 -136.5t245 -51t245 51 t201.5 136.5t134.5 203.5t50 246q0 129 -50 247.5t-134.5 204.5t-201.5 137.5t-245 51.5t-245 -51.5t-201 -137.5t-134 -204.5t-50 -247.5zM395 635q0 173 119 286t291 113q94 0 178 -30l107 28v-282h-86l-56 174q-51 39 -151 39q-105 0 -169.5 -79.5t-64.5 -224.5 q0 -151 69 -250.5t191 -99.5q69 0 113 29l72 182h92l-25 -260l-78 16q-80 -36 -190 -36q-104 0 -184.5 31.5t-129 86.5t-73.5 125t-25 152z" />
<glyph unicode="&#xaa;" horiz-adv-x="788" d="M117 791q0 107 47 223t121 190q103 103 215 103q53 0 78 -30.5t40 -84.5h13l31 115l149 -9l-78 -303l-63 -288l41 -11l118 107l23 -31q-44 -72 -108.5 -130t-118.5 -58q-28 0 -70.5 35t-42.5 57q0 16 13 53.5t39 108.5t46 133h-14q-114 -208 -184.5 -297.5t-141.5 -89.5 q-69 0 -111 54.5t-42 152.5zM285 844q0 -57 22 -88t58 -31q25 0 76 69.5t128 196.5l31 103q-104 108 -170 108q-27 0 -49 -22q-34 -34 -65 -138.5t-31 -197.5z" />
<glyph unicode="&#xab;" horiz-adv-x="1024" d="M37 399v115l518 303l16 -43l-333 -321l258 -306l-29 -43zM459 399v115l530 324l19 -43l-373 -342l289 -326l-29 -43z" />
<glyph unicode="&#xac;" horiz-adv-x="983" d="M72 520l6 117h833v-438h-116v321h-723z" />
<glyph unicode="&#xad;" horiz-adv-x="681" d="M68 440l6 123h538l6 -123h-550z" />
<glyph unicode="&#xae;" horiz-adv-x="1572" d="M72 641q0 146 56.5 278.5t152 228.5t228 153t277.5 57q146 0 278.5 -57t228 -153t152 -228.5t56.5 -278.5q0 -195 -95.5 -359.5t-260 -260t-359.5 -95.5q-146 0 -278 56.5t-227.5 152t-152 228t-56.5 278.5zM156 641q0 -172 84.5 -319t229.5 -232.5t316 -85.5 q129 0 246 50.5t201 136t134 203.5t50 247q0 128 -50 246t-134 204t-201 137.5t-246 51.5q-128 0 -245 -51.5t-201 -137.5t-134 -204t-50 -246zM442 264l7 70l57 12q29 5 29 29v534q0 21 -29 29l-57 14l-7 70h365q143 0 216 -55.5t73 -137.5q0 -78 -47 -132t-136 -79 l154 -231q7 -10 13 -17t13.5 -11.5t11 -6.5t12 -5t9.5 -3l43 -10l7 -70h-230l-45 84l-141 236l-64 4v-213q0 -23 29 -29l55 -12l4 -70h-342zM696 659l72 -8q158 7 158 150q0 76 -48.5 115t-132.5 36l-49 -2v-291z" />
<glyph unicode="&#xaf;" horiz-adv-x="819" d="M170 1118l25 119h581l2 -119h-608z" />
<glyph unicode="&#xb0;" horiz-adv-x="839" d="M143 948q0 155 109.5 267t263.5 112q138 0 231 -82.5t93 -218.5q0 -159 -109.5 -271t-267.5 -112q-135 0 -227.5 84.5t-92.5 220.5zM242 952q0 -100 65 -162.5t162 -62.5q112 -1 189 81t79 198q0 101 -65 165t-166 64q-111 1 -186.5 -84t-77.5 -199z" />
<glyph unicode="&#xb1;" horiz-adv-x="983" d="M63 483l7 117h364v330h117v-330h362l7 -117h-369v-333h-117v333h-371zM66 4l6 117h839l7 -117h-852z" />
<glyph unicode="&#xb2;" horiz-adv-x="675" d="M-18 559v82q42 34 105 81.5t103 77.5t86.5 71t73 74t44.5 74.5t18 84.5q0 54 -39.5 83.5t-85.5 29.5q-100 0 -219 -84l-15 34q49 66 142.5 123.5t191.5 57.5q108 0 175 -55t67 -148q0 -39 -16 -76.5t-51.5 -75.5t-70.5 -69t-97.5 -71.5t-106 -67t-119.5 -71.5 q-8 -5 -12 -7v-9h86q162 0 206 4t62 23l41 57h57l-78 -223h-548z" />
<glyph unicode="&#xb3;" horiz-adv-x="675" d="M-6 668q0 35 26.5 61.5t63.5 26.5q44 0 71.5 -27.5t35.5 -62t6 -72.5q1 0 6 -1t13 -2t17 -1q70 0 111 58.5t41 139.5q0 48 -24.5 76.5t-73.5 28.5q-18 0 -31 -2.5t-30.5 -8.5t-24.5 -8l-25 54q155 76 189 99q62 49 65 101q0 38 -36 62t-85 24q-53 0 -111.5 -26.5 t-107.5 -67.5l-14 37q71 90 165.5 140.5t192.5 50.5q85 0 151 -42.5t66 -109.5q0 -22 -5.5 -42t-13.5 -36t-23.5 -31.5t-28 -26t-35 -23t-37 -19.5t-41 -17t-40 -14.5t-41.5 -13.5t-38 -12v-13q59 19 103 19q75 0 116 -41t41 -119q0 -80 -56.5 -145t-142.5 -99.5t-178 -34.5 q-32 0 -70.5 7.5t-77 23t-64 44t-25.5 65.5z" />
<glyph unicode="&#xb4;" horiz-adv-x="817" d="M334 1055l244 372h260l-412 -372h-92z" />
<glyph unicode="&#xb5;" horiz-adv-x="1146" d="M18 928h383l-12 -617q-1 -88 43 -124.5t135 -36.5q49 0 99.5 19t81.5 44v594q0 17 -16 25.5t-62 11.5l-60 4l-8 80h385v-752q0 -63 35 -74l104 -32l-6 -60l-372 -41v127h-11q-49 -65 -94 -96t-113 -31q-100 0 -168 115h-10l31 -569l-260 -19l27 780l2 529q0 20 -15 26.5 t-71 12.5l-41 4z" />
<glyph unicode="&#xb6;" horiz-adv-x="1001" d="M123 866q0 414 557 414h287l-176 -1346h-132l78 574q-78 -10 -127 -10q-218 0 -352.5 102.5t-134.5 265.5z" />
<glyph unicode="&#xb7;" horiz-adv-x="475" d="M61 487q0 65 46.5 111.5t113.5 46.5t112.5 -46.5t45.5 -111.5q0 -64 -46 -111.5t-112 -47.5q-67 0 -113.5 47t-46.5 112z" />
<glyph unicode="&#xb8;" horiz-adv-x="819" d="M35 -508q166 20 255 65.5t89 108.5q0 98 -158 98q-74 0 -143 -14l6 49l266 244h103l-174 -154q121 -5 190.5 -51t69.5 -125q0 -115 -136 -190t-356 -86z" />
<glyph unicode="&#xb9;" horiz-adv-x="675" d="M53 559l4 70l123 14q33 3 37 29l76 522l-148 25l11 49l372 88l-98 -684q-2 -9 5.5 -18.5t19.5 -10.5l88 -14l4 -70h-494z" />
<glyph unicode="&#xba;" horiz-adv-x="718" d="M125 887q0 106 45.5 202t130 157t186.5 61q126 0 195.5 -83t69.5 -220q0 -105 -45.5 -201t-129.5 -157.5t-186 -61.5q-125 0 -195.5 83.5t-70.5 219.5zM291 823q0 -71 25.5 -117.5t72.5 -46.5q62 0 109.5 83t70.5 186q19 97 19 147q0 69 -26 113.5t-75 44.5 q-31 0 -61 -25t-52 -65.5t-38.5 -84.5t-26.5 -89q-18 -92 -18 -146z" />
<glyph unicode="&#xbb;" horiz-adv-x="1024" d="M-12 119l370 342l-286 325l26 43l439 -315v-115l-531 -323zM422 139l336 322l-258 305l30 43l426 -295v-115l-516 -303z" />
<glyph unicode="&#xbc;" d="M35 -238l1294 1518h123l-1294 -1518h-123zM94 559l4 70l123 14q33 3 37 29l76 522l-148 25l11 49l372 88l-98 -684q-2 -9 5.5 -18.5t19.5 -10.5l88 -14l4 -70h-494zM754 -14l485 522l127 -37l-74 -473h133l-18 -82h-123l-35 -209h-190l35 209h-334zM850 -2h252l51 311 h-14z" />
<glyph unicode="&#xbd;" d="M35 -238l1294 1518h123l-1294 -1518h-123zM94 559l4 70l123 14q33 3 37 29l76 522l-148 25l11 49l372 88l-98 -684q-2 -9 5.5 -18.5t19.5 -10.5l88 -14l4 -70h-494zM729 -211q42 34 105 81.5t103 77.5t86.5 71t73 74t44.5 74.5t18 84.5q0 54 -39.5 83.5t-85.5 29.5 q-100 0 -219 -84l-14 34q49 66 142.5 123.5t191.5 57.5q108 0 174.5 -55t66.5 -148q0 -39 -16 -76.5t-51.5 -75.5t-70.5 -69t-97.5 -71.5t-106 -67t-119.5 -71.5q-8 -5 -12 -7v-9h86q162 0 206 4t62 23l41 57h58l-78 -223h-549v82z" />
<glyph unicode="&#xbe;" d="M35 -238l1294 1518h123l-1294 -1518h-123zM35 668q0 35 26.5 61.5t63.5 26.5q44 0 71.5 -27.5t35.5 -62t6 -72.5l12 -2q12 -2 24 -2q70 0 111 58.5t41 139.5q0 48 -24.5 76.5t-73.5 28.5q-18 0 -31 -2.5t-30.5 -8.5t-24.5 -8l-25 54q155 76 189 99q62 49 65 101 q0 38 -36 62t-85 24q-53 0 -111.5 -26.5t-107.5 -67.5l-14 37q71 90 165.5 140.5t192.5 50.5q85 0 151 -42.5t66 -109.5q0 -22 -5.5 -42t-13.5 -36t-23.5 -31.5t-28 -26t-35 -23t-37 -19.5t-41 -17t-40 -14.5t-41.5 -13.5t-38 -12v-13q59 19 103 19q75 0 116 -41t41 -119 q0 -80 -56.5 -145t-142.5 -99.5t-178 -34.5q-32 0 -70.5 7.5t-77 23t-64 44t-25.5 65.5zM754 -14l485 522l127 -37l-74 -473h133l-18 -82h-123l-35 -209h-190l35 209h-334zM850 -2h252l51 311h-14z" />
<glyph unicode="&#xbf;" horiz-adv-x="794" d="M25 340q0 60 18 108.5t43 78.5t66.5 55.5t74 38.5t80.5 28q105 33 131 48q51 29 51 75q0 65 -67 129l100 -2q47 -33 83 -89t36 -114q0 -46 -18.5 -84t-44.5 -62.5t-69.5 -46.5t-77 -33t-83.5 -26q-116 -34 -142 -48q-44 -22 -44 -52q0 -59 87 -104t210 -45q61 0 131 12 q31 -34 31 -80q0 -67 -53 -109.5t-150 -42.5q-159 0 -276 107.5t-117 257.5zM418 1171q0 60 40 102t101 42q60 0 101.5 -42.5t41.5 -101.5q0 -57 -42 -99t-101 -42q-60 0 -100.5 41.5t-40.5 99.5z" />
<glyph unicode="&#xc0;" horiz-adv-x="1269" d="M-70 0l7 84l57 18q37 12 54.5 21t44 38t53.5 80.5t69 143.5l356 786v78l273 62l221 -1125q8 -38 24 -56.5t54 -27.5l78 -18l6 -84h-604l6 84l80 12q52 8 61 41.5t-8 116.5l-29 172h-385l-35 -94q-78 -209 23 -232l74 -16l6 -84h-486zM389 526h328l-84 527h-17zM418 1769 h260l143 -372h-94z" />
<glyph unicode="&#xc1;" horiz-adv-x="1269" d="M-70 0l7 84l57 18q37 12 54.5 21t44 38t53.5 80.5t69 143.5l356 786v78l273 62l221 -1125q8 -38 24 -56.5t54 -27.5l78 -18l6 -84h-604l6 84l80 12q52 8 61 41.5t-8 116.5l-29 172h-385l-35 -94q-78 -209 23 -232l74 -16l6 -84h-486zM389 526h328l-84 527h-17zM610 1397 l244 372h260l-412 -372h-92z" />
<glyph unicode="&#xc2;" horiz-adv-x="1269" d="M-70 0l7 84l57 18q37 12 54.5 21t44 38t53.5 80.5t69 143.5l356 786v78l273 62l221 -1125q8 -38 24 -56.5t54 -27.5l78 -18l6 -84h-604l6 84l80 12q52 8 61 41.5t-8 116.5l-29 172h-385l-35 -94q-78 -209 23 -232l74 -16l6 -84h-486zM389 526h328l-84 527h-17zM406 1397 l233 372h242l135 -372h-94l-177 245h-4l-241 -245h-94z" />
<glyph unicode="&#xc3;" horiz-adv-x="1269" d="M-70 0l7 84l57 18q37 12 54.5 21t44 38t53.5 80.5t69 143.5l356 786v78l273 62l221 -1125q8 -38 24 -56.5t54 -27.5l78 -18l6 -84h-604l6 84l80 12q52 8 61 41.5t-8 116.5l-29 172h-385l-35 -94q-78 -209 23 -232l74 -16l6 -84h-486zM371 1432q33 144 93.5 210t151.5 66 q41 0 86.5 -22.5t78 -49t68.5 -49t62 -22.5q31 0 56.5 28t60.5 97h86q-35 -145 -96 -211t-152 -66q-41 0 -87.5 23t-80 50t-70 50t-61.5 23q-31 0 -51 -26t-57 -101h-88zM389 526h328l-84 527h-17z" />
<glyph unicode="&#xc4;" horiz-adv-x="1269" d="M-70 0l7 84l57 18q37 12 54.5 21t44 38t53.5 80.5t69 143.5l356 786v78l273 62l221 -1125q8 -38 24 -56.5t54 -27.5l78 -18l6 -84h-604l6 84l80 12q52 8 61 41.5t-8 116.5l-29 172h-385l-35 -94q-78 -209 23 -232l74 -16l6 -84h-486zM379 1583q0 59 37 101t98 42 t97 -41.5t36 -101.5q0 -59 -36 -100t-97 -41t-98 41t-37 100zM389 526h328l-84 527h-17zM819 1583q0 60 36 101.5t97 41.5t97 -41.5t36 -101.5q0 -59 -36 -100t-97 -41t-97 41t-36 100z" />
<glyph unicode="&#xc5;" horiz-adv-x="1269" d="M-70 0l7 84l57 18q48 16 71.5 32.5t59 73.5t90.5 177l395 875q-72 62 -69 157q2 87 56.5 146t145.5 59t146 -59.5t55 -145.5q0 -53 -22.5 -98.5t-63.5 -71.5l207 -1061q6 -37 23 -56t55 -28l78 -18l6 -84h-604l6 84l80 12q52 8 61 41.5t-8 116.5l-29 172h-385l-35 -94 q-78 -209 23 -232l74 -16l6 -84h-486zM389 520h326l-78 533h-21zM612 1417q0 -57 36 -97t95 -40t95 40t36 97t-36 98t-95 41t-95 -41t-36 -98z" />
<glyph unicode="&#xc6;" horiz-adv-x="1792" d="M-125 0l6 84l58 18q66 21 112 68t139 195l449 706q28 46 18 73t-53 36l-96 20l-2 80h1284l-55 -422h-142l-22 170q-5 39 -12.5 63t-26 43.5t-41 29t-70 15.5t-99 7.5t-140.5 1.5h-64l-69 -496h22q92 0 133 12.5t62 53.5l69 139h105l-113 -496h-104l2 131q0 40 -33.5 54 t-140.5 14h-15l-67 -508h71q108 0 170.5 3.5t113 11.5t79 27.5t49 45.5t41.5 72l70 151h147l-94 -403h-1071l12 80l105 22q47 11 53 50l41 303h-387l-64 -103q-86 -138 -86 -190q0 -48 62 -62l71 -16l6 -84h-483zM428 549h340l86 645h-14z" />
<glyph unicode="&#xc7;" horiz-adv-x="1331" d="M100 545q0 147 62.5 291.5t171.5 253.5q102 102 235 160.5t283 58.5q82 0 171.5 -16.5t137.5 -35.5l176 48l-61 -457h-141l-48 295q-92 65 -215 65q-129 0 -238 -91.5t-172 -250.5t-63 -348q0 -247 127 -371q79 -79 211 -79q104 0 197 49l143 305h156l-96 -422l-123 25 q-138 -53 -289 -58l-88 -78q121 -5 190.5 -51t69.5 -125q0 -115 -135.5 -190t-355.5 -86l-13 55q166 20 255 65.5t89 108.5q0 98 -157 98q-75 0 -144 -14l6 49l187 170q-259 20 -394 173.5t-135 402.5z" />
<glyph unicode="&#xc8;" horiz-adv-x="1284" d="M14 0l9 82l100 22q27 6 38.5 17.5t14.5 32.5l133 972q3 20 -5 31.5t-36 18.5l-94 22l-4 82h1108l-55 -422h-142l-22 170q-5 39 -12.5 63t-26 43.5t-41 29t-70 15.5t-99 7.5t-140.5 1.5h-80l-70 -496h39q92 0 133 12.5t62 53.5l69 139h105l-113 -496h-104l2 131 q0 40 -33.5 54t-140.5 14h-31l-68 -508h88q108 0 170.5 3.5t113 11.5t79 27.5t49 45.5t41.5 72l70 151h147l-94 -403h-1090zM457 1769h260l143 -372h-94z" />
<glyph unicode="&#xc9;" horiz-adv-x="1284" d="M14 0l9 82l100 22q27 6 38.5 17.5t14.5 32.5l133 972q3 20 -5 31.5t-36 18.5l-94 22l-4 82h1108l-55 -422h-142l-22 170q-5 39 -12.5 63t-26 43.5t-41 29t-70 15.5t-99 7.5t-140.5 1.5h-80l-70 -496h39q92 0 133 12.5t62 53.5l69 139h105l-113 -496h-104l2 131 q0 40 -33.5 54t-140.5 14h-31l-68 -508h88q108 0 170.5 3.5t113 11.5t79 27.5t49 45.5t41.5 72l70 151h147l-94 -403h-1090zM618 1397l244 372h260l-411 -372h-93z" />
<glyph unicode="&#xca;" horiz-adv-x="1284" d="M14 0l9 82l100 22q27 6 38.5 17.5t14.5 32.5l133 972q3 20 -5 31.5t-36 18.5l-94 22l-4 82h1108l-55 -422h-142l-22 170q-5 39 -12.5 63t-26 43.5t-41 29t-70 15.5t-99 7.5t-140.5 1.5h-80l-70 -496h39q92 0 133 12.5t62 53.5l69 139h105l-113 -496h-104l2 131 q0 40 -33.5 54t-140.5 14h-31l-68 -508h88q108 0 170.5 3.5t113 11.5t79 27.5t49 45.5t41.5 72l70 151h147l-94 -403h-1090zM424 1397l233 372h242l135 -372h-94l-176 245h-4l-242 -245h-94z" />
<glyph unicode="&#xcb;" horiz-adv-x="1284" d="M14 0l9 82l100 22q27 6 38.5 17.5t14.5 32.5l133 972q3 20 -5 31.5t-36 18.5l-94 22l-4 82h1108l-55 -422h-142l-22 170q-5 39 -12.5 63t-26 43.5t-41 29t-70 15.5t-99 7.5t-140.5 1.5h-80l-70 -496h39q92 0 133 12.5t62 53.5l69 139h105l-113 -496h-104l2 131 q0 40 -33.5 54t-140.5 14h-31l-68 -508h88q108 0 170.5 3.5t113 11.5t79 27.5t49 45.5t41.5 72l70 151h147l-94 -403h-1090zM408 1583q0 59 37 101t98 42t97 -41.5t36 -101.5q0 -59 -36 -100t-97 -41t-98 41t-37 100zM848 1583q0 60 36 101.5t97 41.5t97 -41.5t36 -101.5 q0 -59 -36 -100t-97 -41t-97 41t-36 100z" />
<glyph unicode="&#xcc;" horiz-adv-x="763" d="M18 0l7 82l120 22q48 8 54 50l133 972q3 20 -5 32t-36 18l-115 22l-6 82h614l-6 -82l-123 -22q-47 -10 -53 -50l-131 -972q-6 -41 41 -50l115 -22l8 -82h-617zM166 1769h260l143 -372h-94z" />
<glyph unicode="&#xcd;" horiz-adv-x="763" d="M18 0l7 82l120 22q48 8 54 50l133 972q3 20 -5 32t-36 18l-115 22l-6 82h614l-6 -82l-123 -22q-47 -10 -53 -50l-131 -972q-6 -41 41 -50l115 -22l8 -82h-617zM440 1397l244 372h260l-412 -372h-92z" />
<glyph unicode="&#xce;" horiz-adv-x="763" d="M18 0l7 82l120 22q48 8 54 50l133 972q3 20 -5 32t-36 18l-115 22l-6 82h614l-6 -82l-123 -22q-47 -10 -53 -50l-131 -972q-6 -41 41 -50l115 -22l8 -82h-617zM180 1397l234 372h241l136 -372h-95l-176 245h-4l-242 -245h-94z" />
<glyph unicode="&#xcf;" horiz-adv-x="763" d="M18 0l7 82l120 22q48 8 54 50l133 972q3 20 -5 32t-36 18l-115 22l-6 82h614l-6 -82l-123 -22q-47 -10 -53 -50l-131 -972q-6 -41 41 -50l115 -22l8 -82h-617zM150 1583q0 59 37 101t98 42t97 -41.5t36 -101.5q0 -59 -36 -100t-97 -41t-98 41t-37 100zM590 1583 q0 60 36 101.5t97 41.5t97 -41.5t36 -101.5q0 -59 -36 -100t-97 -41t-97 41t-36 100z" />
<glyph unicode="&#xd0;" horiz-adv-x="1404" d="M14 0l9 82l100 22q27 6 38.5 17.5t14.5 32.5l60 446h-146l6 94h152l59 432q3 21 -4.5 32t-36.5 18l-92 22l-6 82q36 0 94 0.5t180 0.5t200 0.5t71 0.5q306 0 476.5 -155.5t170.5 -411.5q0 -289 -209 -498q-98 -99 -258.5 -158t-351.5 -59h-527zM444 123l138 -31 q211 9 347 174t136 451q0 218 -96.5 343.5t-298.5 125.5h-82l-66 -492h226l6 -94h-246q1 0 -15 -119t-33 -239z" />
<glyph unicode="&#xd1;" d="M-8 0l6 82l98 20q35 7 56.5 41t39.5 116t41 251l76 549q6 54 -3.5 81t-45.5 36l-88 22l-4 82h428l487 -952h17l59 442q18 135 25 206.5t5 119t-13 62.5t-35 20l-111 20l-6 82h494l-7 -82l-98 -20q-36 -7 -57 -40t-40 -116t-42 -252l-109 -786h-198l-537 1042h-14 l-70 -516q-18 -131 -25 -204.5t-4 -120t15 -62.5t37 -21l106 -20l6 -82h-489zM459 1432q33 143 94 209.5t152 66.5q41 0 86.5 -22.5t77.5 -49t68 -49t62 -22.5q31 0 56.5 28t60.5 97h86q-35 -145 -96 -211t-152 -66q-41 0 -87.5 23t-80 50t-70 50t-61.5 23q-31 0 -51 -26 t-57 -101h-88z" />
<glyph unicode="&#xd2;" d="M98 563q0 149 50.5 281.5t144.5 234.5q99 107 229.5 167.5t282.5 60.5q173 0 310 -75.5t213.5 -211t76.5 -307.5q0 -157 -59.5 -298.5t-167.5 -250.5q-91 -94 -213.5 -144.5t-264.5 -50.5q-173 0 -310.5 75.5t-214.5 211t-77 307.5zM391 500q0 -242 109 -348 q80 -80 205 -80q87 0 159 51t116.5 128.5t75.5 175t43.5 185t12.5 162.5q0 248 -106 354q-78 78 -207 78q-87 0 -159 -51.5t-116.5 -129.5t-75.5 -176t-43.5 -185.5t-13.5 -163.5zM506 1769h260l143 -372h-94z" />
<glyph unicode="&#xd3;" d="M98 563q0 149 50.5 281.5t144.5 234.5q99 107 229.5 167.5t282.5 60.5q173 0 310 -75.5t213.5 -211t76.5 -307.5q0 -157 -59.5 -298.5t-167.5 -250.5q-91 -94 -213.5 -144.5t-264.5 -50.5q-173 0 -310.5 75.5t-214.5 211t-77 307.5zM391 500q0 -242 109 -348 q80 -80 205 -80q87 0 159 51t116.5 128.5t75.5 175t43.5 185t12.5 162.5q0 248 -106 354q-78 78 -207 78q-87 0 -159 -51.5t-116.5 -129.5t-75.5 -176t-43.5 -185.5t-13.5 -163.5zM719 1397l244 372h260l-412 -372h-92z" />
<glyph unicode="&#xd4;" d="M98 563q0 149 50.5 281.5t144.5 234.5q99 107 229.5 167.5t282.5 60.5q173 0 310 -75.5t213.5 -211t76.5 -307.5q0 -157 -59.5 -298.5t-167.5 -250.5q-91 -94 -213.5 -144.5t-264.5 -50.5q-173 0 -310.5 75.5t-214.5 211t-77 307.5zM391 500q0 -242 109 -348 q80 -80 205 -80q87 0 159 51t116.5 128.5t75.5 175t43.5 185t12.5 162.5q0 248 -106 354q-78 78 -207 78q-87 0 -159 -51.5t-116.5 -129.5t-75.5 -176t-43.5 -185.5t-13.5 -163.5zM543 1397l233 372h242l135 -372h-94l-176 245h-4l-242 -245h-94z" />
<glyph unicode="&#xd5;" d="M98 563q0 149 50.5 281.5t144.5 234.5q99 107 229.5 167.5t282.5 60.5q173 0 310 -75.5t213.5 -211t76.5 -307.5q0 -157 -59.5 -298.5t-167.5 -250.5q-91 -94 -213.5 -144.5t-264.5 -50.5q-173 0 -310.5 75.5t-214.5 211t-77 307.5zM391 500q0 -242 109 -348 q80 -80 205 -80q87 0 159 51t116.5 128.5t75.5 175t43.5 185t12.5 162.5q0 248 -106 354q-78 78 -207 78q-87 0 -159 -51.5t-116.5 -129.5t-75.5 -176t-43.5 -185.5t-13.5 -163.5zM477 1432q33 143 94 209.5t152 66.5q41 0 86.5 -22.5t78 -49t68.5 -49t62 -22.5 q31 0 56.5 28t60.5 97h86q-35 -145 -96 -211t-152 -66q-41 0 -87.5 23t-80 50t-70 50t-61.5 23q-31 0 -52 -26.5t-57 -100.5h-88z" />
<glyph unicode="&#xd6;" d="M98 563q0 149 50.5 281.5t144.5 234.5q99 107 229.5 167.5t282.5 60.5q173 0 310 -75.5t213.5 -211t76.5 -307.5q0 -157 -59.5 -298.5t-167.5 -250.5q-91 -94 -213.5 -144.5t-264.5 -50.5q-173 0 -310.5 75.5t-214.5 211t-77 307.5zM391 500q0 -242 109 -348 q80 -80 205 -80q87 0 159 51t116.5 128.5t75.5 175t43.5 185t12.5 162.5q0 248 -106 354q-78 78 -207 78q-87 0 -159 -51.5t-116.5 -129.5t-75.5 -176t-43.5 -185.5t-13.5 -163.5zM496 1583q0 59 37 101t98 42t97 -41.5t36 -101.5q0 -59 -36 -100t-97 -41t-98 41t-37 100z M936 1583q0 60 36 101.5t97 41.5t97 -41.5t36 -101.5q0 -59 -36 -100t-97 -41t-97 41t-36 100z" />
<glyph unicode="&#xd7;" horiz-adv-x="983" d="M68 139l342 342l-342 342l82 82l342 -342l342 342l81 -82l-342 -342l342 -342l-81 -82l-342 340l-342 -340z" />
<glyph unicode="&#xd8;" d="M113 563q0 150 49 282.5t143 233.5q99 107 229.5 167.5t282.5 60.5q138 0 258 -52l90 154h97q-113 -190 -113 -192q127 -76 198 -207.5t70 -296.5q0 -157 -59.5 -298.5t-167.5 -250.5q-189 -195 -477 -195q-147 0 -258 51l-101 -172h-94l121 209q-127 78 -198 209.5 t-70 296.5zM399 500q0 -181 70 -291l539 928q-69 75 -197 75q-74 0 -137 -36t-106.5 -96.5t-77 -134.5t-53 -155.5t-29 -154.5t-9.5 -135zM522 139q87 -73 197 -73q87 0 159 51.5t117 129.5t76.5 176t44.5 186t14 165q0 178 -69 291z" />
<glyph unicode="&#xd9;" horiz-adv-x="1449" d="M152 1280h573l-6 -82l-103 -22q-46 -9 -53 -50l-88 -641q-10 -87 -10 -123q0 -127 80.5 -199.5t216.5 -72.5q148 0 236 85.5t116 281.5l45 313q25 172 30 255.5t-7 115t-45 37.5l-107 20l-6 82h492l-7 -82l-98 -20q-36 -7 -57 -40t-39.5 -115.5t-42.5 -252.5l-49 -348 q-33 -231 -177 -348t-362 -117q-220 0 -353.5 106.5t-133.5 309.5q0 59 6 112l88 641q3 20 -5 31.5t-36 18.5l-92 22zM561 1769h260l144 -372h-95z" />
<glyph unicode="&#xda;" horiz-adv-x="1449" d="M152 1280h573l-6 -82l-103 -22q-46 -9 -53 -50l-88 -641q-10 -87 -10 -123q0 -127 80.5 -199.5t216.5 -72.5q148 0 236 85.5t116 281.5l45 313q25 172 30 255.5t-7 115t-45 37.5l-107 20l-6 82h492l-7 -82l-98 -20q-36 -7 -57 -40t-39.5 -115.5t-42.5 -252.5l-49 -348 q-33 -231 -177 -348t-362 -117q-220 0 -353.5 106.5t-133.5 309.5q0 59 6 112l88 641q3 20 -5 31.5t-36 18.5l-92 22zM784 1397l244 372h260l-411 -372h-93z" />
<glyph unicode="&#xdb;" horiz-adv-x="1449" d="M152 1280h573l-6 -82l-103 -22q-46 -9 -53 -50l-88 -641q-10 -87 -10 -123q0 -127 80.5 -199.5t216.5 -72.5q148 0 236 85.5t116 281.5l45 313q25 172 30 255.5t-7 115t-45 37.5l-107 20l-6 82h492l-7 -82l-98 -20q-36 -7 -57 -40t-39.5 -115.5t-42.5 -252.5l-49 -348 q-33 -231 -177 -348t-362 -117q-220 0 -353.5 106.5t-133.5 309.5q0 59 6 112l88 641q3 20 -5 31.5t-36 18.5l-92 22zM565 1397l234 372h241l136 -372h-95l-176 245h-4l-242 -245h-94z" />
<glyph unicode="&#xdc;" horiz-adv-x="1449" d="M152 1280h573l-6 -82l-103 -22q-46 -9 -53 -50l-88 -641q-10 -87 -10 -123q0 -127 80.5 -199.5t216.5 -72.5q148 0 236 85.5t116 281.5l45 313q25 172 30 255.5t-7 115t-45 37.5l-107 20l-6 82h492l-7 -82l-98 -20q-36 -7 -57 -40t-39.5 -115.5t-42.5 -252.5l-49 -348 q-33 -231 -177 -348t-362 -117q-220 0 -353.5 106.5t-133.5 309.5q0 59 6 112l88 641q3 20 -5 31.5t-36 18.5l-92 22zM489 1583q0 59 37.5 101t98.5 42t97 -41.5t36 -101.5q0 -59 -36 -100t-97 -41t-98.5 41t-37.5 100zM930 1583q0 60 36 101.5t97 41.5t97 -41.5t36 -101.5 q0 -59 -36 -100t-97 -41t-97 41t-36 100z" />
<glyph unicode="&#xdd;" horiz-adv-x="1222" d="M59 1280h588l-6 -84l-82 -12q-53 -7 -53.5 -55t41.5 -146l145 -356h17l235 354q44 66 58.5 106.5t2 63.5t-54.5 31l-73 14l-7 84h478l-7 -84l-49 -14q-62 -17 -108.5 -56t-130.5 -159l-295 -428l-49 -385q-7 -42 41 -50l120 -22l-2 -82h-628l12 82l131 22q46 8 53 50 l49 372l-249 543q-24 51 -47 72.5t-62 34.5l-61 20zM670 1397l243 372h261l-412 -372h-92z" />
<glyph unicode="&#xde;" horiz-adv-x="1204" d="M14 0l9 82l100 22q27 6 38.5 17.5t14.5 32.5l133 972q3 21 -4.5 32t-36.5 18l-92 22l-6 82h573l-6 -82l-102 -22q-47 -11 -53 -50l-13 -96h111q220 0 351.5 -96.5t131.5 -263.5q0 -126 -76 -221.5t-202.5 -144t-282.5 -48.5q-51 0 -137 8l-16 -110q-6 -42 40 -50l127 -22 l5 -82h-607zM477 354q49 -12 98 -12q139 0 224.5 84.5t85.5 232.5q0 125 -77 203t-192 78h-59z" />
<glyph unicode="&#xdf;" horiz-adv-x="1165" d="M-350 -342q0 56 33.5 91.5t85.5 35.5q63 0 103 -48.5t46 -121.5l111 35q46 113 80 344l118 794l-172 13l6 71l195 62q53 241 181 364t315 123q168 0 260 -83t92 -205q0 -115 -80.5 -184.5t-220.5 -92.5q124 -81 203 -200t79 -263q0 -110 -54 -208t-148 -157t-203 -59 q-103 0 -174.5 55t-71.5 142q0 67 42 110t102 43q65 0 97.5 -44.5t20 -101t-64.5 -89.5q6 -6 24.5 -12t38.5 -6q73 0 128 63.5t55 167.5q0 137 -78.5 278t-227.5 242l9 70q138 3 219.5 73.5t81.5 188.5q0 76 -40 125t-108 49q-99 0 -154 -94t-98 -311l-143 -725 q-89 -449 -229 -592q-105 -105 -259 -105q-85 0 -142.5 45.5t-57.5 116.5z" />
<glyph unicode="&#xe0;" horiz-adv-x="1081" d="M45 246q0 150 70 307.5t176 263.5q65 65 139.5 103t144.5 38q136 0 179 -157h16l55 157h211l-123 -370l-108 -459l55 -18l152 104l35 -43q-49 -82 -130.5 -143.5t-156.5 -61.5q-43 0 -114 29t-71 55q0 18 17 73.5t52 153.5t46 132h-20q-131 -219 -165 -269 q-92 -132 -171 -162q-28 -10 -58 -10q-101 0 -166 73t-65 204zM272 311q0 -76 28.5 -118.5t76.5 -42.5q51 0 105.5 68.5t172.5 256.5q15 24 23 37l47 162q-36 61 -103 109t-120 48q-36 0 -68 -32q-61 -61 -111.5 -213t-50.5 -275zM354 1427h260l144 -372h-94z" />
<glyph unicode="&#xe1;" horiz-adv-x="1081" d="M45 246q0 150 70 307.5t176 263.5q65 65 139.5 103t144.5 38q136 0 179 -157h16l55 157h211l-123 -370l-108 -459l55 -18l152 104l35 -43q-49 -82 -130.5 -143.5t-156.5 -61.5q-43 0 -114 29t-71 55q0 18 17 73.5t52 153.5t46 132h-20q-131 -219 -165 -269 q-92 -132 -171 -162q-28 -10 -58 -10q-101 0 -166 73t-65 204zM272 311q0 -76 28.5 -118.5t76.5 -42.5q51 0 105.5 68.5t172.5 256.5q15 24 23 37l47 162q-36 61 -103 109t-120 48q-36 0 -68 -32q-61 -61 -111.5 -213t-50.5 -275zM516 1055l244 372h260l-412 -372h-92z" />
<glyph unicode="&#xe2;" horiz-adv-x="1081" d="M45 246q0 150 70 307.5t176 263.5q65 65 139.5 103t144.5 38q136 0 179 -157h16l55 157h211l-123 -370l-108 -459l55 -18l152 104l35 -43q-49 -82 -130.5 -143.5t-156.5 -61.5q-43 0 -114 29t-71 55q0 18 17 73.5t52 153.5t46 132h-20q-131 -219 -165 -269 q-92 -132 -171 -162q-28 -10 -58 -10q-101 0 -166 73t-65 204zM272 311q0 -76 28.5 -118.5t76.5 -42.5q51 0 105.5 68.5t172.5 256.5q15 24 23 37l47 162q-36 61 -103 109t-120 48q-36 0 -68 -32q-61 -61 -111.5 -213t-50.5 -275zM336 1055l233 372h242l135 -372h-94 l-176 245h-4l-242 -245h-94z" />
<glyph unicode="&#xe3;" horiz-adv-x="1081" d="M45 246q0 150 70 307.5t176 263.5q65 65 139.5 103t144.5 38q136 0 179 -157h16l55 157h211l-123 -370l-108 -459l55 -18l152 104l35 -43q-49 -82 -130.5 -143.5t-156.5 -61.5q-43 0 -114 29t-71 55q0 18 17 73.5t52 153.5t46 132h-20q-131 -219 -165 -269 q-92 -132 -171 -162q-28 -10 -58 -10q-101 0 -166 73t-65 204zM272 311q0 -76 28.5 -118.5t76.5 -42.5q51 0 105.5 68.5t172.5 256.5q15 24 23 37l47 162q-36 61 -103 109t-120 48q-36 0 -68 -32q-61 -61 -111.5 -213t-50.5 -275zM281 1090q33 144 93.5 210t151.5 66 q41 0 86.5 -22.5t78 -49t68.5 -49t62 -22.5q31 0 56.5 28t60.5 97h86q-35 -145 -96 -211t-152 -66q-41 0 -87.5 23t-80 50t-70 50t-61.5 23q-31 0 -51 -26t-57 -101h-88z" />
<glyph unicode="&#xe4;" horiz-adv-x="1081" d="M45 246q0 150 70 307.5t176 263.5q65 65 139.5 103t144.5 38q136 0 179 -157h16l55 157h211l-123 -370l-108 -459l55 -18l152 104l35 -43q-49 -82 -130.5 -143.5t-156.5 -61.5q-43 0 -114 29t-71 55q0 18 17 73.5t52 153.5t46 132h-20q-131 -219 -165 -269 q-92 -132 -171 -162q-28 -10 -58 -10q-101 0 -166 73t-65 204zM272 311q0 -76 28.5 -118.5t76.5 -42.5q51 0 105.5 68.5t172.5 256.5q15 24 23 37l47 162q-36 61 -103 109t-120 48q-36 0 -68 -32q-61 -61 -111.5 -213t-50.5 -275zM305 1241q0 59 37 101t98 42t97 -41.5 t36 -101.5q0 -59 -36 -100t-97 -41t-98 41t-37 100zM745 1241q0 59 36.5 101t97.5 42t97 -41.5t36 -101.5q0 -59 -36 -100t-97 -41t-97.5 41t-36.5 100z" />
<glyph unicode="&#xe5;" horiz-adv-x="1081" d="M45 246q0 150 70 307.5t176 263.5q65 65 139.5 103t144.5 38q136 0 179 -157h16l55 157h211l-123 -370l-108 -459l55 -18l152 104l35 -43q-49 -82 -130.5 -143.5t-156.5 -61.5q-43 0 -114 29t-71 55q0 18 17 73.5t52 153.5t46 132h-20q-131 -219 -165 -269 q-92 -132 -171 -162q-28 -10 -58 -10q-101 0 -166 73t-65 204zM272 311q0 -76 28.5 -118.5t76.5 -42.5q51 0 105.5 68.5t172.5 256.5q15 24 23 37l47 162q-36 61 -103 109t-120 48q-36 0 -68 -32q-61 -61 -111.5 -213t-50.5 -275zM477 1255q2 86 57 145.5t146 59.5 t146 -59.5t55 -145.5t-55 -145t-146 -59q-92 0 -148.5 59.5t-54.5 144.5zM549 1255q0 -57 36 -97t95 -40t95 40t36 97t-36 98.5t-95 41.5t-95 -41.5t-36 -98.5z" />
<glyph unicode="&#xe6;" horiz-adv-x="1415" d="M45 266q0 150 65 297.5t171 253.5q65 65 139.5 103t144.5 38q81 0 130 -64t65 -169q85 118 178.5 177t210.5 59q118 0 185 -58t67 -147q0 -23 -5.5 -44t-21 -41.5t-31.5 -37.5t-49 -39t-59.5 -38.5t-77 -43.5t-89 -46.5t-108 -55t-120.5 -62.5v-26q0 -88 50 -144.5 t128 -56.5q61 0 262 135l33 -43q-88 -114 -179.5 -179t-205.5 -65q-147 0 -234.5 95t-87.5 239v14q-100 -167 -180.5 -257.5t-157.5 -90.5q-100 0 -161.5 81.5t-61.5 215.5zM272 332q0 -76 26 -126t64 -50q20 0 41.5 12.5t44.5 38t43 53t46 69.5t44.5 74.5t46 82t44.5 77.5 q5 8 24 43t23 41q-38 75 -106.5 129.5t-123.5 54.5q-35 0 -67 -32q-61 -61 -105.5 -201.5t-44.5 -265.5zM836 420h8q203 112 278.5 178t75.5 147q0 38 -54.5 67.5t-96.5 29.5q-39 0 -62 -23q-41 -41 -86 -155.5t-63 -243.5z" />
<glyph unicode="&#xe7;" horiz-adv-x="872" d="M57 313q0 112 44 228t117 209t177.5 152t216.5 59q108 0 182 -58.5t74 -146.5q0 -63 -38.5 -106.5t-90.5 -43.5q-56 0 -84 32.5t-28 80.5q0 42 24 82q-22 15 -72.5 29t-89.5 14q-13 0 -38 -25q-53 -51 -107.5 -199t-54.5 -280q0 -99 50.5 -159t129.5 -60q62 0 260 135 l33 -43q-158 -211 -328 -240l-96 -84q121 -5 190.5 -51t69.5 -125q0 -115 -136 -190t-356 -86l-12 55q166 20 255 65.5t89 108.5q0 98 -157 98q-75 0 -144 -14l6 49l189 172q-128 15 -201.5 110t-73.5 232z" />
<glyph unicode="&#xe8;" horiz-adv-x="864" d="M57 313q0 114 43.5 230.5t115.5 208.5t173.5 150.5t208.5 58.5q119 0 185.5 -57.5t66.5 -147.5q0 -23 -5.5 -44t-21 -41.5t-31.5 -37.5t-49 -39t-59.5 -38.5t-77 -43.5t-89 -46.5t-108 -55t-120.5 -62.5v-26q0 -88 51 -144.5t129 -56.5q62 0 260 135l33 -43 q-86 -113 -178.5 -178.5t-206.5 -65.5q-150 0 -235 97t-85 247zM279 1427h260l143 -372h-94zM287 420h6q104 57 165 95t108 77.5t65 75t18 77.5q0 37 -55 67t-96 30t-64 -23q-40 -40 -84.5 -154.5t-62.5 -244.5z" />
<glyph unicode="&#xe9;" horiz-adv-x="864" d="M57 313q0 114 43.5 230.5t115.5 208.5t173.5 150.5t208.5 58.5q119 0 185.5 -57.5t66.5 -147.5q0 -23 -5.5 -44t-21 -41.5t-31.5 -37.5t-49 -39t-59.5 -38.5t-77 -43.5t-89 -46.5t-108 -55t-120.5 -62.5v-26q0 -88 51 -144.5t129 -56.5q62 0 260 135l33 -43 q-86 -113 -178.5 -178.5t-206.5 -65.5q-150 0 -235 97t-85 247zM287 420h6q104 57 165 95t108 77.5t65 75t18 77.5q0 37 -55 67t-96 30t-64 -23q-40 -40 -84.5 -154.5t-62.5 -244.5zM451 1055l243 372h260l-411 -372h-92z" />
<glyph unicode="&#xea;" horiz-adv-x="864" d="M57 313q0 114 43.5 230.5t115.5 208.5t173.5 150.5t208.5 58.5q119 0 185.5 -57.5t66.5 -147.5q0 -23 -5.5 -44t-21 -41.5t-31.5 -37.5t-49 -39t-59.5 -38.5t-77 -43.5t-89 -46.5t-108 -55t-120.5 -62.5v-26q0 -88 51 -144.5t129 -56.5q62 0 260 135l33 -43 q-86 -113 -178.5 -178.5t-206.5 -65.5q-150 0 -235 97t-85 247zM244 1055l233 372h242l135 -372h-94l-176 245h-4l-242 -245h-94zM287 420h6q104 57 165 95t108 77.5t65 75t18 77.5q0 37 -55 67t-96 30t-64 -23q-40 -40 -84.5 -154.5t-62.5 -244.5z" />
<glyph unicode="&#xeb;" horiz-adv-x="864" d="M57 313q0 114 43.5 230.5t115.5 208.5t173.5 150.5t208.5 58.5q119 0 185.5 -57.5t66.5 -147.5q0 -23 -5.5 -44t-21 -41.5t-31.5 -37.5t-49 -39t-59.5 -38.5t-77 -43.5t-89 -46.5t-108 -55t-120.5 -62.5v-26q0 -88 51 -144.5t129 -56.5q62 0 260 135l33 -43 q-86 -113 -178.5 -178.5t-206.5 -65.5q-150 0 -235 97t-85 247zM227 1241q0 59 37 101t98 42t97.5 -42t36.5 -101t-36.5 -100t-97.5 -41t-98 41t-37 100zM287 420h6q104 57 165 95t108 77.5t65 75t18 77.5q0 37 -55 67t-96 30t-64 -23q-40 -40 -84.5 -154.5t-62.5 -244.5z M668 1241q0 60 36 101.5t97 41.5t97 -41.5t36 -101.5q0 -59 -36 -100t-97 -41t-97 41t-36 100z" />
<glyph unicode="&#xec;" horiz-adv-x="573" d="M29 705q44 98 118.5 177t147.5 79q19 0 54.5 -9t69.5 -22t58 -28.5t21 -27.5l-205 -745l55 -18l152 104l35 -43q-49 -82 -129.5 -143.5t-155.5 -61.5q-25 0 -70.5 15t-80.5 36t-31 35l196 742l-61 12l-133 -148zM70 1427h260l143 -372h-94z" />
<glyph unicode="&#xed;" horiz-adv-x="573" d="M29 705q44 98 118.5 177t147.5 79q19 0 54.5 -9t69.5 -22t58 -28.5t21 -27.5l-205 -745l55 -18l152 104l35 -43q-49 -82 -129.5 -143.5t-155.5 -61.5q-25 0 -70.5 15t-80.5 36t-31 35l196 742l-61 12l-133 -148zM221 1055l244 372h260l-412 -372h-92z" />
<glyph unicode="&#xee;" horiz-adv-x="573" d="M29 705q44 98 118.5 177t147.5 79q19 0 54.5 -9t69.5 -22t58 -28.5t21 -27.5l-205 -745l55 -18l152 104l35 -43q-49 -82 -129.5 -143.5t-155.5 -61.5q-25 0 -70.5 15t-80.5 36t-31 35l196 742l-61 12l-133 -148zM57 1055l234 372h241l136 -372h-95l-176 245h-4l-241 -245 h-95z" />
<glyph unicode="&#xef;" horiz-adv-x="573" d="M29 705q44 98 118.5 177t147.5 79q19 0 54.5 -9t69.5 -22t58 -28.5t21 -27.5l-205 -745l55 -18l152 104l35 -43q-49 -82 -129.5 -143.5t-155.5 -61.5q-25 0 -70.5 15t-80.5 36t-31 35l196 742l-61 12l-133 -148zM41 1241q0 59 37 101t98 42t97 -41.5t36 -101.5 q0 -59 -36 -100t-97 -41t-98 41t-37 100zM481 1241q0 60 36 101.5t97 41.5t97.5 -42t36.5 -101t-36.5 -100t-97.5 -41t-97 41t-36 100z" />
<glyph unicode="&#xf0;" horiz-adv-x="985" d="M63 385q0 107 37.5 211.5t100.5 185t152 130t186 49.5q120 0 178 -93q-23 163 -123 275l-313 -80l22 98l215 53q-70 56 -184 101l49 80q159 -48 285 -144l276 70l-22 -96l-170 -45q96 -96 148 -220.5t52 -265.5q1 -192 -70 -359.5t-193 -266.5t-263 -99 q-171 0 -267 114.5t-96 301.5zM287 297q0 -96 36.5 -163.5t100.5 -67.5q45 0 87 35.5t73 92.5t53 117.5t35 122.5q24 120 24 207q0 97 -35.5 159t-101.5 62q-57 0 -109.5 -60t-85.5 -138t-51 -160q-26 -117 -26 -207z" />
<glyph unicode="&#xf1;" horiz-adv-x="1126" d="M25 705q46 99 119.5 177.5t146.5 78.5q48 0 124.5 -24t76.5 -50q0 -80 -113 -463h22q81 179 139.5 287.5t108.5 158.5q91 91 197 91q78 0 129 -46.5t51 -117.5q0 -97 -94 -387l-92 -281l55 -18l152 104l34 -43q-49 -83 -129 -144t-155 -61q-43 0 -113 29.5t-70 56.5 q0 13 6 38.5t19 67.5t24.5 79t32 100t33.5 102q68 202 68 258q0 30 -29.5 51t-65.5 21q-49 0 -116.5 -106.5t-188.5 -358.5l-67 -309l-248 -2l76 307l100 487l-57 15l-135 -144zM279 1090q33 144 93.5 210t151.5 66q41 0 86.5 -22.5t78 -49t68.5 -49t62 -22.5q31 0 56.5 28 t60.5 97h86q-35 -145 -96 -211t-152 -66q-41 0 -87.5 23t-80 50t-70 50t-61.5 23q-31 0 -51 -26t-57 -101h-88z" />
<glyph unicode="&#xf2;" horiz-adv-x="985" d="M63 385q0 144 64.5 276.5t180 216t251.5 83.5q171 0 266 -114.5t95 -303.5q0 -107 -38 -210.5t-102.5 -184t-157.5 -130t-196 -49.5q-171 0 -267 114.5t-96 301.5zM287 297q0 -96 36.5 -163.5t100.5 -67.5q45 0 87 35.5t73 92.5t53 117.5t35 122.5q24 120 24 207 q0 97 -35.5 159t-101.5 62q-57 0 -109.5 -60t-85.5 -138t-51 -160q-26 -117 -26 -207zM287 1427h260l143 -372h-94z" />
<glyph unicode="&#xf3;" horiz-adv-x="985" d="M63 385q0 144 64.5 276.5t180 216t251.5 83.5q171 0 266 -114.5t95 -303.5q0 -107 -38 -210.5t-102.5 -184t-157.5 -130t-196 -49.5q-171 0 -267 114.5t-96 301.5zM287 297q0 -96 36.5 -163.5t100.5 -67.5q45 0 87 35.5t73 92.5t53 117.5t35 122.5q24 120 24 207 q0 97 -35.5 159t-101.5 62q-57 0 -109.5 -60t-85.5 -138t-51 -160q-26 -117 -26 -207zM489 1055l244 372h260l-411 -372h-93z" />
<glyph unicode="&#xf4;" horiz-adv-x="985" d="M63 385q0 144 64.5 276.5t180 216t251.5 83.5q171 0 266 -114.5t95 -303.5q0 -107 -38 -210.5t-102.5 -184t-157.5 -130t-196 -49.5q-171 0 -267 114.5t-96 301.5zM285 1055l233 372h242l135 -372h-94l-176 245h-4l-242 -245h-94zM287 297q0 -96 36.5 -163.5t100.5 -67.5 q45 0 87 35.5t73 92.5t53 117.5t35 122.5q24 120 24 207q0 97 -35.5 159t-101.5 62q-57 0 -109.5 -60t-85.5 -138t-51 -160q-26 -117 -26 -207z" />
<glyph unicode="&#xf5;" horiz-adv-x="985" d="M63 385q0 144 64.5 276.5t180 216t251.5 83.5q171 0 266 -114.5t95 -303.5q0 -107 -38 -210.5t-102.5 -184t-157.5 -130t-196 -49.5q-171 0 -267 114.5t-96 301.5zM254 1090q33 143 94 209.5t152 66.5q41 0 86.5 -22.5t78 -49t68.5 -49t62 -22.5q31 0 56 28t60 97h86 q-35 -145 -95.5 -211t-151.5 -66q-41 0 -87.5 23t-80 50t-70 50t-61.5 23q-31 0 -52 -26.5t-57 -100.5h-88zM287 297q0 -96 36.5 -163.5t100.5 -67.5q45 0 87 35.5t73 92.5t53 117.5t35 122.5q24 120 24 207q0 97 -35.5 159t-101.5 62q-57 0 -109.5 -60t-85.5 -138t-51 -160 q-26 -117 -26 -207z" />
<glyph unicode="&#xf6;" horiz-adv-x="985" d="M63 385q0 144 64.5 276.5t180 216t251.5 83.5q171 0 266 -114.5t95 -303.5q0 -107 -38 -210.5t-102.5 -184t-157.5 -130t-196 -49.5q-171 0 -267 114.5t-96 301.5zM279 1241q0 59 37 101t98 42t97 -41.5t36 -101.5q0 -59 -36 -100t-97 -41t-98 41t-37 100zM287 297 q0 -96 36.5 -163.5t100.5 -67.5q45 0 87 35.5t73 92.5t53 117.5t35 122.5q24 120 24 207q0 97 -35.5 159t-101.5 62q-57 0 -109.5 -60t-85.5 -138t-51 -160q-26 -117 -26 -207zM719 1241q0 60 36 101.5t97 41.5t97 -41.5t36 -101.5q0 -59 -36 -100t-97 -41t-97 41t-36 100z " />
<glyph unicode="&#xf7;" horiz-adv-x="983" d="M80 422l6 117h817l6 -117h-829zM391 195q0 42 31 73t76 31t74.5 -31t29.5 -73q0 -43 -30 -75t-74 -32q-45 0 -76 32.5t-31 74.5zM391 768q0 42 30 74t75 32t75.5 -32t30.5 -74t-30.5 -74t-75.5 -32t-75 32t-30 74z" />
<glyph unicode="&#xf8;" horiz-adv-x="985" d="M27 -264q11 19 29.5 51t57 99t64 111.5t25.5 43.5q-67 55 -103.5 144.5t-36.5 199.5q0 144 64.5 276.5t180 216t251.5 83.5q82 0 156 -33l170 297h90l-195 -336q140 -110 140 -346q0 -107 -38 -210.5t-102.5 -184t-157.5 -130t-196 -49.5q-93 0 -158 33l-153 -266h-88z M283 297q0 -44 10 -96l360 620q-41 47 -94 47q-44 0 -86 -34.5t-73.5 -90t-55 -117t-37.5 -122.5q-24 -105 -24 -207zM330 111q40 -50 94 -50q45 0 87.5 35.5t74 93t54.5 119t36 123.5q24 108 24 209q0 44 -10 92q-358 -622 -360 -622z" />
<glyph unicode="&#xf9;" horiz-adv-x="1126" d="M51 705q44 98 118.5 177t149.5 79q41 0 116 -39.5t75 -65.5q0 -14 -5 -37.5t-17.5 -63t-23 -72.5t-31 -94.5t-32.5 -99.5q-65 -197 -65 -247q0 -31 28.5 -57.5t63.5 -26.5q48 0 117 106t194 359l72 313h248l-86 -307q-95 -473 -105 -504l56 -21l145 105l37 -41 q-48 -83 -127.5 -142t-155.5 -59q-43 0 -112.5 30t-69.5 56q0 67 117 453h-23q-84 -180 -144 -288.5t-110 -158.5q-90 -90 -196 -90q-78 0 -129.5 50.5t-51.5 121.5q0 96 93 379q62 186 88 275l-60 12l-131 -148zM336 1427h260l143 -372h-94z" />
<glyph unicode="&#xfa;" horiz-adv-x="1126" d="M51 705q44 98 118.5 177t149.5 79q41 0 116 -39.5t75 -65.5q0 -14 -5 -37.5t-17.5 -63t-23 -72.5t-31 -94.5t-32.5 -99.5q-65 -197 -65 -247q0 -31 28.5 -57.5t63.5 -26.5q48 0 117 106t194 359l72 313h248l-86 -307q-95 -473 -105 -504l56 -21l145 105l37 -41 q-48 -83 -127.5 -142t-155.5 -59q-43 0 -112.5 30t-69.5 56q0 67 117 453h-23q-84 -180 -144 -288.5t-110 -158.5q-90 -90 -196 -90q-78 0 -129.5 50.5t-51.5 121.5q0 96 93 379q62 186 88 275l-60 12l-131 -148zM528 1055l244 372h260l-411 -372h-93z" />
<glyph unicode="&#xfb;" horiz-adv-x="1126" d="M51 705q44 98 118.5 177t149.5 79q41 0 116 -39.5t75 -65.5q0 -14 -5 -37.5t-17.5 -63t-23 -72.5t-31 -94.5t-32.5 -99.5q-65 -197 -65 -247q0 -31 28.5 -57.5t63.5 -26.5q48 0 117 106t194 359l72 313h248l-86 -307q-95 -473 -105 -504l56 -21l145 105l37 -41 q-48 -83 -127.5 -142t-155.5 -59q-43 0 -112.5 30t-69.5 56q0 67 117 453h-23q-84 -180 -144 -288.5t-110 -158.5q-90 -90 -196 -90q-78 0 -129.5 50.5t-51.5 121.5q0 96 93 379q62 186 88 275l-60 12l-131 -148zM344 1055l234 372h241l135 -372h-94l-176 245h-4l-242 -245 h-94z" />
<glyph unicode="&#xfc;" horiz-adv-x="1126" d="M51 705q44 98 118.5 177t149.5 79q41 0 116 -39.5t75 -65.5q0 -14 -5 -37.5t-17.5 -63t-23 -72.5t-31 -94.5t-32.5 -99.5q-65 -197 -65 -247q0 -31 28.5 -57.5t63.5 -26.5q48 0 117 106t194 359l72 313h248l-86 -307q-95 -473 -105 -504l56 -21l145 105l37 -41 q-48 -83 -127.5 -142t-155.5 -59q-43 0 -112.5 30t-69.5 56q0 67 117 453h-23q-84 -180 -144 -288.5t-110 -158.5q-90 -90 -196 -90q-78 0 -129.5 50.5t-51.5 121.5q0 96 93 379q62 186 88 275l-60 12l-131 -148zM328 1241q0 59 37 101t98 42t97 -41.5t36 -101.5 q0 -59 -36 -100t-97 -41t-98 41t-37 100zM768 1241q0 60 36 101.5t97 41.5t97 -41.5t36 -101.5q0 -59 -36 -100t-97 -41t-97 41t-36 100z" />
<glyph unicode="&#xfd;" horiz-adv-x="974" d="M-166 -346q0 54 36 89.5t83 35.5q62 0 103 -46t40 -118l37 -2l258 342l-139 41l-23 799l-59 12l-131 -148l-41 46q44 98 118.5 177t147.5 79q45 0 122 -28.5t77 -55.5l-14 -777h26l320 553v25q-54 21 -84.5 57.5t-30.5 75.5q0 64 39.5 108t101.5 44q69 0 115.5 -45.5 t46.5 -120.5q0 -57 -44 -147.5t-91 -160t-125 -174.5l-186 -252l-115 -229q-88 -177 -181 -262.5t-206 -85.5q-81 0 -141 47.5t-60 120.5zM483 1055l244 372h260l-412 -372h-92z" />
<glyph unicode="&#xfe;" horiz-adv-x="1038" d="M-197 -504l7 80l96 23q42 9 51 49l322 1493q12 53 -25 69l-117 56l13 57l417 104l-116 -469l-103 -419h21q114 229 199 325.5t188 96.5q97 0 161 -82t64 -215q0 -151 -63.5 -300.5t-167.5 -254.5q-64 -64 -139 -102t-144 -38q-58 0 -107.5 29.5t-80.5 77.5h-13l-86 -428 q-6 -41 43 -49l133 -23l9 -80h-562zM297 215q43 -60 107.5 -104.5t107.5 -44.5q34 0 66 32q69 69 122.5 222.5t53.5 277.5q0 78 -26.5 130t-72.5 52q-51 0 -114.5 -84.5t-192.5 -300.5z" />
<glyph unicode="&#xff;" horiz-adv-x="974" d="M-166 -346q0 54 36 89.5t83 35.5q62 0 103 -46t40 -118l37 -2l258 342l-139 41l-23 799l-59 12l-131 -148l-41 46q44 98 118.5 177t147.5 79q45 0 122 -28.5t77 -55.5l-14 -777h26l320 553v25q-54 21 -84.5 57.5t-30.5 75.5q0 64 39.5 108t101.5 44q69 0 115.5 -45.5 t46.5 -120.5q0 -57 -44 -147.5t-91 -160t-125 -174.5l-186 -252l-115 -229q-88 -177 -181 -262.5t-206 -85.5q-81 0 -141 47.5t-60 120.5zM262 1241q0 59 37 101t98 42t97 -41.5t36 -101.5q0 -59 -36 -100t-97 -41t-98 41t-37 100zM702 1241q0 59 36.5 101t97.5 42t97 -41.5 t36 -101.5q0 -59 -36 -100t-97 -41t-97.5 41t-36.5 100z" />
<glyph unicode="&#x152;" horiz-adv-x="1982" d="M98 565q0 148 51.5 269.5t159.5 228.5q98 98 258.5 157.5t350.5 59.5h1062l-65 -422h-131l-23 170q-5 39 -12.5 63t-26 43.5t-41 29t-70 15.5t-99 7.5t-140.5 1.5h-80l-69 -496h39q90 0 136 15.5t70 58.5l58 131h104l-112 -496h-105l2 131q0 40 -33.5 54t-140.5 14h-31 l-67 -508h88q90 0 145.5 1.5t105 8.5t76.5 16.5t52 29t40 43t33 61.5l70 151h148l-95 -403h-1061q-306 0 -476.5 154.5t-170.5 410.5zM393 563q0 -221 100.5 -345t294.5 -124h82l146 1063l-139 31q-102 -5 -189.5 -48t-153.5 -120t-103.5 -195t-37.5 -262z" />
<glyph unicode="&#x153;" horiz-adv-x="1466" d="M63 385q0 144 62.5 275.5t178.5 216t255 84.5q215 0 291 -187q142 187 350 187q119 0 185.5 -57.5t66.5 -147.5q0 -23 -5.5 -44t-21 -41.5t-31.5 -37.5t-49 -39t-59.5 -38.5t-77 -43.5t-89 -46.5t-108 -55t-120.5 -62.5v-26q0 -88 51 -144.5t129 -56.5q62 0 260 135 l33 -43q-86 -113 -178.5 -178.5t-206.5 -65.5q-180 0 -248 150q-130 -150 -305 -150q-171 0 -267 114.5t-96 301.5zM287 297q0 -96 36.5 -163.5t100.5 -67.5q45 0 87 35.5t73 92.5t53 117.5t35 122.5q24 120 24 207q0 97 -35.5 159t-101.5 62q-57 0 -109.5 -60t-85.5 -138 t-51 -160q-26 -117 -26 -207zM889 420h6q205 112 280.5 178t75.5 147q0 37 -55 67t-96 30t-64 -23q-40 -40 -84.5 -154.5t-62.5 -244.5z" />
<glyph unicode="&#x178;" horiz-adv-x="1222" d="M59 1280h588l-6 -84l-82 -12q-53 -7 -53.5 -55t41.5 -146l145 -356h17l235 354q44 66 58.5 106.5t2 63.5t-54.5 31l-73 14l-7 84h478l-7 -84l-49 -14q-62 -17 -108.5 -56t-130.5 -159l-295 -428l-49 -385q-7 -42 41 -50l120 -22l-2 -82h-628l12 82l131 22q46 8 53 50 l49 372l-249 543q-24 51 -47 72.5t-62 34.5l-61 20zM416 1583q0 59 37 101t98 42t97 -41.5t36 -101.5q0 -59 -36 -100t-97 -41t-98 41t-37 100zM856 1583q0 60 36 101.5t97 41.5t97 -41.5t36 -101.5q0 -59 -36 -100t-97 -41t-97 41t-36 100z" />
<glyph unicode="&#x2c6;" horiz-adv-x="819" d="M160 1055l233 372h242l135 -372h-94l-176 245h-4l-242 -245h-94z" />
<glyph unicode="&#x2dc;" horiz-adv-x="819" d="M115 1090q33 144 93.5 210t151.5 66q41 0 86.5 -22.5t78 -49t68.5 -49t62 -22.5q31 0 56.5 28t60.5 97h86q-35 -145 -96 -211t-152 -66q-41 0 -87.5 23t-80 50t-70 50t-61.5 23q-31 0 -51 -26t-57 -101h-88z" />
<glyph unicode="&#x2000;" horiz-adv-x="884" />
<glyph unicode="&#x2001;" horiz-adv-x="1769" />
<glyph unicode="&#x2002;" horiz-adv-x="884" />
<glyph unicode="&#x2003;" horiz-adv-x="1769" />
<glyph unicode="&#x2004;" horiz-adv-x="589" />
<glyph unicode="&#x2005;" horiz-adv-x="442" />
<glyph unicode="&#x2006;" horiz-adv-x="294" />
<glyph unicode="&#x2007;" horiz-adv-x="294" />
<glyph unicode="&#x2008;" horiz-adv-x="221" />
<glyph unicode="&#x2009;" horiz-adv-x="353" />
<glyph unicode="&#x200a;" horiz-adv-x="98" />
<glyph unicode="&#x2010;" horiz-adv-x="681" d="M68 440l6 123h538l6 -123h-550z" />
<glyph unicode="&#x2011;" horiz-adv-x="681" d="M68 440l6 123h538l6 -123h-550z" />
<glyph unicode="&#x2012;" horiz-adv-x="681" d="M68 440l6 123h538l6 -123h-550z" />
<glyph unicode="&#x2013;" horiz-adv-x="962" d="M63 440l7 123h831l6 -123h-844z" />
<glyph unicode="&#x2014;" horiz-adv-x="1925" d="M63 440l7 123h1794l6 -123h-1807z" />
<glyph unicode="&#x2018;" horiz-adv-x="495" d="M104 909q0 127 121.5 247.5t313.5 203.5l41 -49q-104 -57 -177 -137.5t-73 -155.5q0 -17 4.5 -34.5t11.5 -31.5t16.5 -27t20 -23.5t21 -19.5t20 -15.5t16.5 -11.5t11 -7.5t4 -3.5q-6 -52 -52.5 -90.5t-109.5 -38.5q-84 0 -136.5 57.5t-52.5 136.5z" />
<glyph unicode="&#x2019;" horiz-adv-x="495" d="M88 766q98 55 162.5 128t64.5 144q0 33 -14.5 63t-35.5 50.5t-41.5 35.5t-35 23t-14.5 9q0 51 47.5 91t110.5 40q83 0 137.5 -60.5t54.5 -144.5q0 -63 -31.5 -125.5t-86.5 -116.5t-121.5 -100t-145.5 -86z" />
<glyph unicode="&#x201a;" horiz-adv-x="495" d="M-78 -301q98 55 163 128t65 144q0 33 -14.5 63t-35.5 50.5t-42 35.5t-35.5 23t-14.5 9q0 51 47.5 91t110.5 40q83 0 137.5 -60.5t54.5 -144.5q0 -63 -31.5 -125.5t-86.5 -116.5t-121.5 -100t-145.5 -86z" />
<glyph unicode="&#x201c;" horiz-adv-x="937" d="M104 920q0 83 56.5 165t139.5 144.5t192 118.5l49 -50q-98 -58 -162 -130t-64 -144q0 -33 14.5 -63t35.5 -49.5t42 -34.5t35.5 -23.5t14.5 -9.5q0 -50 -48 -89.5t-110 -39.5q-83 0 -139 60t-56 145zM561 920q0 121 108 230.5t277 197.5l51 -50q-98 -57 -161.5 -129.5 t-63.5 -144.5q0 -33 14.5 -63t35 -49.5t40.5 -34.5t34.5 -23.5t14.5 -9.5q0 -50 -46.5 -89.5t-108.5 -39.5q-85 0 -140 60t-55 145z" />
<glyph unicode="&#x201d;" horiz-adv-x="937" d="M96 766q97 55 161.5 128t64.5 144q0 33 -14.5 63t-35 50.5t-41 35.5t-35 23t-14.5 9q0 51 47 91t109 40q83 0 138.5 -60.5t55.5 -144.5q0 -63 -31.5 -125.5t-86.5 -116.5t-122 -100t-147 -86zM553 766q97 55 161 128t64 144q0 33 -14.5 63t-35 50.5t-41.5 35.5t-35.5 23 t-14.5 9q0 51 47.5 91t110.5 40q83 0 137.5 -60.5t54.5 -144.5q0 -63 -31.5 -125.5t-86.5 -116.5t-121.5 -100t-145.5 -86z" />
<glyph unicode="&#x201e;" horiz-adv-x="937" d="M-70 -301q97 55 161.5 128t64.5 144q0 33 -14.5 63t-35 50.5t-41 35.5t-35 23t-14.5 9q0 51 47 91t109 40q83 0 139 -61t56 -144q0 -63 -31.5 -125.5t-86.5 -116.5t-122 -100t-147 -86zM387 -301q97 55 161 128t64 144q0 33 -14.5 63t-35 50.5t-41.5 35.5t-35.5 23 t-14.5 9q0 51 47.5 91t110.5 40q83 0 137.5 -60.5t54.5 -144.5q0 -63 -31.5 -125.5t-86.5 -116.5t-121.5 -100t-145.5 -86z" />
<glyph unicode="&#x2022;" horiz-adv-x="931" d="M72 475q0 44 42.5 146t73.5 133t133.5 72.5t145.5 41.5q44 0 145.5 -41.5t132.5 -72.5t73 -133t42 -146q0 -45 -41.5 -146.5t-73.5 -133.5q-31 -31 -133.5 -73t-146.5 -42q-43 0 -145.5 42.5t-131.5 72.5q-31 33 -73.5 134.5t-42.5 145.5z" />
<glyph unicode="&#x2026;" horiz-adv-x="1425" d="M37 127q0 65 46.5 111.5t113.5 46.5t112 -46.5t45 -111.5q0 -64 -45.5 -112t-111.5 -48q-67 0 -113.5 47.5t-46.5 112.5zM512 127q0 65 46.5 111.5t113.5 46.5t112 -46.5t45 -111.5q0 -64 -45.5 -112t-111.5 -48q-67 0 -113.5 47.5t-46.5 112.5zM987 127q0 65 46.5 111.5 t113.5 46.5t112.5 -46.5t45.5 -111.5q0 -64 -46 -112t-112 -48q-67 0 -113.5 47.5t-46.5 112.5z" />
<glyph unicode="&#x202f;" horiz-adv-x="353" />
<glyph unicode="&#x2039;" horiz-adv-x="614" d="M47 399v115l533 324l18 -43l-371 -342l285 -326l-27 -43z" />
<glyph unicode="&#x203a;" horiz-adv-x="614" d="M33 119l338 334l-254 333l26 43l439 -315l-13 -123l-518 -315z" />
<glyph unicode="&#x205f;" horiz-adv-x="442" />
<glyph unicode="&#x20ac;" horiz-adv-x="1062" d="M20 442l7 97h123v12q0 63 14 145h-111l6 97h127q65 222 223 359.5t369 137.5q144 0 227 -51.5t85 -126.5q0 -58 -33 -95.5t-86 -37.5q-62 0 -99 54.5t-34 129.5q-47 33 -111 33q-117 0 -204 -108.5t-124 -294.5h414l6 -97h-436q-8 -90 -8 -135v-22h405l6 -97h-403 q21 -154 98.5 -237.5t210.5 -83.5t275 117l28 -41q-60 -101 -165 -164.5t-224 -63.5q-99 0 -180.5 36.5t-137 101.5t-89.5 149.5t-45 185.5h-134z" />
<glyph unicode="&#x2122;" horiz-adv-x="1918" d="M109 983l16 297h706v-297h-83l-11 39q-12 44 -19 67.5t-18.5 49t-22.5 37t-29.5 22t-41 13.5t-55.5 3h-2v-593q0 -26 24 -29l80 -12l4 -62h-385l4 62l80 12q27 5 27 29v593h-2q-79 0 -112.5 -38.5t-69.5 -153.5l-13 -39h-77zM907 518l4 62l62 10q17 2 25 14.5t13.5 56 t8.5 136.5l12 379q0 25 -24 30l-72 13l-4 61h348l113 -557h20l160 557h344l-4 -61l-68 -13q-28 -5 -28 -30l8 -461q1 -71 10.5 -93.5t30.5 -27.5l61 -14l4 -62h-370l2 62l67 14q17 3 21.5 25.5t3.5 95.5l-10 475h-21l-199 -647h-139l-153 653h-21l-12 -399 q-5 -135 -1.5 -168t23.5 -39l66 -10l4 -62h-285z" />
<glyph unicode="&#x25fc;" horiz-adv-x="962" d="M0 0v963h963v-963h-963z" />
<glyph unicode="&#xfb01;" horiz-adv-x="1101" d="M-360 -340q0 55 33.5 90t84.5 35q64 0 105 -48.5t47 -119.5l106 33q19 47 42 146t38 200l123 790l-178 15l6 69l197 64q15 91 58.5 186.5t111.5 163.5t166 107t211 39q116 0 184.5 -55t68.5 -140q0 -55 -37 -95t-92 -40q-61 0 -103 56.5t-58 141.5l-191 -26 q-59 -140 -92 -354h242q62 43 112 43q25 0 69 -24.5t77.5 -55.5t29.5 -47l-186 -689l37 -18l168 119l35 -45q-51 -89 -135 -160.5t-158 -71.5q-38 0 -107 51.5t-63 73.5l184 694l-16 13h-314l-118 -611q-39 -203 -99 -358t-131 -229q-107 -107 -256 -107q-86 0 -144 46.5 t-58 117.5z" />
<glyph unicode="&#xfb02;" horiz-adv-x="1114" d="M-360 -340q0 55 33.5 90t84.5 35q64 0 105 -48.5t47 -119.5l110 33q44 99 80 346l115 790l-174 15l6 69l197 64q15 91 58.5 186.5t111.5 163.5t166 107t211 39q96 0 163 -41l158 38l-276 -1282l38 -18l166 119l37 -45q-53 -89 -136 -160.5t-157 -71.5q-37 0 -105 51.5 t-63 73.5l146 707h-316l-118 -611q-39 -203 -99 -358t-131 -229q-107 -107 -256 -107q-86 0 -144 46.5t-58 117.5zM471 918h315l45 210q-54 46 -77 170l-191 -26q-59 -140 -92 -354z" />
<glyph unicode="&#xfb03;" horiz-adv-x="1644" d="M-360 -340q0 55 33.5 90t84.5 35q64 0 105 -48.5t47 -119.5l106 33q19 47 42 146t38 200l123 790l-178 15l6 69l197 64q15 94 55.5 186t108.5 158q72 70 146 103.5t187 33.5q80 0 140 -34t86 -87q66 63 162 99.5t204 36.5q116 0 185 -55t69 -140q0 -55 -37 -95t-92 -40 q-61 0 -103.5 57t-58.5 141l-194 -26q-53 -125 -88 -354h241q62 43 113 43q25 0 69 -24.5t77.5 -55.5t29.5 -47l-186 -689l37 -18l168 119l34 -45q-51 -89 -134.5 -160.5t-157.5 -71.5q-38 0 -107 51.5t-63 73.5l184 694l-16 13h-314l-108 -549q-41 -205 -100.5 -360 t-129.5 -228q-103 -106 -248 -106q-85 0 -142.5 45t-57.5 116q0 56 33.5 91.5t85.5 35.5q63 0 103 -48.5t46 -121.5l100 35q46 117 80 344l111 746h-316l-118 -611q-39 -203 -99 -358t-131 -229q-107 -107 -256 -107q-86 0 -144 46.5t-58 117.5zM471 918h315q18 102 48 180 q-51 10 -87 65t-49 129l-149 -24q-48 -155 -78 -350z" />
<glyph unicode="&#xfb04;" horiz-adv-x="1656" d="M-360 -340q0 55 33.5 90t84.5 35q64 0 105 -48.5t47 -119.5l106 33q19 47 42 146t38 200l123 790l-178 15l6 69l197 64q15 94 55.5 186t108.5 158q72 70 146 103.5t187 33.5q80 0 140 -34t86 -87q66 63 162 99.5t204 36.5q97 0 164 -41l158 38l-277 -1282l39 -18l166 119 l37 -45q-53 -89 -136 -160.5t-157 -71.5q-37 0 -105 51.5t-63 73.5l146 707h-316l-108 -549q-41 -205 -100.5 -360t-129.5 -228q-103 -106 -248 -106q-85 0 -142.5 45t-57.5 116q0 56 33.5 91.5t85.5 35.5q63 0 103 -48.5t46 -121.5l100 35q46 117 80 344l111 746h-316 l-118 -611q-39 -203 -99 -358t-131 -229q-107 -107 -256 -107q-86 0 -144 46.5t-58 117.5zM471 918h315q18 102 48 180q-51 10 -87 65t-49 129l-149 -24q-48 -155 -78 -350zM1014 918h315l45 210q-52 44 -78 170l-194 -26q-53 -125 -88 -354z" />
</font>
</defs>
</svg>
