<?xml version="1.0" standalone="no"?>
<!DOCTYPE svg PUBLIC "-//W3C//DTD SVG 1.1//EN" "http://www.w3.org/Graphics/SVG/1.1/DTD/svg11.dtd" >
<svg xmlns="http://www.w3.org/2000/svg" xmlns:xlink="http://www.w3.org/1999/xlink" version="1.1">
<metadata></metadata>
<defs>
<font id="freight_text_problack" horiz-adv-x="1187" >
<font-face units-per-em="2048" ascent="1638" descent="-410" />
<missing-glyph horiz-adv-x="466" />
<glyph horiz-adv-x="0" />
<glyph horiz-adv-x="682" />
<glyph unicode=" "  horiz-adv-x="466" />
<glyph unicode="&#x09;" horiz-adv-x="466" />
<glyph unicode="&#xa0;" horiz-adv-x="466" />
<glyph unicode="!" horiz-adv-x="622" d="M152 129q0 68 47 116t114 48t114.5 -48.5t47.5 -115.5q0 -66 -47.5 -114t-114.5 -48t-114 47t-47 115zM154 1182q-10 58 36 92.5t121 34.5h4q75 0 121.5 -34.5t36.5 -92.5l-129 -760q-3 -19 -30.5 -19t-30.5 19z" />
<glyph unicode="&#x22;" horiz-adv-x="860" d="M4 825l234 496h4l207 -72l-338 -424h-107zM373 825l235 496h2l207 -72l-338 -424h-106z" />
<glyph unicode="#" horiz-adv-x="1220" d="M20 358v115h279l88 330h-248v115h279l102 374h121l-100 -374h293l100 374h119l-101 -374h248v-115h-278l-88 -330h247v-115h-278l-98 -370h-119l98 370h-295l-100 -370h-121l100 370h-248zM420 473h295l88 330h-295z" />
<glyph unicode="$" d="M98 891q0 180 140.5 298t384.5 118q41 0 59 -2l49 204h125l-51 -215q97 -15 133 -22l111 31v-443h-170l-95 309h-10l-88 -362q218 -66 318 -156.5t100 -249.5q0 -187 -141.5 -310.5t-389.5 -123.5q-61 0 -88 2l-61 -254h-125l63 265q-78 9 -233 45l-12 421h182l84 -342 h10l96 404q-199 58 -295 143.5t-96 239.5zM375 1020q0 -66 46.5 -105.5t147.5 -72.5l82 340h-37q-112 0 -175.5 -45.5t-63.5 -116.5zM516 94q18 -2 57 -2q125 0 182.5 50.5t57.5 131.5q0 74 -49.5 118.5t-157.5 80.5z" />
<glyph unicode="%" horiz-adv-x="1527" d="M35 987q0 144 93.5 243t246.5 99q154 0 247 -99t93 -243q0 -142 -93.5 -240t-246.5 -98q-152 0 -246 98.5t-94 239.5zM135 987q0 -101 66 -173.5t174 -72.5t173.5 72.5t65.5 173.5q0 106 -65 178t-174 72t-174.5 -72t-65.5 -178zM190 -31l1039 1340h110l-1038 -1340h-111 zM813 291q0 142 93.5 240t246.5 98q152 0 246 -98.5t94 -239.5q0 -144 -93.5 -243t-246.5 -99q-154 0 -247 99t-93 243zM913 291q0 -106 65.5 -178t174.5 -72t174.5 72t65.5 178q0 101 -66 173.5t-174 72.5t-174 -72.5t-66 -173.5z" />
<glyph unicode="&#x26;" horiz-adv-x="1513" d="M53 297q0 129 89 227t210 131q-209 118 -209 322q0 141 135.5 236.5t333.5 95.5q161 0 270 -68.5t109 -191.5q0 -60 -26 -111.5t-67.5 -84.5t-88.5 -54t-94 -27q180 -89 307 -266l65 80q36 43 44 73t-5 45t-45 25l-65 21l-6 88h467l-7 -88l-77 -21q-49 -12 -115 -86 l-207 -223q11 -20 32.5 -65.5t37.5 -73.5t42 -61t61 -49.5t79 -16.5q89 0 162 41l31 -43q-79 -77 -120 -106q-113 -79 -249 -79q-102 0 -181.5 53t-125.5 158q-92 -103 -190 -157t-234 -54q-159 0 -261 94t-102 236zM350 418q0 -106 65 -174t171 -68q58 0 123 25.5t100 58.5 q-60 134 -153.5 217t-231.5 141q-35 -38 -54.5 -91.5t-19.5 -108.5zM436 1061q0 -157 203 -252q72 80 72 221q0 77 -38.5 130.5t-101.5 53.5q-61 0 -98 -44t-37 -109z" />
<glyph unicode="'" horiz-adv-x="491" d="M4 825l236 496h2l207 -72l-338 -424h-107z" />
<glyph unicode="(" horiz-adv-x="808" d="M180 481q0 143 36 278t93.5 238t132.5 191.5t148 147t145 94.5l60 -87q-66 -35 -132.5 -91t-132 -138t-115.5 -176t-81 -213.5t-31 -243.5q0 -154 46.5 -299.5t121 -253.5t158 -186t166.5 -121l-60 -88q-72 36 -145 93.5t-148 146t-132.5 191.5t-93.5 238.5t-36 278.5z " />
<glyph unicode=")" horiz-adv-x="808" d="M16 -383q83 45 165.5 123.5t157 187t121 254t46.5 299.5q0 124 -31 243.5t-81 213.5t-115.5 176t-131.5 138t-131 91l62 87q71 -36 143.5 -94.5t146.5 -147t131.5 -191.5t93.5 -238t36 -278t-36 -278.5t-93.5 -238.5t-131.5 -191.5t-146.5 -146t-143.5 -93.5z" />
<glyph unicode="*" horiz-adv-x="735" d="M70 758l10 127l242 65v43l-242 66l-10 127l30 35l125 12l115 -219l33 10l-17 250l115 51l43 -16l53 -107l-170 -188l21 -27l229 98l88 -92v-45l-88 -90l-229 98l-21 -26l170 -189l-53 -106l-43 -17l-115 52l15 254l-31 8l-115 -221l-125 12z" />
<glyph unicode="+" horiz-adv-x="983" d="M55 420l6 125h369v370h125v-370h367l6 -125h-373v-371h-125v371h-375z" />
<glyph unicode="," horiz-adv-x="475" d="M27 143q0 64 50 117t128 53q101 0 167 -73t66 -179q0 -246 -344 -458l-65 67q105 70 153.5 131.5t48.5 139.5q0 41 -21 75.5t-51 55.5t-60 36t-51 23.5t-21 11.5z" />
<glyph unicode="-" horiz-adv-x="692" d="M68 453l6 137h549l6 -137h-561z" />
<glyph unicode="." horiz-adv-x="475" d="M57 147q0 75 53 129t128 54q74 0 127 -54.5t53 -128.5t-52.5 -127t-127.5 -53t-128 52.5t-53 127.5z" />
<glyph unicode="/" horiz-adv-x="571" d="M4 -362l445 1796h114l-444 -1796h-115z" />
<glyph unicode="0" d="M84 489q0 236 142.5 383.5t367.5 147.5q227 0 368.5 -145.5t141.5 -380.5q0 -234 -143.5 -379.5t-370.5 -145.5q-225 0 -365.5 143t-140.5 377zM295 494q0 -141 83.5 -232.5t215.5 -91.5q133 0 216 89t83 230q0 142 -85 235t-218 93q-131 0 -213 -90.5t-82 -232.5z" />
<glyph unicode="1" horiz-adv-x="784" d="M49 817l6 78l520 137v-864q0 -39 48 -47l116 -23l6 -98h-645l6 98l111 23q47 8 47 47v627z" />
<glyph unicode="2" horiz-adv-x="1040" d="M63 170q218 156 254 184q152 119 189 207q16 39 16 76q0 77 -50.5 128.5t-121.5 51.5q-70 0 -120 -35.5t-109 -111.5l-49 26q31 109 105 184.5t160.5 107.5t182.5 32q145 0 237.5 -73.5t92.5 -194.5q0 -37 -14 -74.5t-36 -70t-58.5 -68t-72 -64t-86.5 -64t-91.5 -61.5 t-98.5 -63.5t-96 -63.5v-10h139q183 0 254.5 3.5t103.5 14.5t48 39l51 92h88l-33 -362h-868z" />
<glyph unicode="3" horiz-adv-x="927" d="M12 -199q0 56 37.5 94.5t91.5 38.5q57 0 97 -39t57 -89.5t20 -108.5h13q105 0 179.5 75t74.5 203q0 115 -67 184.5t-173 69.5q-73 0 -168 -36l-31 79l1 1h1l1 1h1l1 1l1 1h1l1 1l1 1h1l1 1h1l1 1l1 1h1l1 1h1l1 1l1 1h1l2 1q178 109 236 158q100 85 105 180v12 q0 74 -57 128t-136 54q-133 0 -247 -147l-50 26q30 104 106.5 180t165.5 110t179 34q148 0 246 -76t98 -184q0 -50 -17.5 -94.5t-44.5 -79.5t-72 -71.5t-88.5 -63.5t-105.5 -62v-10q172 6 286 -84t114 -236q0 -139 -75.5 -247t-201.5 -165t-280 -57q-137 0 -225.5 57.5 t-88.5 153.5z" />
<glyph unicode="4" horiz-adv-x="1161" d="M35 106l637 902h223v-820h256l-14 -170h-242v-395h-289v395h-559zM215 188h391v539h-12z" />
<glyph unicode="5" horiz-adv-x="962" d="M-12 -193q0 57 37 96.5t92 39.5q68 0 114 -60.5t52 -163.5q3 -1 18.5 -8t21.5 -9t22 -4.5t36 -2.5q86 0 148.5 74t62.5 174q0 146 -118.5 236.5t-379.5 146.5l162 663h618l-6 -252h-553l-45 -178q298 -68 440 -190t142 -281q0 -80 -32 -156.5t-87 -137t-123.5 -106.5 t-145.5 -71t-149 -25q-153 0 -240 54.5t-87 160.5z" />
<glyph unicode="6" horiz-adv-x="1157" d="M78 526q0 170 65.5 322t183 267.5t289.5 189.5t375 88l41 -90q-132 -19 -245 -74t-190 -131t-126.5 -161.5t-69.5 -174.5l9 -8q145 108 305 108q151 0 255.5 -112t104.5 -299q0 -97 -42 -187t-110.5 -154t-160 -102.5t-187.5 -38.5q-218 0 -357.5 154t-139.5 403z M412 522q0 -78 12.5 -153.5t36 -138.5t62 -101.5t85.5 -38.5q142 0 142 272q0 159 -60 242.5t-155 83.5q-69 0 -115 -39q-8 -58 -8 -127z" />
<glyph unicode="7" horiz-adv-x="1075" d="M57 567l56 422h911l10 -78l-645 -1288h-186l604 1133v2h-205q-129 0 -200 -2.5t-111 -12t-52.5 -20t-25.5 -33.5l-68 -123h-88z" />
<glyph unicode="8" horiz-adv-x="1146" d="M86 297q2 98 70.5 179t193.5 112v2q-44 24 -75 44.5t-66.5 52.5t-57.5 64.5t-36 78.5t-13 98q1 54 19 107.5t56 103.5t92 88t134 61t175 23q204 0 331.5 -88.5t124.5 -237.5q-1 -98 -70.5 -165.5t-193.5 -100.5v-2q60 -32 104.5 -62.5t91.5 -75t71.5 -102t23.5 -123.5 q-2 -103 -61 -189.5t-174.5 -141t-266.5 -54.5q-97 0 -182.5 21.5t-151 62t-103 103.5t-36.5 141zM365 1055q0 -27 4 -51.5t16 -45.5t22.5 -37t33 -34t36 -28.5t44 -26.5t44.5 -23t50 -24t49 -23q81 70 84 188q2 112 -55.5 186t-151.5 74q-80 0 -128 -45.5t-48 -109.5z M373 332q-2 -113 61 -187.5t168 -74.5q85 0 139 42.5t54 108.5q0 26 -5 50.5t-13.5 44.5t-24 39.5t-29 34t-36.5 30.5t-39.5 26.5t-45 25.5t-45.5 23t-48 22.5t-46 21.5q-87 -77 -90 -207z" />
<glyph unicode="9" horiz-adv-x="1157" d="M72 539q0 97 41.5 187t110 154t160 102t187.5 38q218 0 358 -154t140 -403q0 -170 -65.5 -322t-183 -267.5t-289.5 -189t-375 -87.5l-41 90q132 19 245 74t189.5 130.5t126 161t69.5 174.5l-8 9q-146 -109 -305 -109q-151 0 -255.5 112.5t-104.5 299.5zM397 627 q0 -159 60 -242.5t155 -83.5q69 0 115 39q8 58 8 127q0 78 -12.5 153.5t-36 138.5t-62 101.5t-85.5 38.5q-142 0 -142 -272z" />
<glyph unicode=":" horiz-adv-x="475" d="M57 150q0 75 53 128.5t128 53.5q74 0 127 -54t53 -128t-52.5 -127.5t-127.5 -53.5t-128 53t-53 128zM57 760q0 75 53 128.5t128 53.5q74 0 127 -54t53 -128t-52.5 -127t-127.5 -53t-128 52.5t-53 127.5z" />
<glyph unicode=";" horiz-adv-x="475" d="M27 143q0 64 50 117t128 53q101 0 167 -73t66 -179q0 -246 -344 -458l-65 67q105 70 153.5 131.5t48.5 139.5q0 41 -21 75.5t-51 55.5t-60 36t-51 23.5t-21 11.5zM41 760q0 75 52.5 128.5t127.5 53.5q74 0 127 -54t53 -128t-52.5 -127t-127.5 -53t-127.5 52.5 t-52.5 127.5z" />
<glyph unicode="&#x3c;" horiz-adv-x="983" d="M49 449v63l838 383l31 -113l-664 -299v-2l664 -301l-31 -112z" />
<glyph unicode="=" horiz-adv-x="983" d="M76 246l6 125h819l6 -125h-831zM76 715h831l-6 -125h-819z" />
<glyph unicode="&#x3e;" horiz-adv-x="983" d="M66 180l663 301v2l-663 299l30 113l838 -383v-63l-838 -381z" />
<glyph unicode="?" horiz-adv-x="866" d="M113 1137q0 78 56.5 125t172.5 47q105 0 210.5 -52t177 -147t71.5 -205q0 -60 -12 -105t-30 -74t-54.5 -53.5t-69 -39t-90.5 -35.5q-93 -34 -115 -49q-33 -22 -33 -53q0 -27 54 -107h-107q-67 34 -107 89t-40 112q0 100 68.5 151.5t215.5 92.5q119 33 147 49q33 20 34 43 q0 32 -48.5 56.5t-116 36t-139.5 11.5q-37 0 -178 -18q-29 17 -48 53.5t-19 71.5zM238 129q0 69 47.5 116.5t113.5 47.5q68 0 115 -48.5t47 -115.5q0 -66 -47 -115t-115 -49q-66 0 -113.5 48.5t-47.5 115.5z" />
<glyph unicode="@" horiz-adv-x="1863" d="M78 489q0 180 68 344.5t185 285t283.5 192t354.5 71.5q174 0 323 -49.5t259 -141t172.5 -230t62.5 -306.5q0 -115 -38 -223.5t-104.5 -191.5t-164 -133t-207.5 -50q-104 0 -194.5 45.5t-90.5 106.5q0 24 15 73.5t39 117t30 87.5h-22q-25 -37 -63.5 -98.5t-60 -94 t-54.5 -75.5t-58.5 -64.5t-59 -37t-69.5 -15.5q-106 0 -173 71t-67 198q0 126 65.5 262t168.5 237q59 59 130 94t134 35q81 0 123.5 -42.5t67.5 -129.5h20l64 172h247l-127 -354l-104 -375q-6 -26 42.5 -51.5t113.5 -25.5q83 0 152.5 64.5t108 168t38.5 219.5 q0 204 -93.5 352t-257.5 222.5t-381 74.5q-212 0 -392 -110t-283 -291.5t-103 -388.5q0 -166 56.5 -306.5t156.5 -237t239.5 -150.5t303.5 -54q123 0 266 43l25 -80q-157 -53 -307 -53q-174 0 -329.5 63.5t-267.5 173t-177.5 262.5t-65.5 324zM709 451q0 -65 25.5 -107.5 t66.5 -42.5q22 0 44.5 13t47.5 42t43.5 54.5t50.5 72.5t51 74l62 170q-32 56 -99.5 94.5t-107.5 38.5q-36 0 -62 -26q-35 -35 -78.5 -164.5t-43.5 -218.5z" />
<glyph unicode="A" horiz-adv-x="1355" d="M-47 0l6 94l43 12q27 8 38.5 12t31.5 14.5t31.5 25.5t30 41t35.5 65t39.5 93.5t49.5 129.5l242 660v96l317 66l389 -1096q16 -43 48 -66t83 -38l49 -15l7 -94h-691l7 94l57 8q70 10 76 54q1 5 1 12q0 47 -40 156l-25 69h-416l-4 -12q-31 -95 -31 -158q0 -21 4 -39 q14 -69 77 -80l55 -10l6 -94h-516zM397 506h346l-157 483h-23z" />
<glyph unicode="B" horiz-adv-x="1331" d="M63 0l7 90l63 8q39 5 54.5 13t15.5 26v1006q0 14 -15.5 22t-68.5 17l-49 8l-7 90h601q294 0 430.5 -69.5t136.5 -219.5q0 -68 -32.5 -124.5t-87.5 -94t-120.5 -61.5t-138.5 -35v-10q85 -11 156 -34.5t130 -62t92.5 -98t33.5 -135.5q0 -79 -33 -138.5t-106 -105t-198 -69 t-300 -23.5h-564zM547 96l84 -14q118 2 191 71.5t73 182.5q0 133 -84.5 201.5t-216.5 68.5h-47v-510zM547 696l82 2q99 3 166 65t67 175q0 110 -67.5 180t-186.5 70h-61v-492z" />
<glyph unicode="C" horiz-adv-x="1509" d="M82 616q0 152 55 281t152 219.5t234 141.5t296 51q97 0 187 -17.5t147 -40.5l213 58v-490h-188l-113 332q-99 45 -205 45q-200 0 -301.5 -145.5t-101.5 -399.5q0 -269 102.5 -421t288.5 -152q111 0 203 39l123 329h202l-35 -446l-165 33q-187 -66 -363 -66 q-221 0 -383.5 71.5t-255 219t-92.5 358.5z" />
<glyph unicode="D" horiz-adv-x="1531" d="M63 0l7 90l63 8q39 5 54.5 13t15.5 26v1006q0 14 -15.5 22t-68.5 17l-49 8l-7 90l607 8h16q348 0 552 -168q210 -172 210 -450q0 -130 -53.5 -250.5t-150.5 -214t-244.5 -149.5t-323.5 -56h-613zM547 117l145 -31q116 5 203 78.5t131.5 192.5t44.5 266q0 263 -112.5 413 t-340.5 150h-71v-1069z" />
<glyph unicode="E" horiz-adv-x="1413" d="M63 0l7 90l63 8q39 5 54.5 13t15.5 26v1006q0 14 -15.5 22t-68.5 17l-49 8l-7 90h1219v-461h-180l-41 142q-15 52 -30 86t-39 59.5t-49 38.5t-69.5 21t-89.5 10t-120 2h-117v-484h47q42 0 72.5 5.5t58.5 25.5t41 55l51 142h133l-51 -549h-127l-24 129q-9 52 -41.5 70 t-120.5 18h-39v-488h141q71 0 116.5 2.5t88 11.5t69 23t51 39.5t42 59.5t35.5 84l40 112h185l-41 -434h-1211z" />
<glyph unicode="F" horiz-adv-x="1302" d="M63 0l7 90l63 8q39 5 54.5 13t15.5 26v1006q0 14 -15.5 22t-68.5 17l-49 8l-7 90h1180v-461h-182l-39 142q-14 51 -29.5 86t-39.5 59.5t-49.5 38.5t-70.5 21.5t-89.5 9.5t-118.5 2h-78v-516h43q67 0 110.5 16.5t61.5 66.5l51 144h133l-51 -549h-127l-25 129 q-9 51 -41 68.5t-120 17.5h-35v-420q0 -16 15.5 -24.5t62.5 -12.5l98 -8l6 -90h-666z" />
<glyph unicode="G" horiz-adv-x="1536" d="M82 621q0 205 98 363t263.5 241.5t369.5 83.5q184 0 326 -58l194 58v-478h-205l-104 322q-79 43 -195 43q-115 0 -200 -71t-127.5 -192t-42.5 -276q0 -283 92.5 -431t267.5 -148q42 0 87 11t71 28v338q0 16 -15 23.5t-63 13.5l-65 8l-7 90h623l-6 -90l-64 -8 q-38 -5 -53.5 -13t-15.5 -26v-275l127 -14l6 -68q-101 -52 -286.5 -90.5t-352.5 -38.5q-341 0 -532 180t-191 474z" />
<glyph unicode="H" horiz-adv-x="1583" d="M63 0l7 90l63 8q39 5 54.5 13t15.5 26v1006q0 14 -15.5 22t-68.5 17l-49 8l-7 90h625l-6 -90l-66 -8q-42 -6 -55.5 -14.5t-13.5 -24.5v-434h489v436q0 15 -14.5 22.5t-63.5 14.5l-55 8l-6 90h625l-6 -90l-66 -8q-39 -5 -54.5 -13t-15.5 -26v-1006q0 -14 15.5 -22 t68.5 -17l52 -8l6 -90h-625l6 90l64 4q69 5 69 43v459h-489v-461q0 -15 14.5 -22.5t63.5 -14.5l57 -8l6 -90h-625z" />
<glyph unicode="I" horiz-adv-x="790" d="M61 0l7 90l86 8q37 3 53 12t16 27v1006q0 15 -16.5 24t-67.5 15l-71 8l-7 90h668l-6 -90l-86 -8q-42 -4 -56 -13.5t-14 -25.5v-1008q0 -16 15.5 -24.5t62.5 -12.5l78 -8l6 -90h-668z" />
<glyph unicode="J" horiz-adv-x="972" d="M0 166q0 62 40.5 100.5t100.5 38.5q74 0 135 -61q65 -65 76 -187h2q49 54 63.5 137.5t14.5 206.5v744q0 16 -15.5 24.5t-62.5 12.5l-96 8l-6 90h663l-6 -90l-61 -8q-39 -5 -54.5 -13t-15.5 -26v-527q0 -147 -22.5 -258t-63 -185t-102 -120.5t-135 -66t-166.5 -19.5 q-123 0 -206 55.5t-83 143.5z" />
<glyph unicode="K" horiz-adv-x="1470" d="M63 0l7 90l63 8q39 5 54.5 13t15.5 26v1006q0 14 -15.5 22t-68.5 17l-49 8l-7 90h625l-6 -90l-66 -8q-42 -6 -55.5 -14.5t-13.5 -24.5v-531l313 340q96 104 96 163q0 40 -43 59l-55 16l-6 90h596l-6 -90l-92 -25q-138 -37 -287 -184l-164 -162l371 -596q64 -101 153 -123 l39 -10l6 -90h-637l7 90l28 14q30 11 30 39q0 23 -19 58l-215 381l-115 -111v-336q0 -15 14.5 -22.5t63.5 -14.5l57 -8l6 -90h-625z" />
<glyph unicode="L" horiz-adv-x="1196" d="M63 0l7 90l63 12q37 3 53.5 12t16.5 27v998q0 16 -16.5 25.5t-67.5 13.5l-49 12l-7 90h621l-6 -90l-62 -12q-41 -3 -55 -12.5t-14 -26.5v-1037h4q73 0 118 2.5t84.5 12.5t60.5 22t42.5 41t35 58.5t34.5 83.5l41 106h184l-39 -428h-1049z" />
<glyph unicode="M" horiz-adv-x="1910" d="M43 0l6 88l98 16q17 2 23.5 5.5t18 22t17.5 56.5t13 110.5t12 182.5l31 604q2 20 -27.5 49t-62.5 35l-96 19l-6 92h653l223 -846h21l243 846h635l-6 -92l-117 -10q-24 -1 -35.5 -21.5t-11.5 -44.5l8 -639q1 -121 7 -197.5t16.5 -111.5t20.5 -46t26 -14l94 -16l6 -88h-659 l6 88l94 16q20 3 30 28q8 26 12 104q2 42 2 108q0 56 -1 129l-12 668h-22l-342 -1100h-259l-296 1075h-23l-35 -635q-7 -135 -9 -206q-1 -20 -1 -38q0 -45 4 -73q5 -40 13 -48.5t26 -11.5l108 -16l7 -88h-453z" />
<glyph unicode="N" horiz-adv-x="1462" d="M20 0l7 90l96 27q12 3 20 8.5t20 29t18.5 63.5t12 117.5t5.5 184.5v549q0 20 -20 41t-44 33l-90 47l-6 90h471l620 -881h21v357q0 108 -4 184.5t-10 117.5t-16 65t-18 30.5t-20 9.5l-120 27l-7 90h496l-6 -90l-96 -27q-13 -3 -21 -9t-19.5 -29.5t-18.5 -64t-12 -118.5 t-5 -186v-770h-273l-659 932h-20v-398q0 -108 4 -184t9.5 -116.5t15.5 -64t18 -29.5t20 -9l121 -27l6 -90h-496z" />
<glyph unicode="O" horiz-adv-x="1589" d="M82 627q0 123 38 231.5t105.5 190t157.5 141t197.5 89.5t222.5 30q327 0 515.5 -179.5t188.5 -480.5q0 -123 -37.5 -231.5t-105 -190t-157 -141t-197 -89.5t-222.5 -30q-327 0 -516.5 180.5t-189.5 479.5zM455 651q0 -275 97.5 -423t250.5 -148q148 0 240 139t92 406 q0 276 -97 423.5t-250 147.5q-148 0 -240.5 -139t-92.5 -406z" />
<glyph unicode="P" horiz-adv-x="1284" d="M63 0l7 90l63 8q39 5 54.5 13t15.5 26v1006q0 14 -15.5 22t-68.5 17l-49 8l-7 90h623q265 0 409 -98.5t144 -270.5q0 -125 -84.5 -222t-216 -146t-283.5 -49q-15 0 -108 6v-365q0 -16 15 -23.5t63 -13.5l73 -8l7 -90h-642zM547 600q62 -8 102 -8q97 0 156 81t59 208 q0 141 -64.5 224t-189.5 83h-63v-588z" />
<glyph unicode="Q" horiz-adv-x="1589" d="M82 627q0 123 38 231.5t105.5 190t157.5 141t197.5 89.5t222.5 30q327 0 515.5 -179.5t188.5 -480.5q0 -232 -124.5 -399.5t-327.5 -237.5q77 -123 223 -190q133 -60 298 -60h30l14 -84q-62 -19 -160.5 -35t-181.5 -16q-144 0 -252.5 38t-189 111t-158.5 195 q-280 32 -438 207.5t-158 448.5zM455 651q0 -275 97.5 -423t250.5 -148q148 0 240 139t92 406q0 276 -97 423.5t-250 147.5q-148 0 -240.5 -139t-92.5 -406z" />
<glyph unicode="R" horiz-adv-x="1361" d="M63 0l7 90l63 8q39 5 54.5 13t15.5 26v1006q0 14 -15.5 22t-68.5 17l-49 8l-7 90h664q255 0 386.5 -86t131.5 -233q0 -246 -293 -353l273 -436q12 -19 20.5 -30t26.5 -24t41 -18l49 -10l6 -90h-461l-88 182l-192 361l-80 2v-410q0 -17 16 -25.5t62 -11.5l30 -8l7 -90 h-599zM547 645l104 -12q219 33 219 272q0 135 -72.5 210t-191.5 75h-59v-545z" />
<glyph unicode="S" d="M98 891q0 180 140.5 298t384.5 118q84 0 147 -7.5t168 -27.5l111 31v-443h-170l-103 299q-76 23 -162 23q-112 0 -175.5 -45.5t-63.5 -116.5q0 -75 61 -117t201 -82q247 -70 357 -161.5t110 -258.5q0 -187 -141.5 -310.5t-389.5 -123.5q-134 0 -229 14t-215 44l-12 421 h182l90 -327q97 -27 184 -27q125 0 182.5 50.5t57.5 131.5q0 87 -68 133.5t-227 92.5q-105 30 -177 61.5t-130 77t-85.5 107.5t-27.5 145z" />
<glyph unicode="T" horiz-adv-x="1355" d="M20 821l43 459h1256v-459h-174l-39 144q-20 72 -45.5 117.5t-59 65.5t-62 26t-71.5 6h-18v-1045q0 -16 15.5 -24.5t62.5 -12.5l78 -8l6 -90h-668l6 90l86 8q37 3 53.5 12t16.5 27v1043h-12q-44 0 -76 -8t-64.5 -30.5t-58 -68t-45.5 -115.5l-39 -137h-191z" />
<glyph unicode="U" horiz-adv-x="1447" d="M41 1280h623l-7 -90l-63 -8q-42 -6 -56 -14.5t-14 -24.5v-690q0 -159 72.5 -256t216.5 -97q163 0 242.5 92t79.5 295v269q0 108 -4 184.5t-10 117.5t-16 65t-18 30.5t-20 9.5l-121 27l-6 90h496l-6 -90l-97 -27q-13 -3 -21 -9t-19.5 -29.5t-18.5 -64t-12 -118.5t-5 -186 v-316q0 -224 -141 -358.5t-381 -134.5q-161 0 -284.5 44.5t-197 138.5t-73.5 226v787q0 14 -15.5 22t-68.5 17l-49 8z" />
<glyph unicode="V" horiz-adv-x="1351" d="M-25 1280h664l-6 -94l-58 -8q-29 -4 -45.5 -12.5t-25 -22t-5.5 -40.5t12 -59.5t28 -87.5l231 -673h31l209 616q32 97 32 161q0 20 -4 37q-14 70 -77 79l-76 10l-6 94h536l-6 -94l-43 -12q-42 -12 -63 -23.5t-51 -52t-61 -112t-81 -204.5l-293 -782h-311l-371 1067 q-15 45 -38 67.5t-68 36.5l-47 15z" />
<glyph unicode="W" horiz-adv-x="2021" d="M-35 1280h688l-6 -94l-67 -8q-50 -6 -58 -57q-2 -11 -2 -26q0 -51 23 -139l186 -686h21l211 672l-33 125q-21 82 -107 104l-59 15l-6 94h688l-6 -94l-68 -8q-54 -6 -62 -54q-1 -9 -1 -21q0 -50 26 -147l172 -684h21l141 510q46 172 46 259q1 17 -1 30q-10 84 -86 105 l-59 10l-8 94h550l-4 -94l-47 -15q-38 -12 -61.5 -24t-49 -36.5t-46.5 -66t-46 -104t-55 -158.5l-250 -782h-288l-213 760h-21l-250 -760h-295l-346 1067q-15 49 -37.5 71.5t-68.5 32.5l-60 15z" />
<glyph unicode="X" horiz-adv-x="1333" d="M-8 0l6 90l88 25q8 2 17 7t17 10t18.5 14.5t18 16t19 18.5t17.5 19t18.5 21t17 19.5t16.5 20.5t15 18l264 309l-278 387q-73 104 -106 144.5t-54 47.5l-72 23l-6 90h668l-6 -90l-52 -14q-26 -8 -38 -26.5t-4.5 -56.5t40.5 -92l117 -188h10l131 180q44 59 54.5 98.5t-5 59 t-53.5 27.5l-51 12l-6 90h490l-7 -90l-88 -25q-19 -5 -51 -33.5t-57.5 -57t-62 -72t-46.5 -54.5l-182 -211l311 -458q59 -88 89 -122.5t57 -43.5l71 -23l6 -90h-663l6 90l49 14q41 12 45 54v6q0 42 -43 115l-143 227h-10l-127 -172q-41 -57 -59 -99q-13 -32 -14 -55 q0 -8 2 -14q6 -26 24 -41t51 -23l51 -12l6 -90h-526z" />
<glyph unicode="Y" horiz-adv-x="1249" d="M-31 1280h639l-6 -94l-61 -12q-43 -8 -43 -57q0 -55 53 -161l158 -317h20l135 246q55 100 72 159q9 32 9 54q0 21 -7 34q-16 29 -64 39l-65 15l-6 94h485l-6 -94l-51 -17q-34 -11 -58.5 -30.5t-67 -79t-108.5 -174.5l-202 -357v-393q0 -16 15 -24.5t62 -12.5l78 -8l6 -90 h-667l6 90l86 8q37 3 53.5 12t16.5 27v369l-332 579q-22 39 -41 57t-49 27l-54 17z" />
<glyph unicode="Z" horiz-adv-x="1310" d="M70 0v111l757 1052v11h-213q-64 0 -103.5 -7.5t-72.5 -30t-54 -62.5t-40 -107l-41 -146h-184v459h1114v-111l-778 -1054v-11l270 -2q54 0 94 5t69.5 19.5t49.5 29.5t37 44t26.5 52t24.5 65l41 115h186l-43 -432h-1140z" />
<glyph unicode="[" horiz-adv-x="753" d="M184 -403v1787h537v-104h-416v-1577h416v-106h-537z" />
<glyph unicode="\" horiz-adv-x="571" d="M6 1434h115l444 -1796h-114z" />
<glyph unicode="]" horiz-adv-x="753" d="M33 -297h416v1577h-416v104h536v-1787h-536v106z" />
<glyph unicode="^" horiz-adv-x="819" d="M84 1065l260 424h131l260 -424h-96l-227 209h-4l-228 -209h-96z" />
<glyph unicode="_" horiz-adv-x="962" d="M-18 -109l6 109h987l6 -109h-999z" />
<glyph unicode="`" horiz-adv-x="817" d="M55 1427h318l198 -362h-137z" />
<glyph unicode="a" horiz-adv-x="1087" d="M61 668q0 69 73 138.5t195 115t251 45.5q79 0 141 -20t111 -63q50 -42 74 -120q21 -67 21 -155q0 -14 -1 -29l-15 -328q-1 -12 -1 -22q0 -39 10 -54q12 -20 45 -20q29 0 92 53l30 -62q-50 -73 -129.5 -128.5t-148.5 -55.5q-33 0 -63.5 10.5t-58.5 32t-46 60t-20 88.5h-11 q-71 -92 -135 -138.5t-147 -46.5q-109 0 -183.5 63t-74.5 179q0 124 131 209.5t415 161.5v14q0 99 -53 162t-153 63q-32 0 -64 -6t-49.5 -13t-17.5 -11q0 -2 9 -12t19.5 -23.5t19.5 -37.5t9 -50q0 -40 -38.5 -77.5t-94.5 -37.5q-62 0 -102 32t-40 83zM352 285q0 -55 37 -83 t92 -28q36 0 72.5 23t52.5 47l6 256q-150 -46 -205 -97t-55 -118z" />
<glyph unicode="b" horiz-adv-x="1206" d="M23 1221l6 67l424 139v-626h10q128 157 289 157q160 0 271.5 -129t111.5 -317q0 -149 -65.5 -272t-190.5 -197t-287 -74q-108 0 -273 62h-2l-143 -74h-33v1130q0 67 -47 93zM453 195q58 -69 101 -97t85 -28q69 0 115.5 90t46.5 252q0 154 -65.5 246t-168.5 92 q-69 0 -114 -29v-526z" />
<glyph unicode="c" horiz-adv-x="1015" d="M70 436q0 150 67.5 271.5t190.5 191.5t280 70q162 0 253 -59.5t91 -161.5q0 -70 -41 -106t-108 -36q-83 0 -124 76q-27 51 -27 107q0 29 7 59v2q-20 12 -55 12q-89 0 -146 -83t-57 -244q0 -166 68.5 -265.5t187.5 -99.5q73 0 142 40t123 109l49 -26q-44 -156 -159.5 -240 t-289.5 -84q-192 0 -322 127.5t-130 339.5z" />
<glyph unicode="d" horiz-adv-x="1218" d="M72 416q0 150 63.5 272t190 196t295.5 74q61 0 129 -12h2v230q0 74 -43 92l-105 45l8 65l451 49v-1222q0 -88 47 -101l72 -22l-6 -68l-424 -45v152h-7q-54 -65 -136 -107.5t-160 -42.5q-171 0 -274 126t-103 319zM406 514q0 -156 58.5 -254t151.5 -98q61 0 136 61v508 q-58 69 -100.5 97t-84.5 28q-69 0 -115 -90t-46 -252z" />
<glyph unicode="e" horiz-adv-x="1032" d="M70 436q0 148 65.5 269.5t186 192.5t272.5 71q102 0 184.5 -36.5t134.5 -112t52 -179.5q0 -55 -13 -115l-555 9v-23q0 -161 69 -251.5t189 -90.5q73 0 142 40t123 109l49 -26q-44 -156 -159.5 -240t-289.5 -84q-192 0 -321 127.5t-129 339.5zM395 606l277 8q1 20 1 38 q0 92 -25 148q-30 66 -85 66q-73 0 -117.5 -65.5t-50.5 -194.5z" />
<glyph unicode="f" horiz-adv-x="735" d="M2 782l12 136h138l4 49q11 129 81.5 234.5t183.5 165.5t245 60q114 0 195 -53t81 -137q0 -66 -42 -105.5t-101 -39.5q-70 0 -112.5 47.5t-70.5 156.5l-2 9l-59 4q-86 -73 -86 -316v-75h281l-15 -146h-266v-643q0 -17 16 -25.5t62 -11.5l59 -4l6 -88h-567l6 88l41 4 q37 3 53.5 12t16.5 27v633z" />
<glyph unicode="g" horiz-adv-x="1058" d="M10 -326q0 83 50.5 133t152.5 84v11q-147 60 -147 190q0 70 56 133t138 80v8q-201 82 -201 295q0 70 24 132.5t72.5 115t133.5 83t196 30.5q152 0 273 -64h317l-8 -190l-180 33v-9q16 -48 16 -82q0 -177 -115 -276.5t-331 -99.5q-47 0 -109 10q-11 -6 -22 -25.5 t-11 -36.5q0 -47 28.5 -66.5t98.5 -19.5q38 0 133 3.5t138 3.5q133 0 221 -81.5t88 -215.5q0 -79 -42.5 -154t-118 -133t-190 -93.5t-249.5 -35.5q-187 0 -299.5 64t-112.5 173zM254 -252q0 -81 73 -136.5t201 -55.5q106 0 183 55t77 131q0 50 -17.5 77t-53.5 46 q-19 10 -86 12t-250 2h-26.5h-25h-28.5q-47 -47 -47 -131zM356 625q0 -168 56 -224q28 -28 65 -28q54 0 82 28q51 51 51 211q0 171 -61 232q-30 30 -66 30q-65 0 -96 -58.5t-31 -190.5z" />
<glyph unicode="h" horiz-adv-x="1218" d="M29 1221l6 67l428 139v-616h10q100 78 181.5 118t162.5 40q100 0 180 -80q78 -78 78 -242v-516q0 -15 16 -23.5t68 -15.5l33 -4l6 -88h-536l6 88l26 4q42 6 56 14.5t14 24.5v377q0 75 -11 124t-34 74t-51.5 34.5t-71.5 9.5q-35 0 -76 -13.5t-57 -27.5v-580 q0 -16 15.5 -24.5t62.5 -12.5l39 -4l6 -88h-551l6 88l41 4q37 3 53.5 12t16.5 27v956q0 68 -48 93z" />
<glyph unicode="i" horiz-adv-x="655" d="M55 776l2 72l428 121v-840q0 -15 14.5 -22.5t63.5 -14.5l29 -4l6 -88h-537l7 88l36 4q39 5 54.5 13t15.5 26v467q0 65 -8.5 97t-24.5 45t-55 26zM135 1257q0 75 52.5 129t127.5 54t130 -54t55 -129t-55 -128.5t-130 -53.5t-127.5 53.5t-52.5 128.5z" />
<glyph unicode="j" horiz-adv-x="620" d="M-186 -375q0 53 39.5 89t89.5 36q118 0 168 -147q49 17 49 358v637q0 65 -8.5 97t-24.5 45t-55 26l-31 10l2 72l428 121v-926q0 -109 -25.5 -203t-69 -162t-101.5 -116.5t-124 -72.5t-135 -24q-94 0 -148 44t-54 116zM121 1257q0 75 52.5 129t127.5 54t129.5 -54 t54.5 -129t-54.5 -128.5t-129.5 -53.5t-127.5 53.5t-52.5 128.5z" />
<glyph unicode="k" horiz-adv-x="1163" d="M29 1221l6 67l428 139v-938l22 21q148 134 185 176q47 55 47 92q0 27 -20.5 45t-47.5 23l-12 2l-6 90h497l-6 -90l-55 -14q-126 -32 -297 -203l-14 -15l254 -434q24 -40 46.5 -57t65.5 -31l19 -6l6 -88h-399l-82 184l-129 256l-74 -71v-240q0 -16 13.5 -23.5t53.5 -13.5 l29 -4l6 -88h-530l6 88l41 4q37 3 53.5 12t16.5 27v956q0 68 -48 93z" />
<glyph unicode="l" horiz-adv-x="634" d="M43 1221l6 67l424 139v-1298q0 -15 14.5 -22.5t63.5 -14.5l27 -4l6 -88h-535l6 88l37 4q39 5 54.5 13t15.5 26v956q0 67 -47 93z" />
<glyph unicode="m" horiz-adv-x="1822" d="M43 776l2 72l428 121v-156h10q99 79 178 117.5t160 38.5q102 0 180 -78q35 -35 56 -90h8q174 168 360 168q103 0 181 -78q75 -75 75 -242v-518q0 -15 16 -23.5t68 -15.5l33 -4l6 -88h-536l6 88l26 4q42 6 56 14.5t14 24.5v377q0 75 -11.5 124t-35 74t-51.5 34.5t-68 9.5 q-68 0 -127 -41v-578q0 -14 15.5 -22t68.5 -17l25 -4l6 -88h-528l8 88l24 4q41 3 55.5 12.5t14.5 26.5v377q0 75 -11.5 124t-35 74t-51.5 34.5t-68 9.5q-68 0 -127 -41v-580q0 -15 14.5 -22.5t63.5 -14.5l27 -4l6 -88h-539l6 88l41 4q37 3 53.5 12t16.5 27v467q0 65 -8.5 97 t-24.5 45t-55 26z" />
<glyph unicode="n" horiz-adv-x="1226" d="M43 776l2 72l428 121v-158h10q100 78 181.5 118t162.5 40q101 0 181 -80q77 -77 77 -242v-516q0 -15 16 -23.5t68 -15.5l33 -4l6 -88h-536l6 88l27 4q42 6 55.5 14.5t13.5 24.5v377q0 75 -11 124t-34 74t-51.5 34.5t-71.5 9.5q-35 0 -76 -13.5t-57 -27.5v-580 q0 -16 15.5 -24.5t62.5 -12.5l39 -4l6 -88h-551l6 88l41 4q37 3 53.5 12t16.5 27v467q0 65 -8.5 97t-24.5 45t-55 26z" />
<glyph unicode="o" d="M74 459q0 214 155 362t389 148q116 0 211.5 -40t157 -108t94.5 -157t33 -189q0 -214 -154 -360t-389 -146q-154 0 -269 68t-171.5 178t-56.5 244zM418 506q0 -165 15.5 -257.5t62.5 -139.5q37 -37 100 -37q80 0 127 99t47 257q0 140 -22 243t-62 146q-45 45 -96 45 q-79 0 -125.5 -96t-46.5 -260z" />
<glyph unicode="p" horiz-adv-x="1214" d="M18 -504l7 88l57 4q37 3 53.5 12t16.5 27v971q0 65 -8.5 97t-25 45t-55.5 26l-30 10l2 72l428 121v-168h10q128 157 289 157q160 0 271.5 -129t111.5 -317q0 -148 -65.5 -271.5t-186 -197.5t-272.5 -74q-83 0 -152 25h-6v-369q0 -17 16 -25.5t62 -11.5l59 -4l6 -88h-588z M463 195q58 -69 101 -97t85 -28q69 0 115.5 90t46.5 252q0 154 -65 246t-168 92q-70 0 -115 -29v-526z" />
<glyph unicode="q" horiz-adv-x="1200" d="M72 416q0 150 63.5 272t190 196t295.5 74q131 0 245 -53h2l174 62h21v-1342q0 -16 15.5 -24.5t62.5 -12.5l39 -4l4 -88h-586l6 88l78 4q70 3 70 39v494h-7q-54 -65 -136 -107.5t-160 -42.5q-171 0 -274 126t-103 319zM406 514q0 -156 58.5 -254t151.5 -98q25 0 64.5 17.5 t71.5 43.5v508q-58 69 -100.5 97t-84.5 28q-69 0 -115 -90t-46 -252z" />
<glyph unicode="r" horiz-adv-x="903" d="M43 776l2 72l428 121v-252h10q32 57 57 94.5t59.5 77.5t73 60t81.5 20q77 0 122.5 -45t45.5 -127q0 -62 -39 -108t-97 -46q-100 0 -153 94q-104 -75 -160 -155v-453q0 -17 16 -25.5t62 -11.5l59 -4l6 -88h-567l6 88l37 4q39 5 54.5 13t15.5 26v467q0 65 -8.5 97t-24.5 45 t-55 26z" />
<glyph unicode="s" horiz-adv-x="935" d="M68 297h174l53 -191q99 -32 145 -32q84 0 130 36t46 95q0 18 -6 33t-21.5 28.5t-27.5 22.5t-39.5 20.5t-41.5 16.5t-50 17.5t-49 16.5q-57 20 -95.5 36.5t-80.5 43t-67 56.5t-41.5 74.5t-16.5 99.5q0 136 107 217.5t290 81.5q130 0 238 -33l116 20l9 -315h-158l-70 188 q-68 33 -131 33q-69 0 -109 -31t-40 -81q0 -32 12 -54.5t39.5 -39t59.5 -29.5t84 -30q5 -1 7.5 -2t7 -2.5l7.5 -2.5q60 -21 98.5 -36.5t85 -42.5t73.5 -57t45.5 -75t18.5 -100q0 -137 -116.5 -223.5t-323.5 -86.5q-92 0 -190 14.5t-164 41.5z" />
<glyph unicode="t" horiz-adv-x="798" d="M0 782l6 82l158 148l158 149l127 -12l-3 -231h332l-14 -146h-320l-4 -393v-5q0 -114 42 -160q44 -48 122 -48q98 0 174 37l6 -68q-62 -75 -155 -120.5t-203 -45.5q-138 0 -209 80t-70 234l7 481z" />
<glyph unicode="u" horiz-adv-x="1208" d="M18 938h441l-6 -508v-12q0 -66 10 -111q11 -49 34 -74.5t52 -35t72 -9.5q35 0 76 13.5t57 27.5v580q0 16 -15.5 24.5t-62.5 12.5l-39 4l-8 88h436v-733q0 -88 47 -101l72 -22l-6 -68l-424 -45v158h-11q-100 -78 -181.5 -118t-162.5 -40q-100 0 -180 80q-78 78 -78 242 v516q0 15 -16 23.5t-68 15.5l-32 4z" />
<glyph unicode="v" horiz-adv-x="1038" d="M-27 938h566l-7 -88l-71 -25q-21 -7 -25 -28t4 -54l170 -507l178 497q9 27 9 46q0 34 -29 44l-80 27l-6 88h397l-6 -88l-67 -10q-53 -7 -86 -95l-289 -763h-221l-299 778q-22 55 -78 67l-53 23z" />
<glyph unicode="w" horiz-adv-x="1609" d="M-29 938h566l-7 -88l-71 -25q-29 -10 -29 -44q0 -16 6 -38l148 -505l155 510l-4 12q-16 46 -78 67l-59 23l-6 88h569l-6 -88l-72 -25q-28 -9 -28 -44q0 -16 6 -38l147 -505l152 493q8 24 8 43q0 37 -31 51l-69 25l-6 88h387l-7 -88l-67 -21q-27 -8 -51.5 -30.5 t-34.5 -53.5l-260 -763h-215l-215 604l-193 -604h-217l-283 778q-17 45 -77 69l-52 21z" />
<glyph unicode="x" horiz-adv-x="1048" d="M-18 0l6 88l61 21q66 20 123 86l211 243l-240 322q-43 54 -84 69l-51 21l-4 88h578l-7 -88l-18 -4q-43 -10 -49 -32l-2 -8q0 -23 26 -65l93 -145h10l106 135q35 44 35 72q0 31 -41 45l-6 2l-6 88h358l-6 -88l-61 -21q-67 -21 -123 -86l-199 -231l248 -334q28 -35 94 -69 l41 -21l4 -88h-577l8 88l18 4q44 10 50 32q1 4 1 8q0 23 -26 65l-102 159h-11l-116 -149q-35 -44 -35 -72q0 -31 41 -45l6 -2l4 -88h-358z" />
<glyph unicode="y" horiz-adv-x="1038" d="M-27 938h566l-7 -88l-71 -25q-30 -10 -30 -41q0 -17 9 -41l187 -483l166 473q9 25 9 43q0 36 -34 47l-80 27l-6 88h397l-6 -88l-67 -10q-53 -7 -86 -95l-252 -653l-131 -375q-46 -133 -114 -193.5t-163 -60.5q-70 0 -122 41.5t-52 102.5q0 55 34.5 95t94.5 40 q52 0 90 -31.5t51 -72.5q28 10 50.5 45.5t46.5 115.5l22 76v21l-364 864q-10 25 -28 39.5t-50 27.5l-53 23z" />
<glyph unicode="z" horiz-adv-x="1050" d="M51 0v88l565 746l-116 -5q-62 -2 -97 -8t-59 -24t-35.5 -38.5t-29.5 -64.5l-60 -147h-129v391h889v-88l-576 -746l150 5q38 1 66 3t51.5 7.5t38.5 9t30.5 15t23.5 17.5t20 25t18 29t20 37l80 147h133l-92 -399h-891z" />
<glyph unicode="{" horiz-adv-x="741" d="M55 492l23 67q139 23 190 59t51 111q0 44 -50 175t-50 198q0 137 117 219.5t362 91.5v-82q-114 -10 -156 -50t-42 -116q0 -49 25 -118t50 -144t25 -137q0 -97 -91 -167t-278 -97v-23q186 -25 277.5 -96.5t91.5 -169.5q0 -62 -25 -137t-50 -144.5t-25 -119.5 q0 -76 42 -115t156 -49v-82q-245 9 -362 91.5t-117 219.5q0 67 50 198t50 175q0 54 -16 83.5t-68.5 51.5t-156.5 35z" />
<glyph unicode="|" horiz-adv-x="563" d="M227 -322v1797h109v-1797h-109z" />
<glyph unicode="}" horiz-adv-x="741" d="M57 -352q114 10 156.5 49.5t42.5 114.5q0 50 -25 119.5t-50 144.5t-25 137q0 98 90.5 169.5t275.5 96.5v23q-186 27 -276 97t-90 167q0 62 25 137t50 144t25 118q0 76 -42.5 116t-156.5 50v82q244 -9 361 -91.5t117 -219.5q0 -67 -50.5 -198t-50.5 -175q0 -75 51 -111 t191 -59l22 -67l-22 -72q-103 -13 -156 -35t-69.5 -51.5t-16.5 -83.5q0 -44 50.5 -175t50.5 -198q0 -137 -117 -219.5t-361 -91.5v82z" />
<glyph unicode="~" horiz-adv-x="819" d="M33 383q17 165 72 233t153 68q48 0 111 -34t119 -68.5t87 -34.5q35 0 55.5 28.5t39.5 90.5h116q-14 -165 -70 -233t-155 -68q-48 0 -113 34.5t-123 69.5t-89 35q-22 0 -36.5 -14.5t-21 -34t-17.5 -60.5l-3 -12h-125z" />
<glyph unicode="&#xa1;" horiz-adv-x="622" d="M152 1147q0 66 47 114t114 48t114.5 -47.5t47.5 -114.5q0 -68 -47.5 -116t-114.5 -48t-114 48.5t-47 115.5zM154 94l129 760q3 19 30.5 19t30.5 -19l129 -760q10 -58 -36.5 -92.5t-121.5 -34.5h-4q-74 0 -120 35t-37 92z" />
<glyph unicode="&#xa2;" horiz-adv-x="985" d="M72 457q0 149 70.5 266.5t192.5 181.5t273 64q31 0 45 -2l84 336h115l-86 -353q91 -23 139.5 -75.5t48.5 -126.5q0 -56 -37.5 -95t-91.5 -39q-90 0 -123 78l-124 -506q43 -16 90 -16q68 0 141 40t125 107l43 -26q-40 -141 -159.5 -232.5t-285.5 -91.5h-10l-76 -305h-114 l80 320q-154 39 -247 165t-93 310zM403 535q0 -175 76 -277l148 600q-8 2 -23 2q-89 0 -145 -82t-56 -243z" />
<glyph unicode="&#xa3;" horiz-adv-x="1181" d="M86 70q124 23 181 94.5t57 204.5q0 20 -3 69.5t-4 81.5h-229l6 105h219q-2 37 -2 125q0 240 137.5 389t385.5 149q132 0 200 -50t68 -138q0 -63 -41.5 -103.5t-99.5 -40.5q-72 0 -109.5 62.5t-15.5 144.5q-27 31 -78 31q-30 0 -53 -13.5t-43 -46t-30.5 -97t-10.5 -158.5 q0 -20 1 -84.5t1 -104.5v-65h280l6 -105h-291q-15 -223 -69 -293l-2 -10q174 -33 256 -33q130 0 184 54q46 46 66 137l61 -17q32 -193 -40.5 -300t-227.5 -107q-63 0 -129 25t-105.5 51.5t-86.5 63.5t-54 42q-68 -67 -165 -116.5t-187 -69.5z" />
<glyph unicode="&#xa4;" horiz-adv-x="890" d="M59 1032l91 90l118 -118q74 49 178 49t183 -52l112 113l88 -88l-114 -115q45 -76 45 -176q0 -91 -47 -176l127 -127l-90 -90l-125 125q-74 -49 -179 -49q-93 0 -178 47l-114 -115l-88 88l114 115q-49 76 -49 182q0 102 47 178zM252 735q0 -80 53.5 -139t140.5 -59 q86 0 139.5 59t53.5 139q0 81 -53.5 140t-139.5 59q-87 0 -140.5 -58.5t-53.5 -140.5z" />
<glyph unicode="&#xa5;" horiz-adv-x="1253" d="M-6 1280h629l-7 -92l-57 -12q-36 -6 -32.5 -62.5t48.5 -148.5l146 -295h10l135 245q40 74 59 117t22.5 76t-13 48.5t-55.5 23.5l-43 8l-7 92h441l-6 -92l-47 -14q-40 -13 -65.5 -31.5t-64.5 -71t-100 -156.5l-170 -290h322l6 -105h-354v-155h348l6 -105h-346v-100 q0 -41 47 -49l110 -23l7 -88h-652l6 88l111 23q47 8 47 49v100h-346l6 105h348v155h-354l6 105h303l-293 485q-15 25 -29 36.5t-40 18.5l-76 23z" />
<glyph unicode="&#xa6;" horiz-adv-x="563" d="M227 -285v686h109v-686h-109zM227 629v686h109v-686h-109z" />
<glyph unicode="&#xa7;" horiz-adv-x="983" d="M61 582q0 166 162 262q-78 75 -78 164q0 121 109.5 211t275.5 90q139 0 214 -47.5t75 -128.5q0 -59 -38 -96.5t-93 -37.5q-64 0 -106.5 55t-44.5 132q-42 22 -103 22q-51 0 -76.5 -31.5t-25.5 -76.5q0 -13 4 -25.5t14 -24t19.5 -21.5t28 -21.5t32 -20t38.5 -20.5 t40 -19.5t44.5 -21.5t45.5 -21q156 -74 213 -115q117 -84 117 -188q0 -164 -162 -264q78 -71 78 -162q0 -121 -114.5 -215t-280.5 -94q-141 0 -226.5 48t-85.5 128q0 59 38 96t93 37q69 0 130.5 -57.5t62.5 -132.5q49 -19 84 -19q52 0 82 34.5t30 82.5q0 13 -4 25.5t-14 24 t-19.5 21.5t-28 21.5t-32 20t-38.5 20.5t-40 19.5t-44.5 21.5t-45.5 21q-155 74 -212 114q-119 84 -118 189zM233 713q0 -62 51 -104t158 -95q14 -7 120 -53.5t153 -79.5q41 35 41 90q0 62 -51 104t-158 95q-14 7 -120 53.5t-153 79.5q-41 -35 -41 -90z" />
<glyph unicode="&#xa8;" horiz-adv-x="819" d="M29 1239q0 64 40 110t107 46q68 0 107 -45.5t39 -110.5t-39 -109.5t-107 -44.5q-67 0 -107 45t-40 109zM500 1239q0 65 38.5 110.5t104.5 45.5q68 0 108 -45.5t40 -110.5q0 -64 -40 -109t-108 -45q-66 0 -104.5 44.5t-38.5 109.5z" />
<glyph unicode="&#xa9;" horiz-adv-x="1640" d="M61 637q0 156 60 297t161.5 243t242.5 162t296 60t295.5 -60t241.5 -162t161 -243.5t60 -296.5t-60 -296t-161 -242.5t-241.5 -161.5t-295.5 -60q-156 0 -296.5 60t-242 161.5t-161.5 242t-60 296.5zM152 637q0 -136 53 -260.5t142 -215t213.5 -144.5t260.5 -54 q181 0 335 91t243.5 246t89.5 337t-89.5 337.5t-243.5 247t-335 91.5q-136 0 -260.5 -54t-213.5 -145t-142 -216t-53 -261zM395 641q0 176 132 293t313 117q105 0 190 -35l121 33v-297h-119l-61 198q-50 33 -137 33q-107 0 -169.5 -83.5t-62.5 -246.5q0 -152 66 -260 t180 -108q65 0 108 24l74 203h127l-22 -272l-95 20q-40 -18 -98.5 -29.5t-105.5 -11.5q-115 0 -202 34.5t-138 95t-76 134t-25 158.5z" />
<glyph unicode="&#xaa;" horiz-adv-x="813" d="M80 754q0 183 397 243l4 50q6 67 -35 111t-108 44q-20 0 -40 -5.5t-31 -11.5t-11 -9q0 -2 9 -14t18.5 -31t9.5 -37q0 -38 -29.5 -64t-73.5 -26q-48 0 -79 25.5t-31 72.5q0 48 63 97t154.5 79.5t173.5 30.5q101 0 172 -56.5t68 -148.5l-13 -307q-2 -49 10.5 -70.5 t45.5 -21.5q35 0 71 22l6 -57q-31 -36 -86 -64t-112 -28q-127 0 -150 127h-10q-105 -127 -217 -127q-70 0 -123 49t-53 127zM305 815q0 -41 22 -68.5t56 -27.5q43 0 90 47l4 174q-85 -13 -128.5 -46t-43.5 -79z" />
<glyph unicode="&#xab;" horiz-adv-x="1044" d="M39 379v147l487 299l27 -45l-281 -327l281 -328l-27 -45zM489 379v147l510 322l29 -45l-328 -350l328 -351l-29 -45z" />
<glyph unicode="&#xac;" horiz-adv-x="983" d="M72 516l6 125h833v-442h-125v317h-714z" />
<glyph unicode="&#xad;" horiz-adv-x="692" d="M68 453l6 137h549l6 -137h-561z" />
<glyph unicode="&#xae;" horiz-adv-x="1642" d="M61 643q0 155 60 295.5t161.5 242.5t242.5 162t296 60t296 -60t242.5 -162t161.5 -242.5t60 -295.5q0 -156 -60 -296.5t-161.5 -242t-242 -161.5t-296.5 -60t-296.5 60t-242 161.5t-161.5 242t-60 296.5zM152 643q0 -137 53 -261.5t142.5 -215t213.5 -144t260 -53.5 q182 0 336.5 90.5t244 245.5t89.5 338q0 182 -89.5 337.5t-244 247t-336.5 91.5q-181 0 -335.5 -91.5t-244 -247t-89.5 -337.5zM440 246l6 73l58 15q31 8 31 28v556q0 22 -31 30l-58 15l-6 75h414q155 0 232 -55.5t77 -144.5q0 -162 -192 -215l176 -258q6 -9 16 -14.5 t20.5 -9.5t14.5 -7l25 -15l6 -73h-254l-47 88l-148 250l-47 4v-226q0 -18 29 -28l43 -15l8 -73h-373zM733 659l66 -8q155 7 155 150q0 79 -49 123.5t-121 44.5h-51v-310z" />
<glyph unicode="&#xaf;" horiz-adv-x="819" d="M63 1128l19 152h655l19 -152h-693z" />
<glyph unicode="&#xb0;" horiz-adv-x="839" d="M80 987q0 144 93.5 243t246.5 99q154 0 247 -99t93 -243q0 -142 -93.5 -240t-246.5 -98q-152 0 -246 98.5t-94 239.5zM180 987q0 -101 66 -173.5t174 -72.5t173.5 72.5t65.5 173.5q0 106 -65 178t-174 72t-174.5 -72t-65.5 -178z" />
<glyph unicode="&#xb1;" horiz-adv-x="983" d="M63 479l7 125h360v330h125v-330h358l7 -125h-365v-325h-125v325h-367zM66 0l6 125h839l7 -125h-852z" />
<glyph unicode="&#xb2;" horiz-adv-x="675" d="M16 1149q57 91 140 148t182 57q126 0 195 -60t69 -168q0 -38 -17 -74.5t-42.5 -68.5t-81.5 -78t-105.5 -82t-142.5 -102v-8h86q203 0 219 3q19 2 25 13l37 59h59l-53 -229h-551l-12 84q36 35 87 81.5t83.5 75.5t69.5 68t58 70.5t35.5 70t14.5 78.5q0 48 -36.5 78.5 t-94.5 30.5q-90 0 -205 -82z" />
<glyph unicode="&#xb3;" horiz-adv-x="675" d="M12 1145q58 93 150.5 151t210.5 58q102 0 164.5 -47.5t62.5 -112.5q0 -42 -21.5 -77t-62 -62t-84 -46t-102.5 -38v-8q52 17 104.5 12.5t95 -22.5t69 -57.5t26.5 -92.5q0 -111 -104.5 -193t-256.5 -82q-94 0 -166.5 41t-72.5 109q0 37 27 65.5t65 28.5q28 0 49.5 -11.5 t34 -29.5t21.5 -42t12 -46t4 -45h20q54 0 93.5 48.5t39.5 123.5q0 58 -34.5 99.5t-82.5 41.5q-24 0 -73 -24l-31 51q18 11 53.5 30.5t55 32t42.5 30.5t33.5 37.5t10.5 41.5q0 43 -33.5 66.5t-81.5 23.5q-120 0 -205 -98z" />
<glyph unicode="&#xb4;" horiz-adv-x="817" d="M248 1065l198 362h316l-379 -362h-135z" />
<glyph unicode="&#xb5;" horiz-adv-x="1208" d="M18 938h441l-6 -592q-3 -158 161 -158q69 0 140 64v557q0 16 -15.5 24.5t-62.5 12.5l-39 4l-8 88h436v-733q0 -88 47 -101l72 -22l-6 -68l-424 -45v123h-11q-79 -123 -190 -123q-107 0 -164 125h-12l33 -583l-295 -15l26 795v516q0 15 -16 23.5t-68 15.5l-32 4z" />
<glyph unicode="&#xb6;" horiz-adv-x="976" d="M43 881q0 205 139.5 302t421.5 97h252v-1346h-154v566q-77 -15 -137 -15q-249 0 -385.5 109t-136.5 287z" />
<glyph unicode="&#xb7;" horiz-adv-x="475" d="M57 512q0 75 53 128.5t128 53.5q74 0 127 -54t53 -128t-52.5 -127t-127.5 -53t-128 52.5t-53 127.5z" />
<glyph unicode="&#xb8;" horiz-adv-x="819" d="M160 -211l248 254h116l-151 -149q135 -8 213 -60.5t78 -140.5q0 -117 -132.5 -187.5t-345.5 -78.5l-22 61q155 17 239 58t84 100q0 47 -44 74.5t-128 27.5q-87 0 -155 -16v57z" />
<glyph unicode="&#xb9;" horiz-adv-x="675" d="M84 559l4 74l109 16q30 12 30 29v498l-143 16l4 51l383 121v-686q0 -24 31 -29l84 -16l4 -74h-506z" />
<glyph unicode="&#xba;" horiz-adv-x="872" d="M68 938q0 158 103 264.5t271 106.5t265.5 -104t97.5 -257q0 -158 -101.5 -264t-269.5 -106q-169 0 -267.5 103.5t-98.5 256.5zM311 975q0 -217 74 -291q25 -25 64 -25q56 0 84 69.5t28 180.5q0 102 -18 177t-49 106q-33 33 -70 33q-56 0 -84.5 -69.5t-28.5 -180.5z" />
<glyph unicode="&#xbb;" horiz-adv-x="1044" d="M49 102l326 351l-326 350l27 45l512 -322v-147l-512 -322zM522 125l281 328l-281 327l27 45l489 -299v-147l-489 -299z" />
<glyph unicode="&#xbc;" horiz-adv-x="1464" d="M84 559l4 74l109 16q30 12 30 29v498l-143 16l4 51l383 121v-686q0 -24 31 -29l84 -16l4 -74h-506zM162 -238l1095 1518h129l-1095 -1518h-129zM788 -18l392 505h163v-493h125l-8 -86h-117v-201h-208v201h-332zM879 -6h256v325h-7z" />
<glyph unicode="&#xbd;" horiz-adv-x="1464" d="M84 559l4 74l109 16q30 12 30 29v498l-143 16l4 51l383 121v-686q0 -24 31 -29l84 -16l4 -74h-506zM131 -238l1096 1518h129l-1096 -1518h-129zM805 297q57 91 139.5 148t181.5 57q126 0 195.5 -60t69.5 -168q0 -32 -9.5 -60.5t-35 -61t-51 -59t-78 -67t-95.5 -71.5 t-121 -86v-8h86q203 0 219 3q19 3 25 13l37 60h59l-53 -230h-551l-12 84q35 35 86.5 81.5t84 75.5t69.5 68.5t58 71t35.5 70t14.5 78.5q0 47 -36.5 77.5t-94.5 30.5q-90 0 -205 -82z" />
<glyph unicode="&#xbe;" horiz-adv-x="1464" d="M12 1145q58 93 150.5 151t210.5 58q102 0 164.5 -47.5t62.5 -112.5q0 -42 -21.5 -77t-62 -62t-84 -46t-102.5 -38v-8q52 17 104.5 12.5t95 -22.5t69 -57.5t26.5 -92.5q0 -111 -104.5 -193t-256.5 -82q-94 0 -166.5 41t-72.5 109q0 37 27 65.5t65 28.5q28 0 49.5 -11.5 t34 -29.5t21.5 -42t12 -46t4 -45h20q54 0 93.5 48.5t39.5 123.5q0 58 -34.5 99.5t-82.5 41.5q-24 0 -73 -24l-31 51q18 11 53.5 30.5t55 32t42.5 30.5t33.5 37.5t10.5 41.5q0 43 -33.5 66.5t-81.5 23.5q-120 0 -205 -98zM162 -238l1095 1518h129l-1095 -1518h-129zM788 -18 l392 505h163v-493h125l-8 -86h-117v-201h-208v201h-332zM879 -6h256v325h-7z" />
<glyph unicode="&#xbf;" horiz-adv-x="866" d="M66 369q0 60 12 105t30 74t54.5 53.5t69 39t90.5 35.5q93 34 116 50q31 22 31 52q0 28 -53 107h106q67 -34 107.5 -89t40.5 -112q0 -52 -18.5 -91t-59 -67t-87.5 -47t-120 -39q-119 -33 -147 -49q-33 -19 -33 -43q0 -32 48 -56.5t115.5 -36t139.5 -11.5q37 0 178 18 q29 -17 48.5 -54t19.5 -71q0 -78 -57 -125t-173 -47q-78 0 -159.5 31.5t-148 84t-108.5 129t-42 159.5zM305 1145q0 66 47 115t115 49q66 0 114 -48.5t48 -115.5q0 -69 -47.5 -116.5t-114.5 -47.5q-68 0 -115 48.5t-47 115.5z" />
<glyph unicode="&#xc0;" horiz-adv-x="1355" d="M-47 0l6 94l43 12q27 8 38.5 12t31.5 14.5t31.5 25.5t30 41t35.5 65t39.5 93.5t49.5 129.5l242 660v96l317 66l389 -1096q16 -43 48 -66t83 -38l49 -15l7 -94h-691l7 94l57 8q70 10 76 54.5t-39 167.5l-25 69h-416l-4 -12q-41 -128 -27 -197t77 -80l55 -10l6 -94h-516z M244 1769h317l199 -362h-137zM397 506h346l-157 483h-23z" />
<glyph unicode="&#xc1;" horiz-adv-x="1355" d="M-47 0l6 94l43 12q27 8 38.5 12t31.5 14.5t31.5 25.5t30 41t35.5 65t39.5 93.5t49.5 129.5l242 660v96l317 66l389 -1096q16 -43 48 -66t83 -38l49 -15l7 -94h-691l7 94l57 8q70 10 76 54.5t-39 167.5l-25 69h-416l-4 -12q-41 -128 -27 -197t77 -80l55 -10l6 -94h-516z M397 506h346l-157 483h-23zM559 1407l199 362h315l-379 -362h-135z" />
<glyph unicode="&#xc2;" horiz-adv-x="1355" d="M-47 0l6 94l43 12q27 8 38.5 12t31.5 14.5t31.5 25.5t30 41t35.5 65t39.5 93.5t49.5 129.5l242 660v96l317 66l389 -1096q16 -43 48 -66t83 -38l49 -15l7 -94h-691l7 94l57 8q70 10 76 54.5t-39 167.5l-25 69h-416l-4 -12q-41 -128 -27 -197t77 -80l55 -10l6 -94h-516z M352 1407l260 424h131l261 -424h-97l-227 209h-4l-227 -209h-97zM397 506h346l-157 483h-23z" />
<glyph unicode="&#xc3;" horiz-adv-x="1355" d="M-47 0l6 94l43 12q27 8 38.5 12t31.5 14.5t31.5 25.5t30 41t35.5 65t39.5 93.5t49.5 129.5l242 660v96l317 66l389 -1096q16 -43 48 -66t83 -38l49 -15l7 -94h-691l7 94l57 8q70 10 76 54.5t-39 167.5l-25 69h-416l-4 -12q-41 -128 -27 -197t77 -80l55 -10l6 -94h-516z M301 1438q17 165 72 233t153 68q48 0 111.5 -34.5t119.5 -68.5t87 -34q35 0 55 28t39 90h117q-14 -164 -70.5 -232.5t-155.5 -68.5q-48 0 -113 35t-123 70t-89 35q-22 0 -36.5 -14.5t-21 -34t-17.5 -60.5l-3 -12h-125zM397 506h346l-157 483h-23z" />
<glyph unicode="&#xc4;" horiz-adv-x="1355" d="M-47 0l6 94l43 12q27 8 38.5 12t31.5 14.5t31.5 25.5t30 41t35.5 65t39.5 93.5t49.5 129.5l242 660v96l317 66l389 -1096q16 -43 48 -66t83 -38l49 -15l7 -94h-691l7 94l57 8q70 10 76 54.5t-39 167.5l-25 69h-416l-4 -12q-41 -128 -27 -197t77 -80l55 -10l6 -94h-516z M297 1581q0 64 40 110t107 46q68 0 107 -45.5t39 -110.5t-39 -109.5t-107 -44.5q-67 0 -107 45t-40 109zM397 506h346l-157 483h-23zM768 1581q0 65 38.5 110.5t104.5 45.5q68 0 108 -45.5t40 -110.5q0 -64 -40 -109t-108 -45q-66 0 -104.5 44.5t-38.5 109.5z" />
<glyph unicode="&#xc5;" horiz-adv-x="1355" d="M-47 0l6 94l43 12q34 9 52 18.5t41 31t44.5 63.5t50 107.5t68.5 171.5l283 747q-88 63 -88 182q0 94 60.5 159t160.5 65t160.5 -65t60.5 -159q0 -95 -59 -157l370 -1057q16 -43 48 -66t83 -38l49 -15l7 -94h-691l7 94l57 8q70 10 76 54.5t-39 167.5l-25 69h-416l-4 -12 q-41 -128 -27 -197t77 -80l55 -10l6 -94h-516zM397 496h346l-168 499h-10zM532 1427q0 -60 39 -103.5t103 -43.5q63 0 102 43.5t39 103.5t-39 104t-102 44t-102.5 -44t-39.5 -104z" />
<glyph unicode="&#xc6;" horiz-adv-x="2052" d="M-23 0l7 92l47 12q43 11 68.5 25t62 55.5t79 113t111.5 200.5l271 508q38 77 20 118t-80 52l-86 16l-6 88h1450v-461h-180l-41 142q-11 39 -22 67t-26.5 51t-30.5 38t-40.5 26.5t-48 17.5t-62 10t-75 5t-92.5 2l-117 2v-486h47q42 0 72.5 5.5t58.5 25.5t41 55l51 142h133 l-51 -549h-127l-25 129q-9 52 -41 70t-120 18h-39v-490l141 2q72 1 116.5 4t88 11.5t69 22.5t50.5 39t42.5 59t35.5 84l40 112h185l-41 -434h-1194l6 88l90 23q47 11 47 49v289h-405l-33 -60q-39 -71 -56 -125.5t-12 -87t23 -50.5t49 -24l57 -10l7 -92h-515zM510 549h352 v633h-14z" />
<glyph unicode="&#xc7;" horiz-adv-x="1509" d="M82 616q0 152 55 281t152 219.5t234 141.5t296 51q97 0 187 -17.5t147 -40.5l213 58v-490h-188l-113 332q-99 45 -205 45q-200 0 -301.5 -145.5t-101.5 -399.5q0 -269 102.5 -421t288.5 -152q111 0 203 39l123 329h202l-35 -446l-165 33q-159 -55 -299 -64l-78 -75 q135 -8 213 -60.5t78 -140.5q0 -117 -132.5 -187.5t-345.5 -78.5l-22 61q155 17 239 58t84 100q0 47 -44 74.5t-128 27.5q-87 0 -155 -16v57l174 180q-314 12 -496 178.5t-182 468.5z" />
<glyph unicode="&#xc8;" horiz-adv-x="1413" d="M63 0l7 90l63 8q39 5 54.5 13t15.5 26v1006q0 14 -15.5 22t-68.5 17l-49 8l-7 90h1219v-461h-180l-41 142q-15 52 -30 86t-39 59.5t-49 38.5t-69.5 21t-89.5 10t-120 2h-117v-484h47q42 0 72.5 5.5t58.5 25.5t41 55l51 142h133l-51 -549h-127l-24 129q-9 52 -41.5 70 t-120.5 18h-39v-488h141q71 0 116.5 2.5t88 11.5t69 23t51 39.5t42 59.5t35.5 84l40 112h185l-41 -434h-1211zM322 1769h317l199 -362h-138z" />
<glyph unicode="&#xc9;" horiz-adv-x="1413" d="M63 0l7 90l63 8q39 5 54.5 13t15.5 26v1006q0 14 -15.5 22t-68.5 17l-49 8l-7 90h1219v-461h-180l-41 142q-15 52 -30 86t-39 59.5t-49 38.5t-69.5 21t-89.5 10t-120 2h-117v-484h47q42 0 72.5 5.5t58.5 25.5t41 55l51 142h133l-51 -549h-127l-24 129q-9 52 -41.5 70 t-120.5 18h-39v-488h141q71 0 116.5 2.5t88 11.5t69 23t51 39.5t42 59.5t35.5 84l40 112h185l-41 -434h-1211zM547 1407l198 362h316l-379 -362h-135z" />
<glyph unicode="&#xca;" horiz-adv-x="1413" d="M63 0l7 90l63 8q39 5 54.5 13t15.5 26v1006q0 14 -15.5 22t-68.5 17l-49 8l-7 90h1219v-461h-180l-41 142q-15 52 -30 86t-39 59.5t-49 38.5t-69.5 21t-89.5 10t-120 2h-117v-484h47q42 0 72.5 5.5t58.5 25.5t41 55l51 142h133l-51 -549h-127l-24 129q-9 52 -41.5 70 t-120.5 18h-39v-488h141q71 0 116.5 2.5t88 11.5t69 23t51 39.5t42 59.5t35.5 84l40 112h185l-41 -434h-1211zM381 1407l260 424h131l260 -424h-96l-227 209h-4l-228 -209h-96z" />
<glyph unicode="&#xcb;" horiz-adv-x="1413" d="M63 0l7 90l63 8q39 5 54.5 13t15.5 26v1006q0 14 -15.5 22t-68.5 17l-49 8l-7 90h1219v-461h-180l-41 142q-15 52 -30 86t-39 59.5t-49 38.5t-69.5 21t-89.5 10t-120 2h-117v-484h47q42 0 72.5 5.5t58.5 25.5t41 55l51 142h133l-51 -549h-127l-24 129q-9 52 -41.5 70 t-120.5 18h-39v-488h141q71 0 116.5 2.5t88 11.5t69 23t51 39.5t42 59.5t35.5 84l40 112h185l-41 -434h-1211zM326 1581q0 64 40 110t107 46t106 -45.5t39 -110.5t-38.5 -109.5t-106.5 -44.5q-67 0 -107 45t-40 109zM797 1581q0 65 38.5 110.5t104.5 45.5q68 0 107.5 -45.5 t39.5 -110.5t-39.5 -109.5t-107.5 -44.5q-66 0 -104.5 44.5t-38.5 109.5z" />
<glyph unicode="&#xcc;" horiz-adv-x="790" d="M-18 1769h317l199 -362h-138zM61 0l7 90l86 8q37 3 53 12t16 27v1006q0 15 -16.5 24t-67.5 15l-71 8l-7 90h668l-6 -90l-86 -8q-42 -4 -56 -13.5t-14 -25.5v-1008q0 -16 15.5 -24.5t62.5 -12.5l78 -8l6 -90h-668z" />
<glyph unicode="&#xcd;" horiz-adv-x="790" d="M61 0l7 90l86 8q37 3 53 12t16 27v1006q0 15 -16.5 24t-67.5 15l-71 8l-7 90h668l-6 -90l-86 -8q-42 -4 -56 -13.5t-14 -25.5v-1008q0 -16 15.5 -24.5t62.5 -12.5l78 -8l6 -90h-668zM297 1407l199 362h315l-379 -362h-135z" />
<glyph unicode="&#xce;" horiz-adv-x="790" d="M61 0l7 90l86 8q37 3 53 12t16 27v1006q0 15 -16.5 24t-67.5 15l-71 8l-7 90h668l-6 -90l-86 -8q-42 -4 -56 -13.5t-14 -25.5v-1008q0 -16 15.5 -24.5t62.5 -12.5l78 -8l6 -90h-668zM70 1407l260 424h131l260 -424h-96l-228 209h-4l-227 -209h-96z" />
<glyph unicode="&#xcf;" horiz-adv-x="790" d="M14 1581q0 64 40.5 110t107.5 46t106 -45.5t39 -110.5t-38.5 -109.5t-106.5 -44.5q-67 0 -107.5 45t-40.5 109zM61 0l7 90l86 8q37 3 53 12t16 27v1006q0 15 -16.5 24t-67.5 15l-71 8l-7 90h668l-6 -90l-86 -8q-42 -4 -56 -13.5t-14 -25.5v-1008q0 -16 15.5 -24.5 t62.5 -12.5l78 -8l6 -90h-668zM485 1581q0 65 39 110.5t105 45.5q68 0 107.5 -45.5t39.5 -110.5t-39.5 -109.5t-107.5 -44.5q-66 0 -105 44.5t-39 109.5z" />
<glyph unicode="&#xd0;" horiz-adv-x="1513" d="M63 0l7 90l86 23q47 11 47 49v428h-137l6 104h131v424q0 38 -47 49l-86 23l-7 90l607 8q359 4 568.5 -168.5t209.5 -449.5q0 -130 -53.5 -250.5t-150.5 -214t-244.5 -149.5t-323.5 -56h-613zM547 133l145 -31q116 0 203 70t131.5 187t44.5 264q0 261 -112 407t-341 146 h-71v-482h237l7 -104h-244v-457z" />
<glyph unicode="&#xd1;" horiz-adv-x="1462" d="M20 0l7 90l96 27q12 3 20 8.5t20 29t18.5 63.5t12 117.5t5.5 184.5v549q0 20 -20 41t-44 33l-90 47l-6 90h471l620 -881h21v357q0 108 -4 184.5t-10 117.5t-16 65t-18 30.5t-20 9.5l-120 27l-7 90h496l-6 -90l-96 -27q-13 -3 -21 -9t-19.5 -29.5t-18.5 -64t-12 -118.5 t-5 -186v-770h-273l-659 932h-20v-398q0 -108 4 -184t9.5 -116.5t15.5 -64t18 -29.5t20 -9l121 -27l6 -90h-496zM354 1438q17 165 72 233t154 68q38 0 86.5 -21.5t86 -47t78.5 -47t66 -21.5q35 0 55 28t39 90h117q-14 -165 -70 -233t-155 -68q-48 0 -113.5 35t-123.5 70 t-89 35q-22 0 -36.5 -14.5t-21 -34t-17.5 -60.5l-3 -12h-125z" />
<glyph unicode="&#xd2;" horiz-adv-x="1589" d="M82 627q0 123 38 231.5t105.5 190t157.5 141t197.5 89.5t222.5 30q327 0 515.5 -179.5t188.5 -480.5q0 -123 -37.5 -231.5t-105 -190t-157 -141t-197 -89.5t-222.5 -30q-327 0 -516.5 180.5t-189.5 479.5zM442 1769h318l198 -362h-137zM455 651q0 -275 97.5 -423 t250.5 -148q148 0 240 139t92 406q0 276 -97 423.5t-250 147.5q-148 0 -240.5 -139t-92.5 -406z" />
<glyph unicode="&#xd3;" horiz-adv-x="1589" d="M82 627q0 123 38 231.5t105.5 190t157.5 141t197.5 89.5t222.5 30q327 0 515.5 -179.5t188.5 -480.5q0 -123 -37.5 -231.5t-105 -190t-157 -141t-197 -89.5t-222.5 -30q-327 0 -516.5 180.5t-189.5 479.5zM455 651q0 -275 97.5 -423t250.5 -148q148 0 240 139t92 406 q0 276 -97 423.5t-250 147.5q-148 0 -240.5 -139t-92.5 -406zM696 1407l199 362h315l-379 -362h-135z" />
<glyph unicode="&#xd4;" horiz-adv-x="1589" d="M82 627q0 123 38 231.5t105.5 190t157.5 141t197.5 89.5t222.5 30q327 0 515.5 -179.5t188.5 -480.5q0 -123 -37.5 -231.5t-105 -190t-157 -141t-197 -89.5t-222.5 -30q-327 0 -516.5 180.5t-189.5 479.5zM455 651q0 -275 97.5 -423t250.5 -148q148 0 240 139t92 406 q0 276 -97 423.5t-250 147.5q-148 0 -240.5 -139t-92.5 -406zM469 1407l260 424h131l260 -424h-96l-227 209h-4l-228 -209h-96z" />
<glyph unicode="&#xd5;" horiz-adv-x="1589" d="M82 627q0 123 38 231.5t105.5 190t157.5 141t197.5 89.5t222.5 30q327 0 515.5 -179.5t188.5 -480.5q0 -123 -37.5 -231.5t-105 -190t-157 -141t-197 -89.5t-222.5 -30q-327 0 -516.5 180.5t-189.5 479.5zM418 1438q17 165 72 233t153 68q48 0 111.5 -34.5t119.5 -68.5 t87 -34q35 0 55 28t39 90h116q-14 -165 -70 -233t-155 -68q-48 0 -113 35t-123 70t-89 35q-22 0 -36.5 -14.5t-21 -34t-17.5 -60.5l-3 -12h-125zM455 651q0 -275 97.5 -423t250.5 -148q148 0 240 139t92 406q0 276 -97 423.5t-250 147.5q-148 0 -240.5 -139t-92.5 -406z" />
<glyph unicode="&#xd6;" horiz-adv-x="1589" d="M82 627q0 123 38 231.5t105.5 190t157.5 141t197.5 89.5t222.5 30q327 0 515.5 -179.5t188.5 -480.5q0 -123 -37.5 -231.5t-105 -190t-157 -141t-197 -89.5t-222.5 -30q-327 0 -516.5 180.5t-189.5 479.5zM414 1581q0 64 40 110t107 46q68 0 107 -45.5t39 -110.5 t-39 -109.5t-107 -44.5q-67 0 -107 45t-40 109zM455 651q0 -275 97.5 -423t250.5 -148q148 0 240 139t92 406q0 276 -97 423.5t-250 147.5q-148 0 -240.5 -139t-92.5 -406zM885 1581q0 65 38.5 110.5t104.5 45.5q68 0 108 -45.5t40 -110.5q0 -64 -40 -109t-108 -45 q-66 0 -104.5 44.5t-38.5 109.5z" />
<glyph unicode="&#xd7;" horiz-adv-x="983" d="M63 143l340 340l-340 338l91 88l338 -338l337 338l91 -88l-340 -338l340 -340l-91 -88l-337 340l-338 -340z" />
<glyph unicode="&#xd8;" horiz-adv-x="1589" d="M82 627q0 123 38 231.5t105.5 190t157.5 141t197.5 89.5t222.5 30q168 0 299 -49l86 149h115q-111 -188 -111 -190q152 -79 233.5 -227t81.5 -343q0 -123 -37.5 -231.5t-105 -190t-157 -141t-197 -89.5t-222.5 -30q-164 0 -294 47l-97 -166h-114l118 205 q-154 82 -236.5 230.5t-82.5 343.5zM455 651q0 -235 73 -381l478 824q-88 102 -218 102q-148 0 -240.5 -139t-92.5 -406zM590 178q85 -98 213 -98q148 0 240 139t92 406q0 224 -70 374q-475 -819 -475 -821z" />
<glyph unicode="&#xd9;" horiz-adv-x="1447" d="M41 1280h623l-7 -90l-63 -8q-42 -6 -56 -14.5t-14 -24.5v-690q0 -159 72.5 -256t216.5 -97q163 0 242.5 92t79.5 295v269q0 108 -4 184.5t-10 117.5t-16 65t-18 30.5t-20 9.5l-121 27l-6 90h496l-6 -90l-97 -27q-13 -3 -21 -9t-19.5 -29.5t-18.5 -64t-12 -118.5t-5 -186 v-316q0 -224 -141 -358.5t-381 -134.5q-161 0 -284.5 44.5t-197 138.5t-73.5 226v787q0 14 -15.5 22t-68.5 17l-49 8zM371 1769h317l199 -362h-137z" />
<glyph unicode="&#xda;" horiz-adv-x="1447" d="M41 1280h623l-7 -90l-63 -8q-42 -6 -56 -14.5t-14 -24.5v-690q0 -159 72.5 -256t216.5 -97q163 0 242.5 92t79.5 295v269q0 108 -4 184.5t-10 117.5t-16 65t-18 30.5t-20 9.5l-121 27l-6 90h496l-6 -90l-97 -27q-13 -3 -21 -9t-19.5 -29.5t-18.5 -64t-12 -118.5t-5 -186 v-316q0 -224 -141 -358.5t-381 -134.5q-161 0 -284.5 44.5t-197 138.5t-73.5 226v787q0 14 -15.5 22t-68.5 17l-49 8zM686 1407l199 362h315l-379 -362h-135z" />
<glyph unicode="&#xdb;" horiz-adv-x="1447" d="M41 1280h623l-7 -90l-63 -8q-42 -6 -56 -14.5t-14 -24.5v-690q0 -159 72.5 -256t216.5 -97q163 0 242.5 92t79.5 295v269q0 108 -4 184.5t-10 117.5t-16 65t-18 30.5t-20 9.5l-121 27l-6 90h496l-6 -90l-97 -27q-13 -3 -21 -9t-19.5 -29.5t-18.5 -64t-12 -118.5t-5 -186 v-316q0 -224 -141 -358.5t-381 -134.5q-161 0 -284.5 44.5t-197 138.5t-73.5 226v787q0 14 -15.5 22t-68.5 17l-49 8zM438 1407l260 424h131l261 -424h-97l-227 209h-4l-227 -209h-97z" />
<glyph unicode="&#xdc;" horiz-adv-x="1447" d="M41 1280h623l-7 -90l-63 -8q-42 -6 -56 -14.5t-14 -24.5v-690q0 -159 72.5 -256t216.5 -97q163 0 242.5 92t79.5 295v269q0 108 -4 184.5t-10 117.5t-16 65t-18 30.5t-20 9.5l-121 27l-6 90h496l-6 -90l-97 -27q-13 -3 -21 -9t-19.5 -29.5t-18.5 -64t-12 -118.5t-5 -186 v-316q0 -224 -141 -358.5t-381 -134.5q-161 0 -284.5 44.5t-197 138.5t-73.5 226v787q0 14 -15.5 22t-68.5 17l-49 8zM403 1581q0 64 40.5 110t107.5 46t106 -45.5t39 -110.5t-38.5 -109.5t-106.5 -44.5q-67 0 -107.5 45t-40.5 109zM874 1581q0 65 39 110.5t105 45.5 q68 0 107.5 -45.5t39.5 -110.5t-39.5 -109.5t-107.5 -44.5q-66 0 -105 44.5t-39 109.5z" />
<glyph unicode="&#xdd;" horiz-adv-x="1249" d="M-31 1280h639l-6 -94l-61 -12q-91 -17 10 -218l158 -317h20l135 246q55 100 72 159.5t1.5 88t-63.5 38.5l-65 15l-6 94h485l-6 -94l-51 -17q-34 -11 -58.5 -30.5t-67 -79t-108.5 -174.5l-202 -357v-393q0 -16 15 -24.5t62 -12.5l78 -8l6 -90h-667l6 90l86 8q37 3 53.5 12 t16.5 27v369l-332 579q-22 39 -41 57t-49 27l-54 17zM465 1407l199 362h315l-379 -362h-135z" />
<glyph unicode="&#xde;" horiz-adv-x="1314" d="M63 0l7 90l63 8q39 5 54.5 13t15.5 26v1008q0 14 -15.5 22t-68.5 17l-49 8l-7 90l625 -2l-6 -90l-66 -8q-42 -6 -55.5 -14.5t-13.5 -24.5v-109h139q265 0 409 -98t144 -270q0 -125 -84.5 -222.5t-216 -146.5t-283.5 -49q-15 0 -108 6v-119q0 -16 15 -23.5t63 -13.5l73 -8 l7 -90h-642zM547 354q62 -8 102 -8q97 0 156 81t59 208q0 141 -64.5 224t-189.5 83h-63v-588z" />
<glyph unicode="&#xdf;" horiz-adv-x="1304" d="M2 782l12 136h138l4 49q18 203 154.5 331.5t359.5 128.5q207 0 325.5 -83.5t118.5 -229.5q0 -103 -72.5 -160.5t-207.5 -91.5q182 -80 294.5 -205t112.5 -268q0 -181 -111 -301.5t-276 -120.5q-142 0 -227.5 58t-85.5 155q0 68 41.5 111t107.5 43q47 0 78.5 -21.5 t44.5 -56.5t12 -77.5t-16 -86.5q33 -20 63 -20q54 0 91.5 40t37.5 97q0 61 -16.5 112.5t-57.5 107t-120.5 109t-196.5 103.5v238q124 34 171.5 93t47.5 156q0 89 -43.5 138t-123.5 49q-94 0 -143.5 -79.5t-49.5 -231.5v-1004h-424l6 88l41 4q37 3 53.5 12t16.5 27v633z" />
<glyph unicode="&#xe0;" horiz-adv-x="1087" d="M61 668q0 69 73 138.5t195 115t251 45.5q79 0 141 -20t111 -63t73.5 -120.5t20.5 -183.5l-15 -328q-3 -56 8.5 -76t45.5 -20q29 0 92 53l30 -62q-50 -73 -129.5 -128.5t-148.5 -55.5q-33 0 -63.5 10.5t-58.5 32t-46 60t-20 88.5h-11q-71 -92 -135 -138.5t-147 -46.5 q-109 0 -183.5 63t-74.5 179q0 124 131 209.5t415 161.5v14q0 99 -53 162t-153 63q-32 0 -64 -6t-49.5 -13t-17.5 -11q0 -2 9 -12t19.5 -23.5t19.5 -37.5t9 -50q0 -40 -38.5 -77.5t-94.5 -37.5q-62 0 -102 32t-40 83zM66 1427h317l199 -362h-138zM352 285q0 -55 37 -83 t92 -28q36 0 72.5 23t52.5 47l6 256q-150 -46 -205 -97t-55 -118z" />
<glyph unicode="&#xe1;" horiz-adv-x="1087" d="M61 668q0 69 73 138.5t195 115t251 45.5q79 0 141 -20t111 -63t73.5 -120.5t20.5 -183.5l-15 -328q-3 -56 8.5 -76t45.5 -20q29 0 92 53l30 -62q-50 -73 -129.5 -128.5t-148.5 -55.5q-33 0 -63.5 10.5t-58.5 32t-46 60t-20 88.5h-11q-71 -92 -135 -138.5t-147 -46.5 q-109 0 -183.5 63t-74.5 179q0 124 131 209.5t415 161.5v14q0 99 -53 162t-153 63q-32 0 -64 -6t-49.5 -13t-17.5 -11q0 -2 9 -12t19.5 -23.5t19.5 -37.5t9 -50q0 -40 -38.5 -77.5t-94.5 -37.5q-62 0 -102 32t-40 83zM352 285q0 -55 37 -83t92 -28q36 0 72.5 23t52.5 47 l6 256q-150 -46 -205 -97t-55 -118zM379 1065l199 362h315l-379 -362h-135z" />
<glyph unicode="&#xe2;" horiz-adv-x="1087" d="M61 668q0 69 73 138.5t195 115t251 45.5q79 0 141 -20t111 -63t73.5 -120.5t20.5 -183.5l-15 -328q-3 -56 8.5 -76t45.5 -20q29 0 92 53l30 -62q-50 -73 -129.5 -128.5t-148.5 -55.5q-33 0 -63.5 10.5t-58.5 32t-46 60t-20 88.5h-11q-71 -92 -135 -138.5t-147 -46.5 q-109 0 -183.5 63t-74.5 179q0 124 131 209.5t415 161.5v14q0 99 -53 162t-153 63q-32 0 -64 -6t-49.5 -13t-17.5 -11q0 -2 9 -12t19.5 -23.5t19.5 -37.5t9 -50q0 -40 -38.5 -77.5t-94.5 -37.5q-62 0 -102 32t-40 83zM197 1065l260 424h131l260 -424h-96l-228 209h-4 l-227 -209h-96zM352 285q0 -55 37 -83t92 -28q36 0 72.5 23t52.5 47l6 256q-150 -46 -205 -97t-55 -118z" />
<glyph unicode="&#xe3;" horiz-adv-x="1087" d="M61 668q0 69 73 138.5t195 115t251 45.5q79 0 141 -20t111 -63t73.5 -120.5t20.5 -183.5l-15 -328q-3 -56 8.5 -76t45.5 -20q29 0 92 53l30 -62q-50 -73 -129.5 -128.5t-148.5 -55.5q-33 0 -63.5 10.5t-58.5 32t-46 60t-20 88.5h-11q-71 -92 -135 -138.5t-147 -46.5 q-109 0 -183.5 63t-74.5 179q0 124 131 209.5t415 161.5v14q0 99 -53 162t-153 63q-32 0 -64 -6t-49.5 -13t-17.5 -11q0 -2 9 -12t19.5 -23.5t19.5 -37.5t9 -50q0 -40 -38.5 -77.5t-94.5 -37.5q-62 0 -102 32t-40 83zM145 1096q17 165 72 233t154 68q38 0 86.5 -21.5t86 -47 t78.5 -47t66 -21.5q35 0 55 28t39 90h117q-14 -165 -70 -233t-155 -68q-48 0 -113.5 35t-123.5 70t-89 35q-22 0 -36.5 -14.5t-21 -34t-17.5 -60.5l-3 -12h-125zM352 285q0 -55 37 -83t92 -28q36 0 72.5 23t52.5 47l6 256q-150 -46 -205 -97t-55 -118z" />
<glyph unicode="&#xe4;" horiz-adv-x="1087" d="M61 668q0 69 73 138.5t195 115t251 45.5q79 0 141 -20t111 -63t73.5 -120.5t20.5 -183.5l-15 -328q-3 -56 8.5 -76t45.5 -20q29 0 92 53l30 -62q-50 -73 -129.5 -128.5t-148.5 -55.5q-33 0 -63.5 10.5t-58.5 32t-46 60t-20 88.5h-11q-71 -92 -135 -138.5t-147 -46.5 q-109 0 -183.5 63t-74.5 179q0 124 131 209.5t415 161.5v14q0 99 -53 162t-153 63q-32 0 -64 -6t-49.5 -13t-17.5 -11q0 -2 9 -12t19.5 -23.5t19.5 -37.5t9 -50q0 -40 -38.5 -77.5t-94.5 -37.5q-62 0 -102 32t-40 83zM139 1239q0 64 40.5 110t107.5 46t106 -45.5t39 -110.5 t-38.5 -109.5t-106.5 -44.5q-67 0 -107.5 45t-40.5 109zM352 285q0 -55 37 -83t92 -28q36 0 72.5 23t52.5 47l6 256q-150 -46 -205 -97t-55 -118zM610 1239q0 65 39 110.5t105 45.5q68 0 107.5 -45.5t39.5 -110.5t-39.5 -109.5t-107.5 -44.5q-66 0 -105 44.5t-39 109.5z" />
<glyph unicode="&#xe5;" horiz-adv-x="1077" d="M61 668q0 69 73 138.5t195 115t251 45.5q79 0 141 -20t111 -63t73.5 -120.5t20.5 -183.5l-15 -328q-3 -56 8.5 -76t45.5 -20q29 0 92 53l30 -62q-50 -73 -129.5 -128.5t-148.5 -55.5q-33 0 -63.5 10.5t-58.5 32t-46 60t-20 88.5h-11q-71 -92 -135 -138.5t-147 -46.5 q-109 0 -183.5 63t-74.5 179q0 124 131 209.5t415 161.5v14q0 99 -53 162t-153 63q-32 0 -64 -6t-49.5 -13t-17.5 -11q0 -2 9 -12t19.5 -23.5t19.5 -37.5t9 -50q0 -40 -38.5 -77.5t-94.5 -37.5q-62 0 -102 32t-40 83zM287 1268q0 94 60.5 158.5t160.5 64.5t160.5 -64.5 t60.5 -158.5t-60.5 -159t-160.5 -65t-160.5 65t-60.5 159zM352 285q0 -55 37 -83t92 -28q36 0 72.5 23t52.5 47l6 256q-150 -46 -205 -97t-55 -118zM367 1268q0 -60 39 -104t102 -44t102 44t39 104t-39 103.5t-102 43.5t-102 -43.5t-39 -103.5z" />
<glyph unicode="&#xe6;" horiz-adv-x="1564" d="M61 668q0 69 71.5 138.5t194 115t255.5 45.5q172 0 256 -78q129 80 288 80q102 0 184.5 -36.5t134.5 -112t52 -179.5q0 -59 -12 -115l-555 9v-23q0 -161 69 -251.5t189 -90.5q73 0 141.5 39.5t122.5 109.5l49 -26q-45 -156 -159.5 -240t-288.5 -84q-127 0 -230 58 t-161 163q-62 -104 -152.5 -162.5t-181.5 -58.5q-109 0 -183.5 63t-74.5 179q0 124 131 209.5t415 161.5v14q0 99 -53 162t-153 63q-32 0 -64 -6t-49.5 -13t-17.5 -11q0 -2 9 -12t19.5 -23.5t19.5 -37.5t9 -50q0 -40 -38.5 -77.5t-94.5 -37.5q-62 0 -102 32t-40 83zM352 285 q0 -55 37 -83t92 -28q77 0 152 78q-31 85 -31 184q0 34 4 62q-133 -36 -193.5 -92t-60.5 -121zM928 606l276 8q6 119 -23.5 185.5t-84.5 66.5q-73 0 -117.5 -65.5t-50.5 -194.5z" />
<glyph unicode="&#xe7;" horiz-adv-x="1015" d="M70 436q0 150 67.5 271.5t190.5 191.5t280 70q162 0 253 -59.5t91 -161.5q0 -70 -41 -106t-108 -36q-83 0 -124 76.5t-20 165.5v2q-20 12 -55 12q-89 0 -146 -83t-57 -244q0 -166 68.5 -265.5t187.5 -99.5q73 0 142 40t123 109l49 -26q-38 -134 -128.5 -215t-226.5 -103 l-84 -81q135 -8 213 -60.5t78 -140.5q0 -117 -132 -187.5t-345 -78.5l-22 61q155 17 239 58t84 100q0 47 -44 74.5t-128 27.5q-88 0 -156 -16v57l177 180q-183 9 -304.5 135.5t-121.5 331.5z" />
<glyph unicode="&#xe8;" horiz-adv-x="1032" d="M70 436q0 148 65.5 269.5t186 192.5t272.5 71q102 0 184.5 -36.5t134.5 -112t52 -179.5q0 -55 -13 -115l-555 9v-23q0 -161 69 -251.5t189 -90.5q73 0 142 40t123 109l49 -26q-44 -156 -159.5 -240t-289.5 -84q-192 0 -321 127.5t-129 339.5zM164 1427h317l199 -362h-137 zM395 606l277 8q6 119 -24 185.5t-85 66.5q-73 0 -117.5 -65.5t-50.5 -194.5z" />
<glyph unicode="&#xe9;" horiz-adv-x="1032" d="M70 436q0 148 65.5 269.5t186 192.5t272.5 71q102 0 184.5 -36.5t134.5 -112t52 -179.5q0 -55 -13 -115l-555 9v-23q0 -161 69 -251.5t189 -90.5q73 0 142 40t123 109l49 -26q-44 -156 -159.5 -240t-289.5 -84q-192 0 -321 127.5t-129 339.5zM395 606l277 8 q6 119 -24 185.5t-85 66.5q-73 0 -117.5 -65.5t-50.5 -194.5zM397 1065l199 362h315l-379 -362h-135z" />
<glyph unicode="&#xea;" horiz-adv-x="1032" d="M70 436q0 148 65.5 269.5t186 192.5t272.5 71q102 0 184.5 -36.5t134.5 -112t52 -179.5q0 -55 -13 -115l-555 9v-23q0 -161 69 -251.5t189 -90.5q73 0 142 40t123 109l49 -26q-44 -156 -159.5 -240t-289.5 -84q-192 0 -321 127.5t-129 339.5zM190 1065l261 424h131 l260 -424h-97l-227 209h-4l-227 -209h-97zM395 606l277 8q6 119 -24 185.5t-85 66.5q-73 0 -117.5 -65.5t-50.5 -194.5z" />
<glyph unicode="&#xeb;" horiz-adv-x="1032" d="M70 436q0 148 65.5 269.5t186 192.5t272.5 71q102 0 184.5 -36.5t134.5 -112t52 -179.5q0 -55 -13 -115l-555 9v-23q0 -161 69 -251.5t189 -90.5q73 0 142 40t123 109l49 -26q-44 -156 -159.5 -240t-289.5 -84q-192 0 -321 127.5t-129 339.5zM135 1239q0 64 40.5 110 t107.5 46t106 -45.5t39 -110.5t-38.5 -109.5t-106.5 -44.5q-67 0 -107.5 45t-40.5 109zM395 606l277 8q6 119 -24 185.5t-85 66.5q-73 0 -117.5 -65.5t-50.5 -194.5zM606 1239q0 65 39 110.5t105 45.5q68 0 107.5 -45.5t39.5 -110.5t-39.5 -109.5t-107.5 -44.5 q-66 0 -105 44.5t-39 109.5z" />
<glyph unicode="&#xec;" horiz-adv-x="655" d="M-25 1427h318l199 -362h-138zM55 776l2 72l428 121v-840q0 -15 14.5 -22.5t63.5 -14.5l29 -4l6 -88h-537l7 88l36 4q39 5 54.5 13t15.5 26v467q0 65 -8.5 97t-24.5 45t-55 26z" />
<glyph unicode="&#xed;" horiz-adv-x="655" d="M55 776l2 72l428 121v-840q0 -15 14.5 -22.5t63.5 -14.5l29 -4l6 -88h-537l7 88l36 4q39 5 54.5 13t15.5 26v467q0 65 -8.5 97t-24.5 45t-55 26zM168 1065l199 362h315l-379 -362h-135z" />
<glyph unicode="&#xee;" horiz-adv-x="655" d="M2 1065l260 424h131l260 -424h-96l-227 209h-4l-228 -209h-96zM55 776l2 72l428 121v-840q0 -15 14.5 -22.5t63.5 -14.5l29 -4l6 -88h-537l7 88l36 4q39 5 54.5 13t15.5 26v467q0 65 -8.5 97t-24.5 45t-55 26z" />
<glyph unicode="&#xef;" horiz-adv-x="655" d="M-53 1239q0 64 40 110t107 46q68 0 107 -45.5t39 -110.5t-39 -109.5t-107 -44.5q-67 0 -107 45t-40 109zM55 776l2 72l428 121v-840q0 -15 14.5 -22.5t63.5 -14.5l29 -4l6 -88h-537l7 88l36 4q39 5 54.5 13t15.5 26v467q0 65 -8.5 97t-24.5 45t-55 26zM418 1239 q0 65 38.5 110.5t104.5 45.5q68 0 108 -45.5t40 -110.5q0 -64 -40 -109t-108 -45q-66 0 -104.5 44.5t-38.5 109.5z" />
<glyph unicode="&#xf0;" horiz-adv-x="1157" d="M74 461q0 140 56 255t158.5 182t229.5 67q112 0 189 -74q-55 139 -158 237l-281 -94v109l183 61q-86 53 -189 82l39 86q185 -35 326 -110l237 79v-108l-123 -41q158 -112 243 -275.5t85 -367.5q0 -130 -41.5 -241t-111 -184.5t-158.5 -115t-185 -41.5q-116 0 -212 39.5 t-158 107.5t-95.5 157.5t-33.5 189.5zM408 512q0 -297 100 -397q35 -35 86 -35q76 0 115 95.5t39 246.5q0 140 -25 243t-68 146t-94 43q-76 0 -114.5 -95.5t-38.5 -246.5z" />
<glyph unicode="&#xf1;" horiz-adv-x="1226" d="M43 776l2 72l428 121v-158h10q100 78 181.5 118t162.5 40q101 0 181 -80q77 -77 77 -242v-516q0 -15 16 -23.5t68 -15.5l33 -4l6 -88h-536l6 88l27 4q42 6 55.5 14.5t13.5 24.5v377q0 75 -11 124t-34 74t-51.5 34.5t-71.5 9.5q-35 0 -76 -13.5t-57 -27.5v-580 q0 -16 15.5 -24.5t62.5 -12.5l39 -4l6 -88h-551l6 88l41 4q37 3 53.5 12t16.5 27v467q0 65 -8.5 97t-24.5 45t-55 26zM236 1096q17 165 72 233t153 68q38 0 86.5 -21.5t86 -47t78.5 -47t66 -21.5q35 0 55 28t39 90h117q-14 -165 -70 -233t-155 -68q-48 0 -113.5 35 t-123.5 70t-89 35q-22 0 -36.5 -14.5t-21 -34t-17.5 -60.5l-3 -12h-124z" />
<glyph unicode="&#xf2;" d="M74 459q0 214 155 362t389 148q116 0 211.5 -40t157 -108t94.5 -157t33 -189q0 -214 -154 -360t-389 -146q-154 0 -269 68t-171.5 178t-56.5 244zM164 1427h317l199 -362h-137zM418 506q0 -165 15.5 -257.5t62.5 -139.5q37 -37 100 -37q80 0 127 99t47 257q0 140 -22 243 t-62 146q-45 45 -96 45q-79 0 -125.5 -96t-46.5 -260z" />
<glyph unicode="&#xf3;" d="M74 459q0 214 155 362t389 148q116 0 211.5 -40t157 -108t94.5 -157t33 -189q0 -214 -154 -360t-389 -146q-154 0 -269 68t-171.5 178t-56.5 244zM418 506q0 -165 15.5 -257.5t62.5 -139.5q37 -37 100 -37q80 0 127 99t47 257q0 140 -22 243t-62 146q-45 45 -96 45 q-79 0 -125.5 -96t-46.5 -260zM469 1065l199 362h315l-379 -362h-135z" />
<glyph unicode="&#xf4;" d="M74 459q0 214 155 362t389 148q116 0 211.5 -40t157 -108t94.5 -157t33 -189q0 -214 -154 -360t-389 -146q-154 0 -269 68t-171.5 178t-56.5 244zM262 1065l260 424h131l260 -424h-96l-227 209h-4l-228 -209h-96zM418 506q0 -165 15.5 -257.5t62.5 -139.5q37 -37 100 -37 q80 0 127 99t47 257q0 140 -22 243t-62 146q-45 45 -96 45q-79 0 -125.5 -96t-46.5 -260z" />
<glyph unicode="&#xf5;" d="M74 459q0 214 155 362t389 148q116 0 211.5 -40t157 -108t94.5 -157t33 -189q0 -214 -154 -360t-389 -146q-154 0 -269 68t-171.5 178t-56.5 244zM211 1096q17 165 72 233t153 68q48 0 111.5 -34.5t119.5 -68.5t87 -34q35 0 55 28t39 90h117q-14 -164 -70.5 -232.5 t-155.5 -68.5q-48 0 -113 35t-123 70t-89 35q-22 0 -36.5 -14.5t-21 -34t-17.5 -60.5l-3 -12h-125zM418 506q0 -165 15.5 -257.5t62.5 -139.5q37 -37 100 -37q80 0 127 99t47 257q0 140 -22 243t-62 146q-45 45 -96 45q-79 0 -125.5 -96t-46.5 -260z" />
<glyph unicode="&#xf6;" d="M74 459q0 214 155 362t389 148q116 0 211.5 -40t157 -108t94.5 -157t33 -189q0 -214 -154 -360t-389 -146q-154 0 -269 68t-171.5 178t-56.5 244zM207 1239q0 64 40 110t107 46q68 0 107 -45.5t39 -110.5t-39 -109.5t-107 -44.5q-67 0 -107 45t-40 109zM418 506 q0 -165 15.5 -257.5t62.5 -139.5q37 -37 100 -37q80 0 127 99t47 257q0 140 -22 243t-62 146q-45 45 -96 45q-79 0 -125.5 -96t-46.5 -260zM678 1239q0 65 38.5 110.5t104.5 45.5q68 0 108 -45.5t40 -110.5q0 -64 -40 -109t-108 -45q-66 0 -104.5 44.5t-38.5 109.5z" />
<glyph unicode="&#xf7;" horiz-adv-x="983" d="M78 420l6 125h815l6 -125h-827zM383 199q0 44 31.5 77t77.5 33t78 -33t32 -77t-32 -77.5t-78 -33.5t-77.5 33.5t-31.5 77.5zM383 766q0 44 31.5 77.5t77.5 33.5t78 -33.5t32 -77.5t-32 -77.5t-78 -33.5t-77.5 33.5t-31.5 77.5z" />
<glyph unicode="&#xf8;" horiz-adv-x="1175" d="M74 461q0 140 64.5 255.5t184.5 184t273 68.5q116 0 203 -37l168 291l82 -49q-164 -285 -166 -285q103 -66 161 -176t58 -238q0 -141 -63 -256t-182 -183.5t-273 -68.5q-116 0 -211 39l-156 -270l-82 49l154 266q-100 68 -157.5 176.5t-57.5 233.5zM397 512 q0 -125 23 -233l291 501q-42 74 -140 74q-84 0 -129 -92t-45 -250zM463 160q44 -80 141 -80q84 0 129 92t45 250q0 140 -24 242z" />
<glyph unicode="&#xf9;" horiz-adv-x="1208" d="M18 938h441l-6 -508q-1 -74 10 -123t34 -74.5t52 -35t72 -9.5q35 0 76 13.5t57 27.5v580q0 16 -15.5 24.5t-62.5 12.5l-39 4l-8 88h436v-733q0 -88 47 -101l72 -22l-6 -68l-424 -45v158h-11q-100 -78 -181.5 -118t-162.5 -40q-100 0 -180 80q-78 78 -78 242v516 q0 15 -16 23.5t-68 15.5l-32 4zM190 1427h318l199 -362h-138z" />
<glyph unicode="&#xfa;" horiz-adv-x="1208" d="M18 938h441l-6 -508q-1 -74 10 -123t34 -74.5t52 -35t72 -9.5q35 0 76 13.5t57 27.5v580q0 16 -15.5 24.5t-62.5 12.5l-39 4l-8 88h436v-733q0 -88 47 -101l72 -22l-6 -68l-424 -45v158h-11q-100 -78 -181.5 -118t-162.5 -40q-100 0 -180 80q-78 78 -78 242v516 q0 15 -16 23.5t-68 15.5l-32 4zM444 1065l199 362h315l-378 -362h-136z" />
<glyph unicode="&#xfb;" horiz-adv-x="1208" d="M18 938h441l-6 -508q-1 -74 10 -123t34 -74.5t52 -35t72 -9.5q35 0 76 13.5t57 27.5v580q0 16 -15.5 24.5t-62.5 12.5l-39 4l-8 88h436v-733q0 -88 47 -101l72 -22l-6 -68l-424 -45v158h-11q-100 -78 -181.5 -118t-162.5 -40q-100 0 -180 80q-78 78 -78 242v516 q0 15 -16 23.5t-68 15.5l-32 4zM248 1065l260 424h131l260 -424h-96l-228 209h-4l-227 -209h-96z" />
<glyph unicode="&#xfc;" horiz-adv-x="1208" d="M18 938h441l-6 -508q-1 -74 10 -123t34 -74.5t52 -35t72 -9.5q35 0 76 13.5t57 27.5v580q0 16 -15.5 24.5t-62.5 12.5l-39 4l-8 88h436v-733q0 -88 47 -101l72 -22l-6 -68l-424 -45v158h-11q-100 -78 -181.5 -118t-162.5 -40q-100 0 -180 80q-78 78 -78 242v516 q0 15 -16 23.5t-68 15.5l-32 4zM201 1239q0 64 40 110t107 46q68 0 107 -45.5t39 -110.5t-39 -109.5t-107 -44.5q-67 0 -107 45t-40 109zM672 1239q0 65 38.5 110.5t104.5 45.5q68 0 108 -45.5t40 -110.5q0 -64 -40 -109t-108 -45q-66 0 -104.5 44.5t-38.5 109.5z" />
<glyph unicode="&#xfd;" horiz-adv-x="1038" d="M-27 938h566l-7 -88l-71 -25q-46 -15 -21 -82l187 -483l166 473q26 73 -25 90l-80 27l-6 88h397l-6 -88l-67 -10q-53 -7 -86 -95l-252 -653l-131 -375q-46 -133 -114 -193.5t-163 -60.5q-70 0 -122 41.5t-52 102.5q0 55 34.5 95t94.5 40q52 0 90 -31.5t51 -72.5 q28 10 50.5 45.5t46.5 115.5l22 76v21l-364 864q-10 25 -28 39.5t-50 27.5l-53 23zM358 1065l199 362h315l-378 -362h-136z" />
<glyph unicode="&#xfe;" horiz-adv-x="1204" d="M8 -504l6 88l58 4q37 3 53 12t16 27v1460q0 37 -10.5 57.5t-36.5 35.5l-71 41l6 67l424 139v-626h10q128 157 289 157q160 0 271.5 -129t111.5 -317q0 -148 -65.5 -271.5t-186.5 -197.5t-273 -74q-82 0 -151 25h-6v-369q0 -14 25 -24.5t52 -12.5l60 -4l6 -88h-588z M453 195q58 -69 101 -97t85 -28q69 0 115.5 90t46.5 252q0 154 -65.5 246t-168.5 92q-69 0 -114 -29v-526z" />
<glyph unicode="&#xff;" horiz-adv-x="1038" d="M-27 938h566l-7 -88l-71 -25q-46 -15 -21 -82l187 -483l166 473q26 73 -25 90l-80 27l-6 88h397l-6 -88l-67 -10q-53 -7 -86 -95l-252 -653l-131 -375q-46 -133 -114 -193.5t-163 -60.5q-70 0 -122 41.5t-52 102.5q0 55 34.5 95t94.5 40q52 0 90 -31.5t51 -72.5 q28 10 50.5 45.5t46.5 115.5l22 76v21l-364 864q-10 25 -28 39.5t-50 27.5l-53 23zM158 1239q0 64 40 110t107 46q68 0 107 -45.5t39 -110.5t-39 -109.5t-107 -44.5q-67 0 -107 45t-40 109zM629 1239q0 65 38.5 110.5t104.5 45.5q68 0 108 -45.5t40 -110.5q0 -64 -40 -109 t-108 -45q-66 0 -104.5 44.5t-38.5 109.5z" />
<glyph unicode="&#x152;" horiz-adv-x="2156" d="M84 608q0 131 53 252t149.5 214.5t244.5 149.5t325 56h1172v-451h-170l-41 150q-13 48 -27 79.5t-37.5 55t-48 36t-70.5 19.5t-93 9t-126 2h-110v-486h47q74 0 116.5 16t59.5 64l51 141h125l-49 -534h-121l-23 129q-8 48 -41 65t-127 17h-38v-492h129q92 0 146.5 4 t100.5 15t73.5 35t48 58.5t40.5 90.5l43 123h174l-41 -426h-1218q-212 0 -375 76t-252.5 214.5t-89.5 317.5zM438 655q0 -262 117.5 -408.5t355.5 -146.5h70v1049l-145 31q-122 0 -213.5 -70.5t-138 -188.5t-46.5 -266z" />
<glyph unicode="&#x153;" horiz-adv-x="1726" d="M74 459q0 215 152.5 362.5t385.5 147.5q204 0 336 -119q142 119 340 119q102 0 184.5 -36.5t134.5 -112t52 -179.5q0 -59 -12 -115l-576 9v-23q0 -158 78 -250t201 -92q73 0 141.5 39.5t122.5 109.5l49 -26q-44 -156 -159.5 -240t-289.5 -84q-180 0 -303 111 q-146 -111 -346 -111q-116 0 -210.5 39.5t-155 107t-93 155.5t-32.5 188zM412 506q0 -166 15 -258t62 -139q37 -37 101 -37q80 0 127 99t47 257q0 140 -22 243t-62 146q-45 45 -96 45q-79 0 -125.5 -96t-46.5 -260zM1069 606l297 8q6 119 -24 185.5t-85 66.5 q-75 0 -128.5 -67t-59.5 -193z" />
<glyph unicode="&#x178;" horiz-adv-x="1249" d="M-31 1280h639l-6 -94l-61 -12q-91 -17 10 -218l158 -317h20l135 246q55 100 72 159.5t1.5 88t-63.5 38.5l-65 15l-6 94h485l-6 -94l-51 -17q-34 -11 -58.5 -30.5t-67 -79t-108.5 -174.5l-202 -357v-393q0 -16 15 -24.5t62 -12.5l78 -8l6 -90h-667l6 90l86 8q37 3 53.5 12 t16.5 27v369l-332 579q-22 39 -41 57t-49 27l-54 17zM264 1581q0 64 40.5 110t107.5 46t106 -45.5t39 -110.5t-38.5 -109.5t-106.5 -44.5q-67 0 -107.5 45t-40.5 109zM735 1581q0 65 39 110.5t105 45.5q68 0 107.5 -45.5t39.5 -110.5t-39.5 -109.5t-107.5 -44.5 q-66 0 -105 44.5t-39 109.5z" />
<glyph unicode="&#x2c6;" horiz-adv-x="819" d="M84 1065l260 424h131l260 -424h-96l-227 209h-4l-228 -209h-96z" />
<glyph unicode="&#x2dc;" horiz-adv-x="819" d="M33 1096q17 165 72 233t153 68q38 0 86.5 -21.5t86 -47t78.5 -47t66 -21.5q35 0 55.5 28t39.5 90h116q-14 -165 -70 -233t-155 -68q-48 0 -113 35t-123 70t-89 35q-22 0 -36.5 -14.5t-21 -34t-17.5 -60.5l-3 -12h-125z" />
<glyph unicode="&#x2000;" horiz-adv-x="915" />
<glyph unicode="&#x2001;" horiz-adv-x="1831" />
<glyph unicode="&#x2002;" horiz-adv-x="915" />
<glyph unicode="&#x2003;" horiz-adv-x="1831" />
<glyph unicode="&#x2004;" horiz-adv-x="610" />
<glyph unicode="&#x2005;" horiz-adv-x="457" />
<glyph unicode="&#x2006;" horiz-adv-x="305" />
<glyph unicode="&#x2007;" horiz-adv-x="305" />
<glyph unicode="&#x2008;" horiz-adv-x="228" />
<glyph unicode="&#x2009;" horiz-adv-x="366" />
<glyph unicode="&#x200a;" horiz-adv-x="101" />
<glyph unicode="&#x2010;" horiz-adv-x="692" d="M68 453l6 137h549l6 -137h-561z" />
<glyph unicode="&#x2011;" horiz-adv-x="692" d="M68 453l6 137h549l6 -137h-561z" />
<glyph unicode="&#x2012;" horiz-adv-x="692" d="M68 453l6 137h549l6 -137h-561z" />
<glyph unicode="&#x2013;" horiz-adv-x="962" d="M68 453l6 137h819l6 -137h-831z" />
<glyph unicode="&#x2014;" horiz-adv-x="1925" d="M68 453l6 137h1781l7 -137h-1794z" />
<glyph unicode="&#x2018;" horiz-adv-x="516" d="M47 918q0 246 344 458l66 -67q-106 -70 -154.5 -131.5t-48.5 -139.5q0 -34 15 -64t38 -50t49.5 -36.5t49.5 -26t38 -16.5t15 -9q0 -64 -50 -117t-128 -53q-101 0 -167.5 73t-66.5 179z" />
<glyph unicode="&#x2019;" horiz-adv-x="516" d="M57 1180q0 63 50 116.5t129 53.5q101 0 167 -73t66 -179q0 -124 -90 -241t-254 -218l-66 68q106 70 154.5 131t48.5 139q0 41 -21 75.5t-51 55.5t-60.5 36.5t-51.5 24t-21 11.5z" />
<glyph unicode="&#x201a;" horiz-adv-x="516" d="M57 145q0 63 50 116.5t129 53.5q101 0 167 -73t66 -179q0 -246 -344 -458l-66 67q106 70 154.5 131.5t48.5 139.5q0 34 -15 64t-38 50t-49.5 36.5t-49.5 26t-38 16.5t-15 9z" />
<glyph unicode="&#x201c;" horiz-adv-x="987" d="M47 918q0 246 344 458l66 -67q-106 -70 -154.5 -131.5t-48.5 -139.5q0 -34 15 -64t38 -50t49.5 -36.5t49.5 -26t38 -16.5t15 -9q0 -64 -50 -117t-128 -53q-101 0 -167.5 73t-66.5 179zM518 918q0 246 344 458l66 -67q-106 -70 -154.5 -131.5t-48.5 -139.5q0 -34 15 -64 t38 -50t49.5 -36.5t49.5 -26t38 -16.5t15 -9q0 -64 -50 -117t-128 -53q-101 0 -167.5 73t-66.5 179z" />
<glyph unicode="&#x201d;" horiz-adv-x="987" d="M57 1180q0 63 50 116.5t129 53.5q101 0 167 -73t66 -179q0 -124 -90 -241t-254 -218l-66 68q106 70 154.5 131t48.5 139q0 41 -21 75.5t-51 55.5t-60.5 36.5t-51.5 24t-21 11.5zM528 1180q0 63 50 116.5t129 53.5q101 0 167 -73t66 -179q0 -124 -90 -241t-254 -218 l-66 68q106 70 154.5 131t48.5 139q0 41 -21 75.5t-51 55.5t-60.5 36.5t-51.5 24t-21 11.5z" />
<glyph unicode="&#x201e;" horiz-adv-x="966" d="M57 143q0 63 50 116.5t129 53.5q101 0 167 -73t66 -179q0 -246 -344 -458l-66 67q106 70 154.5 131.5t48.5 139.5q0 34 -15 64t-38 50t-49.5 36.5t-49.5 26t-38 16.5t-15 9zM528 143q0 63 50 116.5t129 53.5q101 0 167 -73t66 -179q0 -246 -344 -458l-66 67 q106 70 154.5 131.5t48.5 139.5q0 34 -15 64t-38 50t-49.5 36.5t-49.5 26t-38 16.5t-15 9z" />
<glyph unicode="&#x2022;" horiz-adv-x="931" d="M72 475q0 44 42.5 146t73.5 133t133.5 72.5t145.5 41.5q44 0 145.5 -41.5t132.5 -72.5t73 -133t42 -146q0 -45 -41.5 -146.5t-73.5 -133.5q-31 -31 -133.5 -73t-146.5 -42q-43 0 -145.5 42.5t-131.5 72.5q-31 33 -73.5 134.5t-42.5 145.5z" />
<glyph unicode="&#x2026;" horiz-adv-x="1425" d="M61 147q0 75 53 129t128 54q74 0 127 -54.5t53 -128.5t-52.5 -127t-127.5 -53t-128 52.5t-53 127.5zM537 147q0 75 52.5 129t127.5 54q74 0 127 -54.5t53 -128.5t-52.5 -127t-127.5 -53t-127.5 52.5t-52.5 127.5zM1012 147q0 75 52.5 129t127.5 54q74 0 127 -54.5 t53 -128.5t-52.5 -127t-127.5 -53t-127.5 52.5t-52.5 127.5z" />
<glyph unicode="&#x202f;" horiz-adv-x="366" />
<glyph unicode="&#x2039;" horiz-adv-x="634" d="M57 379v147l512 322l27 -45l-303 -350l303 -351l-27 -45z" />
<glyph unicode="&#x203a;" horiz-adv-x="634" d="M70 102l303 351l-303 350l26 45l512 -322v-147l-512 -322z" />
<glyph unicode="&#x205f;" horiz-adv-x="457" />
<glyph unicode="&#x20ac;" horiz-adv-x="1093" d="M27 449l6 108h108q-2 16 -2 51q0 33 4 99h-116l6 108h129q54 215 204.5 343t364.5 128q137 0 213 -50.5t76 -129.5q0 -58 -37.5 -93.5t-93.5 -35.5q-65 0 -107.5 54.5t-44.5 133.5q-28 17 -61 17q-95 0 -166.5 -105t-93.5 -262h418l6 -108h-434v-33q0 -62 6 -117h422 l6 -108h-408q40 -142 113 -216.5t192 -74.5q153 0 281 131l39 -31q-40 -126 -153.5 -208.5t-254.5 -82.5q-195 0 -324 124t-171 358h-127z" />
<glyph unicode="&#x2122;" horiz-adv-x="1957" d="M47 967l16 313h736v-313h-107l-8 39q-10 47 -15.5 69.5t-15 51t-19 40t-25.5 24t-36.5 16t-50.5 3.5h-2v-585q0 -23 25 -29l69 -12l7 -66h-402l6 66l70 12q27 5 27 29v585h-3q-32 0 -54.5 -9t-37 -21t-27.5 -42.5t-20.5 -55t-21.5 -76.5l-11 -39h-100zM854 518l6 66 l62 10q19 3 27 15.5t12.5 52t7.5 135.5l12 374q0 26 -27 31l-69 12l-4 66h395l86 -545h20l138 545h385l-4 -66l-68 -12q-29 -5 -29 -31l8 -456q1 -70 10 -91t31 -26l64 -14l4 -66h-408l3 66l71 14q17 3 21.5 23.5t3.5 93.5l-10 475h-21l-180 -647h-176l-131 653h-21 l-14 -399q-4 -131 0 -165.5t22 -37.5l66 -10l6 -66h-299z" />
<glyph unicode="&#x25fc;" horiz-adv-x="942" d="M0 0v942h942v-942h-942z" />
<glyph unicode="&#xfb01;" horiz-adv-x="1286" d="M2 782l12 136h138l4 49q18 219 175.5 339.5t403.5 120.5q162 0 257 -59.5t95 -163.5q0 -68 -43.5 -108.5t-113.5 -40.5q-142 0 -195 209l-2 8l-137 20q-53 -45 -90 -137t-37 -219v-18h432l215 51v-840q0 -7 2.5 -12.5t7.5 -9t10 -6t14 -4t14 -2t15.5 -2t14.5 -1.5l29 -4 l6 -88h-537l6 88l37 4q70 9 70 39v641h-336v-643q0 -17 16 -25.5t62 -11.5l59 -4l6 -88h-567l6 88l41 4q37 3 53.5 12t16.5 27v633z" />
<glyph unicode="&#xfb02;" horiz-adv-x="1277" d="M2 782l12 136h138l4 49q18 219 175.5 339.5t403.5 120.5q161 0 252 -57l129 57v-1298q0 -15 14.5 -22.5t63.5 -14.5l27 -4l6 -88h-535l6 88l37 4q39 5 54.5 13t15.5 26v641h-336v-643q0 -17 16 -25.5t62 -11.5l59 -4l6 -88h-567l6 88l41 4q37 3 53.5 12t16.5 27v633z M469 918h336v192q-47 53 -70 154l-2 8l-137 20q-53 -45 -90 -137t-37 -219v-18z" />
<glyph unicode="&#xfb03;" horiz-adv-x="1949" d="M2 782l12 136h138l4 28q28 198 170 329.5t340 131.5q100 0 177 -42.5t95 -111.5q76 84 195 129t266 45q162 0 257 -59.5t95 -163.5q0 -68 -44 -108.5t-114 -40.5q-141 0 -194 209l-2 8l-137 20q-53 -45 -90 -137t-37 -219v-18h432l215 51v-840q0 -7 2.5 -12.5t7.5 -9 t10 -6t14 -4t14 -2t15.5 -2t14.5 -1.5l28 -4l6 -88h-536l6 88l37 4q69 9 69 39v641h-335v-643q0 -17 15.5 -25.5t61.5 -11.5l60 -4l6 -88h-567l6 88l41 4q37 3 53 12t16 27v641h-356v-643q0 -17 16 -25.5t62 -11.5l59 -4l6 -88h-567l6 88l41 4q37 3 53.5 12t16.5 27v633z M469 918h346l4 49q6 57 21 110q-18 -6 -41 -6q-70 0 -112.5 48t-70.5 157l-2 8l-59 4q-43 -37 -64.5 -110.5t-21.5 -204.5v-55z" />
<glyph unicode="&#xfb04;" horiz-adv-x="1941" d="M2 782l12 136h138l4 28q28 198 170 329.5t340 131.5q100 0 177 -42.5t95 -111.5q76 84 195 129t266 45q161 0 252 -57l129 57v-1298q0 -15 14.5 -22.5t63.5 -14.5l26 -4l6 -88h-534l6 88l37 4q38 5 53.5 13t15.5 26v641h-335v-643q0 -17 15.5 -25.5t61.5 -11.5l60 -4 l6 -88h-567l6 88l41 4q37 3 53 12t16 27v641h-356v-643q0 -17 16 -25.5t62 -11.5l59 -4l6 -88h-567l6 88l41 4q37 3 53.5 12t16.5 27v633zM469 918h346l4 49q6 57 21 110q-18 -6 -41 -6q-70 0 -112.5 48t-70.5 157l-2 8l-59 4q-43 -37 -64.5 -110.5t-21.5 -204.5v-55z M1133 918h335v192q-46 51 -69 154l-2 8l-137 20q-53 -45 -90 -137t-37 -219v-18z" />
</font>
</defs>
</svg>
